<svg width="1200" height="420" viewBox="0 0 1200 420" fill="none" xmlns="http://www.w3.org/2000/svg">
<rect width="1200" height="420" rx="16" fill="#011635"/>
<line x1="543.5" y1="148" x2="543.5" y2="256" stroke="#A6A6A6"/>
<path d="M613.142 162.545H615.784V174.026C615.784 175.247 615.497 176.33 614.923 177.273C614.349 178.21 613.543 178.949 612.503 179.489C611.463 180.023 610.244 180.29 608.847 180.29C607.455 180.29 606.239 180.023 605.199 179.489C604.159 178.949 603.352 178.21 602.778 177.273C602.205 176.33 601.918 175.247 601.918 174.026V162.545H604.551V173.812C604.551 174.602 604.724 175.304 605.071 175.918C605.423 176.531 605.92 177.014 606.562 177.366C607.205 177.713 607.966 177.886 608.847 177.886C609.733 177.886 610.497 177.713 611.139 177.366C611.787 177.014 612.281 176.531 612.622 175.918C612.969 175.304 613.142 174.602 613.142 173.812V162.545ZM629.218 170.105L626.908 170.514C626.812 170.219 626.658 169.937 626.448 169.67C626.244 169.403 625.965 169.185 625.613 169.014C625.261 168.844 624.82 168.759 624.292 168.759C623.57 168.759 622.968 168.92 622.485 169.244C622.002 169.562 621.761 169.974 621.761 170.48C621.761 170.918 621.923 171.27 622.246 171.537C622.57 171.804 623.093 172.023 623.815 172.193L625.894 172.67C627.099 172.949 627.996 173.378 628.587 173.957C629.178 174.537 629.474 175.29 629.474 176.216C629.474 177 629.246 177.699 628.792 178.312C628.343 178.92 627.715 179.398 626.908 179.744C626.107 180.091 625.178 180.264 624.121 180.264C622.656 180.264 621.46 179.952 620.533 179.327C619.607 178.696 619.039 177.801 618.829 176.642L621.292 176.267C621.445 176.909 621.761 177.395 622.238 177.724C622.715 178.048 623.337 178.21 624.104 178.21C624.94 178.21 625.607 178.037 626.107 177.69C626.607 177.338 626.857 176.909 626.857 176.403C626.857 175.994 626.704 175.651 626.397 175.372C626.096 175.094 625.633 174.884 625.008 174.741L622.792 174.256C621.57 173.977 620.667 173.534 620.082 172.926C619.502 172.318 619.212 171.548 619.212 170.616C619.212 169.844 619.428 169.168 619.86 168.588C620.292 168.009 620.888 167.557 621.65 167.233C622.411 166.903 623.283 166.739 624.266 166.739C625.681 166.739 626.795 167.045 627.607 167.659C628.42 168.267 628.957 169.082 629.218 170.105ZM637.918 180.264C636.628 180.264 635.517 179.989 634.585 179.438C633.659 178.881 632.943 178.099 632.438 177.094C631.938 176.082 631.688 174.898 631.688 173.54C631.688 172.199 631.938 171.017 632.438 169.994C632.943 168.972 633.648 168.173 634.551 167.599C635.46 167.026 636.523 166.739 637.739 166.739C638.477 166.739 639.193 166.861 639.886 167.105C640.58 167.349 641.202 167.733 641.753 168.256C642.304 168.778 642.739 169.457 643.057 170.293C643.375 171.122 643.534 172.131 643.534 173.318V174.222H633.128V172.312H641.037C641.037 171.642 640.901 171.048 640.628 170.531C640.355 170.009 639.972 169.597 639.477 169.295C638.989 168.994 638.415 168.844 637.756 168.844C637.04 168.844 636.415 169.02 635.881 169.372C635.352 169.719 634.943 170.173 634.653 170.736C634.369 171.293 634.227 171.898 634.227 172.551V174.043C634.227 174.918 634.381 175.662 634.688 176.276C635 176.889 635.435 177.358 635.991 177.682C636.548 178 637.199 178.159 637.943 178.159C638.426 178.159 638.866 178.091 639.264 177.955C639.662 177.812 640.006 177.602 640.295 177.324C640.585 177.045 640.807 176.702 640.96 176.293L643.372 176.727C643.179 177.437 642.832 178.06 642.332 178.594C641.838 179.122 641.216 179.534 640.466 179.83C639.722 180.119 638.872 180.264 637.918 180.264ZM658.355 180.264C657.065 180.264 655.955 179.989 655.023 179.438C654.097 178.881 653.381 178.099 652.875 177.094C652.375 176.082 652.125 174.898 652.125 173.54C652.125 172.199 652.375 171.017 652.875 169.994C653.381 168.972 654.085 168.173 654.989 167.599C655.898 167.026 656.96 166.739 658.176 166.739C658.915 166.739 659.631 166.861 660.324 167.105C661.017 167.349 661.639 167.733 662.19 168.256C662.741 168.778 663.176 169.457 663.494 170.293C663.813 171.122 663.972 172.131 663.972 173.318V174.222H653.565V172.312H661.474C661.474 171.642 661.338 171.048 661.065 170.531C660.793 170.009 660.409 169.597 659.915 169.295C659.426 168.994 658.852 168.844 658.193 168.844C657.477 168.844 656.852 169.02 656.318 169.372C655.79 169.719 655.381 170.173 655.091 170.736C654.807 171.293 654.665 171.898 654.665 172.551V174.043C654.665 174.918 654.818 175.662 655.125 176.276C655.438 176.889 655.872 177.358 656.429 177.682C656.986 178 657.636 178.159 658.381 178.159C658.864 178.159 659.304 178.091 659.702 177.955C660.099 177.812 660.443 177.602 660.733 177.324C661.023 177.045 661.244 176.702 661.398 176.293L663.81 176.727C663.616 177.437 663.27 178.06 662.77 178.594C662.276 179.122 661.653 179.534 660.903 179.83C660.159 180.119 659.31 180.264 658.355 180.264ZM669.347 172.227V180H666.799V166.909H669.245V169.04H669.407C669.708 168.347 670.18 167.79 670.822 167.369C671.469 166.949 672.285 166.739 673.268 166.739C674.16 166.739 674.941 166.926 675.612 167.301C676.282 167.67 676.802 168.222 677.171 168.955C677.54 169.687 677.725 170.594 677.725 171.673V180H675.177V171.98C675.177 171.031 674.93 170.29 674.435 169.756C673.941 169.216 673.262 168.946 672.398 168.946C671.808 168.946 671.282 169.074 670.822 169.33C670.367 169.585 670.006 169.96 669.739 170.455C669.478 170.943 669.347 171.534 669.347 172.227ZM686.631 185.182C685.592 185.182 684.697 185.045 683.947 184.773C683.202 184.5 682.594 184.139 682.123 183.69C681.651 183.241 681.299 182.75 681.066 182.216L683.256 181.312C683.41 181.562 683.614 181.827 683.87 182.105C684.131 182.389 684.484 182.631 684.927 182.83C685.376 183.028 685.952 183.128 686.657 183.128C687.623 183.128 688.421 182.892 689.052 182.42C689.683 181.955 689.998 181.21 689.998 180.188V177.614H689.836C689.683 177.892 689.461 178.202 689.171 178.543C688.887 178.884 688.495 179.179 687.995 179.429C687.495 179.679 686.844 179.804 686.043 179.804C685.009 179.804 684.077 179.562 683.248 179.08C682.424 178.591 681.771 177.872 681.288 176.923C680.81 175.969 680.572 174.795 680.572 173.403C680.572 172.011 680.808 170.818 681.279 169.824C681.756 168.83 682.41 168.068 683.239 167.54C684.069 167.006 685.009 166.739 686.06 166.739C686.873 166.739 687.529 166.875 688.029 167.148C688.529 167.415 688.918 167.727 689.197 168.085C689.481 168.443 689.7 168.759 689.853 169.031H690.04V166.909H692.538V180.29C692.538 181.415 692.276 182.338 691.754 183.06C691.231 183.781 690.523 184.315 689.631 184.662C688.745 185.009 687.745 185.182 686.631 185.182ZM686.606 177.69C687.339 177.69 687.958 177.52 688.464 177.179C688.975 176.832 689.362 176.338 689.623 175.696C689.89 175.048 690.023 174.273 690.023 173.369C690.023 172.489 689.893 171.713 689.631 171.043C689.37 170.372 688.987 169.849 688.481 169.474C687.975 169.094 687.35 168.903 686.606 168.903C685.839 168.903 685.2 169.102 684.688 169.5C684.177 169.892 683.79 170.426 683.529 171.102C683.273 171.778 683.146 172.534 683.146 173.369C683.146 174.227 683.276 174.98 683.538 175.628C683.799 176.276 684.185 176.781 684.697 177.145C685.214 177.509 685.85 177.69 686.606 177.69ZM695.955 180V166.909H698.504V180H695.955ZM697.242 164.889C696.799 164.889 696.418 164.741 696.1 164.446C695.788 164.145 695.631 163.787 695.631 163.372C695.631 162.952 695.788 162.594 696.1 162.298C696.418 161.997 696.799 161.847 697.242 161.847C697.685 161.847 698.063 161.997 698.376 162.298C698.694 162.594 698.853 162.952 698.853 163.372C698.853 163.787 698.694 164.145 698.376 164.446C698.063 164.741 697.685 164.889 697.242 164.889ZM704.48 172.227V180H701.932V166.909H704.378V169.04H704.54C704.841 168.347 705.313 167.79 705.955 167.369C706.602 166.949 707.418 166.739 708.401 166.739C709.293 166.739 710.074 166.926 710.744 167.301C711.415 167.67 711.935 168.222 712.304 168.955C712.673 169.687 712.858 170.594 712.858 171.673V180H710.31V171.98C710.31 171.031 710.063 170.29 709.568 169.756C709.074 169.216 708.395 168.946 707.531 168.946C706.94 168.946 706.415 169.074 705.955 169.33C705.5 169.585 705.139 169.96 704.872 170.455C704.611 170.943 704.48 171.534 704.48 172.227ZM721.918 180.264C720.628 180.264 719.517 179.989 718.585 179.438C717.659 178.881 716.943 178.099 716.438 177.094C715.938 176.082 715.688 174.898 715.688 173.54C715.688 172.199 715.938 171.017 716.438 169.994C716.943 168.972 717.648 168.173 718.551 167.599C719.46 167.026 720.523 166.739 721.739 166.739C722.477 166.739 723.193 166.861 723.886 167.105C724.58 167.349 725.202 167.733 725.753 168.256C726.304 168.778 726.739 169.457 727.057 170.293C727.375 171.122 727.534 172.131 727.534 173.318V174.222H717.128V172.312H725.037C725.037 171.642 724.901 171.048 724.628 170.531C724.355 170.009 723.972 169.597 723.477 169.295C722.989 168.994 722.415 168.844 721.756 168.844C721.04 168.844 720.415 169.02 719.881 169.372C719.352 169.719 718.943 170.173 718.653 170.736C718.369 171.293 718.227 171.898 718.227 172.551V174.043C718.227 174.918 718.381 175.662 718.688 176.276C719 176.889 719.435 177.358 719.991 177.682C720.548 178 721.199 178.159 721.943 178.159C722.426 178.159 722.866 178.091 723.264 177.955C723.662 177.812 724.006 177.602 724.295 177.324C724.585 177.045 724.807 176.702 724.96 176.293L727.372 176.727C727.179 177.437 726.832 178.06 726.332 178.594C725.838 179.122 725.216 179.534 724.466 179.83C723.722 180.119 722.872 180.264 721.918 180.264ZM736.004 180.264C734.714 180.264 733.603 179.989 732.671 179.438C731.745 178.881 731.029 178.099 730.523 177.094C730.023 176.082 729.773 174.898 729.773 173.54C729.773 172.199 730.023 171.017 730.523 169.994C731.029 168.972 731.734 168.173 732.637 167.599C733.546 167.026 734.609 166.739 735.825 166.739C736.563 166.739 737.279 166.861 737.972 167.105C738.665 167.349 739.288 167.733 739.839 168.256C740.39 168.778 740.825 169.457 741.143 170.293C741.461 171.122 741.62 172.131 741.62 173.318V174.222H731.214V172.312H739.123C739.123 171.642 738.987 171.048 738.714 170.531C738.441 170.009 738.058 169.597 737.563 169.295C737.075 168.994 736.501 168.844 735.842 168.844C735.126 168.844 734.501 169.02 733.967 169.372C733.438 169.719 733.029 170.173 732.739 170.736C732.455 171.293 732.313 171.898 732.313 172.551V174.043C732.313 174.918 732.467 175.662 732.773 176.276C733.086 176.889 733.521 177.358 734.077 177.682C734.634 178 735.285 178.159 736.029 178.159C736.512 178.159 736.952 178.091 737.35 177.955C737.748 177.812 738.092 177.602 738.381 177.324C738.671 177.045 738.893 176.702 739.046 176.293L741.458 176.727C741.265 177.437 740.918 178.06 740.418 178.594C739.924 179.122 739.302 179.534 738.552 179.83C737.808 180.119 736.958 180.264 736.004 180.264ZM744.447 180V166.909H746.911V168.989H747.047C747.286 168.284 747.706 167.73 748.308 167.327C748.916 166.918 749.604 166.713 750.371 166.713C750.53 166.713 750.717 166.719 750.933 166.73C751.155 166.741 751.328 166.756 751.453 166.773V169.21C751.351 169.182 751.169 169.151 750.908 169.116C750.646 169.077 750.385 169.057 750.124 169.057C749.521 169.057 748.984 169.185 748.513 169.44C748.047 169.69 747.678 170.04 747.405 170.489C747.132 170.932 746.996 171.437 746.996 172.006V180H744.447ZM753.658 180V166.909H756.207V180H753.658ZM754.945 164.889C754.502 164.889 754.121 164.741 753.803 164.446C753.491 164.145 753.335 163.787 753.335 163.372C753.335 162.952 753.491 162.594 753.803 162.298C754.121 161.997 754.502 161.847 754.945 161.847C755.388 161.847 755.766 161.997 756.079 162.298C756.397 162.594 756.556 162.952 756.556 163.372C756.556 163.787 756.397 164.145 756.079 164.446C755.766 164.741 755.388 164.889 754.945 164.889ZM762.183 172.227V180H759.635V166.909H762.081V169.04H762.243C762.544 168.347 763.016 167.79 763.658 167.369C764.305 166.949 765.121 166.739 766.104 166.739C766.996 166.739 767.777 166.926 768.447 167.301C769.118 167.67 769.638 168.222 770.007 168.955C770.376 169.687 770.561 170.594 770.561 171.673V180H768.013V171.98C768.013 171.031 767.766 170.29 767.271 169.756C766.777 169.216 766.098 168.946 765.234 168.946C764.643 168.946 764.118 169.074 763.658 169.33C763.203 169.585 762.842 169.96 762.575 170.455C762.314 170.943 762.183 171.534 762.183 172.227ZM779.467 185.182C778.428 185.182 777.533 185.045 776.783 184.773C776.038 184.5 775.43 184.139 774.959 183.69C774.487 183.241 774.135 182.75 773.902 182.216L776.092 181.312C776.246 181.562 776.45 181.827 776.706 182.105C776.967 182.389 777.32 182.631 777.763 182.83C778.212 183.028 778.788 183.128 779.493 183.128C780.459 183.128 781.257 182.892 781.888 182.42C782.518 181.955 782.834 181.21 782.834 180.188V177.614H782.672C782.518 177.892 782.297 178.202 782.007 178.543C781.723 178.884 781.331 179.179 780.831 179.429C780.331 179.679 779.68 179.804 778.879 179.804C777.845 179.804 776.913 179.562 776.084 179.08C775.26 178.591 774.607 177.872 774.124 176.923C773.646 175.969 773.408 174.795 773.408 173.403C773.408 172.011 773.643 170.818 774.115 169.824C774.592 168.83 775.246 168.068 776.075 167.54C776.905 167.006 777.845 166.739 778.896 166.739C779.709 166.739 780.365 166.875 780.865 167.148C781.365 167.415 781.754 167.727 782.033 168.085C782.317 168.443 782.536 168.759 782.689 169.031H782.876V166.909H785.374V180.29C785.374 181.415 785.112 182.338 784.589 183.06C784.067 183.781 783.359 184.315 782.467 184.662C781.581 185.009 780.581 185.182 779.467 185.182ZM779.442 177.69C780.175 177.69 780.794 177.52 781.3 177.179C781.811 176.832 782.197 176.338 782.459 175.696C782.726 175.048 782.859 174.273 782.859 173.369C782.859 172.489 782.729 171.713 782.467 171.043C782.206 170.372 781.822 169.849 781.317 169.474C780.811 169.094 780.186 168.903 779.442 168.903C778.675 168.903 778.036 169.102 777.524 169.5C777.013 169.892 776.626 170.426 776.365 171.102C776.109 171.778 775.982 172.534 775.982 173.369C775.982 174.227 776.112 174.98 776.374 175.628C776.635 176.276 777.021 176.781 777.533 177.145C778.05 177.509 778.686 177.69 779.442 177.69ZM795.143 180V166.909H797.589V169.04H797.751C798.023 168.318 798.469 167.756 799.089 167.352C799.708 166.943 800.45 166.739 801.313 166.739C802.188 166.739 802.921 166.943 803.512 167.352C804.109 167.761 804.549 168.324 804.833 169.04H804.969C805.282 168.341 805.779 167.784 806.461 167.369C807.143 166.949 807.955 166.739 808.898 166.739C810.086 166.739 811.055 167.111 811.805 167.855C812.56 168.599 812.938 169.722 812.938 171.222V180H810.39V171.46C810.39 170.574 810.148 169.932 809.665 169.534C809.183 169.136 808.606 168.938 807.935 168.938C807.106 168.938 806.461 169.193 806.001 169.705C805.54 170.21 805.31 170.861 805.31 171.656V180H802.771V171.298C802.771 170.588 802.549 170.017 802.106 169.585C801.663 169.153 801.086 168.938 800.376 168.938C799.893 168.938 799.447 169.065 799.038 169.321C798.634 169.571 798.308 169.92 798.058 170.369C797.813 170.818 797.691 171.338 797.691 171.929V180H795.143ZM821.996 180.264C820.706 180.264 819.595 179.989 818.663 179.438C817.737 178.881 817.021 178.099 816.516 177.094C816.016 176.082 815.766 174.898 815.766 173.54C815.766 172.199 816.016 171.017 816.516 169.994C817.021 168.972 817.726 168.173 818.629 167.599C819.538 167.026 820.601 166.739 821.817 166.739C822.555 166.739 823.271 166.861 823.964 167.105C824.658 167.349 825.28 167.733 825.831 168.256C826.382 168.778 826.817 169.457 827.135 170.293C827.453 171.122 827.612 172.131 827.612 173.318V174.222H817.206V172.312H825.115C825.115 171.642 824.979 171.048 824.706 170.531C824.433 170.009 824.05 169.597 823.555 169.295C823.067 168.994 822.493 168.844 821.834 168.844C821.118 168.844 820.493 169.02 819.959 169.372C819.43 169.719 819.021 170.173 818.732 170.736C818.447 171.293 818.305 171.898 818.305 172.551V174.043C818.305 174.918 818.459 175.662 818.766 176.276C819.078 176.889 819.513 177.358 820.07 177.682C820.626 178 821.277 178.159 822.021 178.159C822.504 178.159 822.945 178.091 823.342 177.955C823.74 177.812 824.084 177.602 824.374 177.324C824.663 177.045 824.885 176.702 825.038 176.293L827.45 176.727C827.257 177.437 826.911 178.06 826.411 178.594C825.916 179.122 825.294 179.534 824.544 179.83C823.8 180.119 822.95 180.264 821.996 180.264ZM836.55 166.909V168.955H829.4V166.909H836.55ZM831.317 163.773H833.866V176.156C833.866 176.651 833.94 177.023 834.087 177.273C834.235 177.517 834.425 177.685 834.658 177.776C834.897 177.861 835.156 177.903 835.434 177.903C835.638 177.903 835.817 177.889 835.971 177.861C836.124 177.832 836.244 177.81 836.329 177.793L836.789 179.898C836.641 179.955 836.431 180.011 836.158 180.068C835.886 180.131 835.545 180.165 835.136 180.17C834.465 180.182 833.84 180.062 833.261 179.812C832.681 179.562 832.212 179.176 831.854 178.653C831.496 178.131 831.317 177.474 831.317 176.685V163.773ZM842.199 172.227V180H839.651V162.545H842.165V169.04H842.327C842.634 168.335 843.102 167.776 843.733 167.361C844.364 166.946 845.188 166.739 846.205 166.739C847.102 166.739 847.886 166.923 848.557 167.293C849.233 167.662 849.756 168.213 850.125 168.946C850.5 169.673 850.688 170.582 850.688 171.673V180H848.139V171.98C848.139 171.02 847.892 170.276 847.398 169.747C846.903 169.213 846.216 168.946 845.335 168.946C844.733 168.946 844.193 169.074 843.716 169.33C843.244 169.585 842.872 169.96 842.599 170.455C842.332 170.943 842.199 171.534 842.199 172.227ZM859.602 180.264C858.375 180.264 857.304 179.983 856.389 179.42C855.474 178.858 854.764 178.071 854.259 177.06C853.753 176.048 853.5 174.866 853.5 173.514C853.5 172.156 853.753 170.969 854.259 169.952C854.764 168.935 855.474 168.145 856.389 167.582C857.304 167.02 858.375 166.739 859.602 166.739C860.83 166.739 861.901 167.02 862.815 167.582C863.73 168.145 864.44 168.935 864.946 169.952C865.452 170.969 865.705 172.156 865.705 173.514C865.705 174.866 865.452 176.048 864.946 177.06C864.44 178.071 863.73 178.858 862.815 179.42C861.901 179.983 860.83 180.264 859.602 180.264ZM859.611 178.125C860.406 178.125 861.065 177.915 861.588 177.494C862.111 177.074 862.497 176.514 862.747 175.815C863.003 175.116 863.131 174.347 863.131 173.506C863.131 172.67 863.003 171.903 862.747 171.205C862.497 170.5 862.111 169.935 861.588 169.509C861.065 169.082 860.406 168.869 859.611 168.869C858.81 168.869 858.145 169.082 857.616 169.509C857.094 169.935 856.705 170.5 856.449 171.205C856.199 171.903 856.074 172.67 856.074 173.506C856.074 174.347 856.199 175.116 856.449 175.815C856.705 176.514 857.094 177.074 857.616 177.494C858.145 177.915 858.81 178.125 859.611 178.125ZM873.45 180.256C872.393 180.256 871.45 179.986 870.62 179.446C869.796 178.901 869.148 178.125 868.677 177.119C868.211 176.108 867.978 174.895 867.978 173.48C867.978 172.065 868.214 170.855 868.685 169.849C869.163 168.844 869.816 168.074 870.646 167.54C871.475 167.006 872.415 166.739 873.467 166.739C874.279 166.739 874.933 166.875 875.427 167.148C875.927 167.415 876.313 167.727 876.586 168.085C876.864 168.443 877.08 168.759 877.234 169.031H877.387V162.545H879.935V180H877.447V177.963H877.234C877.08 178.241 876.859 178.56 876.569 178.918C876.285 179.276 875.893 179.588 875.393 179.855C874.893 180.122 874.245 180.256 873.45 180.256ZM874.012 178.082C874.745 178.082 875.364 177.889 875.87 177.503C876.381 177.111 876.768 176.568 877.029 175.875C877.296 175.182 877.43 174.375 877.43 173.455C877.43 172.545 877.299 171.75 877.038 171.068C876.776 170.386 876.393 169.855 875.887 169.474C875.381 169.094 874.756 168.903 874.012 168.903C873.245 168.903 872.606 169.102 872.094 169.5C871.583 169.898 871.197 170.44 870.935 171.128C870.68 171.815 870.552 172.591 870.552 173.455C870.552 174.33 870.683 175.116 870.944 175.815C871.205 176.514 871.592 177.068 872.103 177.477C872.62 177.881 873.256 178.082 874.012 178.082ZM893.382 170.105L891.072 170.514C890.976 170.219 890.822 169.937 890.612 169.67C890.408 169.403 890.129 169.185 889.777 169.014C889.425 168.844 888.984 168.759 888.456 168.759C887.734 168.759 887.132 168.92 886.649 169.244C886.166 169.562 885.925 169.974 885.925 170.48C885.925 170.918 886.087 171.27 886.411 171.537C886.734 171.804 887.257 172.023 887.979 172.193L890.058 172.67C891.263 172.949 892.161 173.378 892.751 173.957C893.342 174.537 893.638 175.29 893.638 176.216C893.638 177 893.411 177.699 892.956 178.312C892.507 178.92 891.879 179.398 891.072 179.744C890.271 180.091 889.342 180.264 888.286 180.264C886.82 180.264 885.624 179.952 884.697 179.327C883.771 178.696 883.203 177.801 882.993 176.642L885.456 176.267C885.609 176.909 885.925 177.395 886.402 177.724C886.879 178.048 887.501 178.21 888.268 178.21C889.104 178.21 889.771 178.037 890.271 177.69C890.771 177.338 891.021 176.909 891.021 176.403C891.021 175.994 890.868 175.651 890.561 175.372C890.26 175.094 889.797 174.884 889.172 174.741L886.956 174.256C885.734 173.977 884.831 173.534 884.246 172.926C883.666 172.318 883.376 171.548 883.376 170.616C883.376 169.844 883.592 169.168 884.024 168.588C884.456 168.009 885.053 167.557 885.814 167.233C886.575 166.903 887.447 166.739 888.43 166.739C889.845 166.739 890.959 167.045 891.771 167.659C892.584 168.267 893.121 169.082 893.382 170.105ZM908.902 166.909V168.955H901.751V166.909H908.902ZM903.669 163.773H906.217V176.156C906.217 176.651 906.291 177.023 906.439 177.273C906.587 177.517 906.777 177.685 907.01 177.776C907.249 177.861 907.507 177.903 907.786 177.903C907.99 177.903 908.169 177.889 908.322 177.861C908.476 177.832 908.595 177.81 908.68 177.793L909.141 179.898C908.993 179.955 908.783 180.011 908.51 180.068C908.237 180.131 907.896 180.165 907.487 180.17C906.817 180.182 906.192 180.062 905.612 179.812C905.033 179.562 904.564 179.176 904.206 178.653C903.848 178.131 903.669 177.474 903.669 176.685V163.773ZM917.094 180.264C915.867 180.264 914.796 179.983 913.881 179.42C912.967 178.858 912.256 178.071 911.751 177.06C911.245 176.048 910.992 174.866 910.992 173.514C910.992 172.156 911.245 170.969 911.751 169.952C912.256 168.935 912.967 168.145 913.881 167.582C914.796 167.02 915.867 166.739 917.094 166.739C918.322 166.739 919.393 167.02 920.308 167.582C921.222 168.145 921.933 168.935 922.438 169.952C922.944 170.969 923.197 172.156 923.197 173.514C923.197 174.866 922.944 176.048 922.438 177.06C921.933 178.071 921.222 178.858 920.308 179.42C919.393 179.983 918.322 180.264 917.094 180.264ZM917.103 178.125C917.898 178.125 918.558 177.915 919.08 177.494C919.603 177.074 919.989 176.514 920.239 175.815C920.495 175.116 920.623 174.347 920.623 173.506C920.623 172.67 920.495 171.903 920.239 171.205C919.989 170.5 919.603 169.935 919.08 169.509C918.558 169.082 917.898 168.869 917.103 168.869C916.302 168.869 915.637 169.082 915.109 169.509C914.586 169.935 914.197 170.5 913.941 171.205C913.691 171.903 913.566 172.67 913.566 173.506C913.566 174.347 913.691 175.116 913.941 175.815C914.197 176.514 914.586 177.074 915.109 177.494C915.637 177.915 916.302 178.125 917.103 178.125ZM942.202 170.105L939.893 170.514C939.796 170.219 939.643 169.937 939.433 169.67C939.228 169.403 938.95 169.185 938.597 169.014C938.245 168.844 937.805 168.759 937.276 168.759C936.555 168.759 935.952 168.92 935.469 169.244C934.987 169.562 934.745 169.974 934.745 170.48C934.745 170.918 934.907 171.27 935.231 171.537C935.555 171.804 936.077 172.023 936.799 172.193L938.879 172.67C940.083 172.949 940.981 173.378 941.572 173.957C942.163 174.537 942.458 175.29 942.458 176.216C942.458 177 942.231 177.699 941.776 178.312C941.327 178.92 940.7 179.398 939.893 179.744C939.092 180.091 938.163 180.264 937.106 180.264C935.64 180.264 934.444 179.952 933.518 179.327C932.592 178.696 932.023 177.801 931.813 176.642L934.276 176.267C934.43 176.909 934.745 177.395 935.222 177.724C935.7 178.048 936.322 178.21 937.089 178.21C937.924 178.21 938.592 178.037 939.092 177.69C939.592 177.338 939.842 176.909 939.842 176.403C939.842 175.994 939.688 175.651 939.381 175.372C939.08 175.094 938.617 174.884 937.992 174.741L935.776 174.256C934.555 173.977 933.651 173.534 933.066 172.926C932.487 172.318 932.197 171.548 932.197 170.616C932.197 169.844 932.413 169.168 932.844 168.588C933.276 168.009 933.873 167.557 934.634 167.233C935.396 166.903 936.268 166.739 937.251 166.739C938.665 166.739 939.779 167.045 940.592 167.659C941.404 168.267 941.941 169.082 942.202 170.105ZM950.774 180.264C949.547 180.264 948.476 179.983 947.561 179.42C946.646 178.858 945.936 178.071 945.43 177.06C944.925 176.048 944.672 174.866 944.672 173.514C944.672 172.156 944.925 170.969 945.43 169.952C945.936 168.935 946.646 168.145 947.561 167.582C948.476 167.02 949.547 166.739 950.774 166.739C952.001 166.739 953.072 167.02 953.987 167.582C954.902 168.145 955.612 168.935 956.118 169.952C956.624 170.969 956.876 172.156 956.876 173.514C956.876 174.866 956.624 176.048 956.118 177.06C955.612 178.071 954.902 178.858 953.987 179.42C953.072 179.983 952.001 180.264 950.774 180.264ZM950.783 178.125C951.578 178.125 952.237 177.915 952.76 177.494C953.283 177.074 953.669 176.514 953.919 175.815C954.175 175.116 954.303 174.347 954.303 173.506C954.303 172.67 954.175 171.903 953.919 171.205C953.669 170.5 953.283 169.935 952.76 169.509C952.237 169.082 951.578 168.869 950.783 168.869C949.982 168.869 949.317 169.082 948.788 169.509C948.266 169.935 947.876 170.5 947.621 171.205C947.371 171.903 947.246 172.67 947.246 173.506C947.246 174.347 947.371 175.116 947.621 175.815C947.876 176.514 948.266 177.074 948.788 177.494C949.317 177.915 949.982 178.125 950.783 178.125ZM962.269 162.545V180H959.721V162.545H962.269ZM976.896 166.909L972.149 180H969.422L964.666 166.909H967.402L970.717 176.983H970.854L974.161 166.909H976.896ZM984.488 180.264C983.198 180.264 982.087 179.989 981.156 179.438C980.229 178.881 979.513 178.099 979.008 177.094C978.508 176.082 978.258 174.898 978.258 173.54C978.258 172.199 978.508 171.017 979.008 169.994C979.513 168.972 980.218 168.173 981.121 167.599C982.031 167.026 983.093 166.739 984.309 166.739C985.048 166.739 985.763 166.861 986.457 167.105C987.15 167.349 987.772 167.733 988.323 168.256C988.874 168.778 989.309 169.457 989.627 170.293C989.945 171.122 990.104 172.131 990.104 173.318V174.222H979.698V172.312H987.607C987.607 171.642 987.471 171.048 987.198 170.531C986.925 170.009 986.542 169.597 986.048 169.295C985.559 168.994 984.985 168.844 984.326 168.844C983.61 168.844 982.985 169.02 982.451 169.372C981.923 169.719 981.513 170.173 981.224 170.736C980.94 171.293 980.798 171.898 980.798 172.551V174.043C980.798 174.918 980.951 175.662 981.258 176.276C981.57 176.889 982.005 177.358 982.562 177.682C983.119 178 983.769 178.159 984.513 178.159C984.996 178.159 985.437 178.091 985.835 177.955C986.232 177.812 986.576 177.602 986.866 177.324C987.156 177.045 987.377 176.702 987.531 176.293L989.942 176.727C989.749 177.437 989.403 178.06 988.903 178.594C988.408 179.122 987.786 179.534 987.036 179.83C986.292 180.119 985.442 180.264 984.488 180.264ZM607.227 212.264C605.96 212.264 604.869 211.977 603.955 211.403C603.045 210.824 602.347 210.026 601.858 209.009C601.369 207.991 601.125 206.827 601.125 205.514C601.125 204.185 601.375 203.011 601.875 201.994C602.375 200.972 603.08 200.173 603.989 199.599C604.898 199.026 605.969 198.739 607.202 198.739C608.196 198.739 609.082 198.923 609.861 199.293C610.639 199.656 611.267 200.168 611.744 200.827C612.227 201.486 612.514 202.256 612.605 203.136H610.125C609.989 202.523 609.676 201.994 609.188 201.551C608.705 201.108 608.057 200.886 607.244 200.886C606.534 200.886 605.912 201.074 605.378 201.449C604.849 201.818 604.438 202.347 604.142 203.034C603.847 203.716 603.699 204.523 603.699 205.455C603.699 206.409 603.844 207.233 604.134 207.926C604.423 208.619 604.832 209.156 605.361 209.537C605.895 209.918 606.523 210.108 607.244 210.108C607.727 210.108 608.165 210.02 608.557 209.844C608.955 209.662 609.287 209.403 609.554 209.068C609.827 208.733 610.017 208.33 610.125 207.858H612.605C612.514 208.705 612.239 209.46 611.778 210.125C611.318 210.79 610.702 211.312 609.929 211.693C609.162 212.074 608.261 212.264 607.227 212.264ZM620.844 212.264C619.617 212.264 618.546 211.983 617.631 211.42C616.717 210.858 616.006 210.071 615.501 209.06C614.995 208.048 614.742 206.866 614.742 205.514C614.742 204.156 614.995 202.969 615.501 201.952C616.006 200.935 616.717 200.145 617.631 199.582C618.546 199.02 619.617 198.739 620.844 198.739C622.072 198.739 623.143 199.02 624.058 199.582C624.972 200.145 625.683 200.935 626.188 201.952C626.694 202.969 626.947 204.156 626.947 205.514C626.947 206.866 626.694 208.048 626.188 209.06C625.683 210.071 624.972 210.858 624.058 211.42C623.143 211.983 622.072 212.264 620.844 212.264ZM620.853 210.125C621.648 210.125 622.308 209.915 622.83 209.494C623.353 209.074 623.739 208.514 623.989 207.815C624.245 207.116 624.373 206.347 624.373 205.506C624.373 204.67 624.245 203.903 623.989 203.205C623.739 202.5 623.353 201.935 622.83 201.509C622.308 201.082 621.648 200.869 620.853 200.869C620.052 200.869 619.387 201.082 618.859 201.509C618.336 201.935 617.947 202.5 617.691 203.205C617.441 203.903 617.316 204.67 617.316 205.506C617.316 206.347 617.441 207.116 617.691 207.815C617.947 208.514 618.336 209.074 618.859 209.494C619.387 209.915 620.052 210.125 620.853 210.125ZM629.791 212V198.909H632.237V201.04H632.399C632.672 200.318 633.118 199.756 633.737 199.352C634.357 198.943 635.098 198.739 635.962 198.739C636.837 198.739 637.57 198.943 638.161 199.352C638.757 199.761 639.197 200.324 639.482 201.04H639.618C639.93 200.341 640.428 199.784 641.109 199.369C641.791 198.949 642.604 198.739 643.547 198.739C644.734 198.739 645.703 199.111 646.453 199.855C647.209 200.599 647.587 201.722 647.587 203.222V212H645.038V203.46C645.038 202.574 644.797 201.932 644.314 201.534C643.831 201.136 643.254 200.938 642.584 200.938C641.754 200.938 641.109 201.193 640.649 201.705C640.189 202.21 639.959 202.861 639.959 203.656V212H637.419V203.298C637.419 202.588 637.197 202.017 636.754 201.585C636.311 201.153 635.734 200.938 635.024 200.938C634.541 200.938 634.095 201.065 633.686 201.321C633.283 201.571 632.956 201.92 632.706 202.369C632.462 202.818 632.339 203.338 632.339 203.929V212H629.791ZM651.002 216.909V198.909H653.491V201.031H653.704C653.852 200.759 654.065 200.443 654.343 200.085C654.621 199.727 655.008 199.415 655.502 199.148C655.996 198.875 656.65 198.739 657.462 198.739C658.519 198.739 659.462 199.006 660.292 199.54C661.121 200.074 661.772 200.844 662.244 201.849C662.721 202.855 662.96 204.065 662.96 205.48C662.96 206.895 662.724 208.108 662.252 209.119C661.781 210.125 661.133 210.901 660.309 211.446C659.485 211.986 658.545 212.256 657.488 212.256C656.692 212.256 656.042 212.122 655.536 211.855C655.036 211.588 654.644 211.276 654.36 210.918C654.076 210.56 653.857 210.241 653.704 209.963H653.55V216.909H651.002ZM653.499 205.455C653.499 206.375 653.633 207.182 653.9 207.875C654.167 208.568 654.553 209.111 655.059 209.503C655.565 209.889 656.184 210.082 656.917 210.082C657.678 210.082 658.315 209.881 658.826 209.477C659.337 209.068 659.724 208.514 659.985 207.815C660.252 207.116 660.386 206.33 660.386 205.455C660.386 204.591 660.255 203.815 659.994 203.128C659.738 202.44 659.352 201.898 658.835 201.5C658.323 201.102 657.684 200.903 656.917 200.903C656.178 200.903 655.553 201.094 655.042 201.474C654.536 201.855 654.153 202.386 653.891 203.068C653.63 203.75 653.499 204.545 653.499 205.455ZM668.363 194.545V212H665.815V194.545H668.363ZM677.433 212.264C676.143 212.264 675.033 211.989 674.101 211.438C673.175 210.881 672.459 210.099 671.953 209.094C671.453 208.082 671.203 206.898 671.203 205.54C671.203 204.199 671.453 203.017 671.953 201.994C672.459 200.972 673.163 200.173 674.067 199.599C674.976 199.026 676.038 198.739 677.254 198.739C677.993 198.739 678.709 198.861 679.402 199.105C680.095 199.349 680.717 199.733 681.268 200.256C681.82 200.778 682.254 201.457 682.572 202.293C682.891 203.122 683.05 204.131 683.05 205.318V206.222H672.643V204.312H680.553C680.553 203.642 680.416 203.048 680.143 202.531C679.871 202.009 679.487 201.597 678.993 201.295C678.504 200.994 677.93 200.844 677.271 200.844C676.555 200.844 675.93 201.02 675.396 201.372C674.868 201.719 674.459 202.173 674.169 202.736C673.885 203.293 673.743 203.898 673.743 204.551V206.043C673.743 206.918 673.896 207.662 674.203 208.276C674.516 208.889 674.95 209.358 675.507 209.682C676.064 210 676.714 210.159 677.459 210.159C677.942 210.159 678.382 210.091 678.78 209.955C679.178 209.812 679.521 209.602 679.811 209.324C680.101 209.045 680.322 208.702 680.476 208.293L682.888 208.727C682.695 209.437 682.348 210.06 681.848 210.594C681.354 211.122 680.732 211.534 679.982 211.83C679.237 212.119 678.388 212.264 677.433 212.264ZM687.584 198.909L690.473 204.006L693.388 198.909H696.175L692.092 205.455L696.209 212H693.422L690.473 207.108L687.533 212H684.737L688.811 205.455L684.788 198.909H687.584ZM705.143 216.909V198.909H707.631V201.031H707.844C707.992 200.759 708.205 200.443 708.484 200.085C708.762 199.727 709.148 199.415 709.643 199.148C710.137 198.875 710.79 198.739 711.603 198.739C712.66 198.739 713.603 199.006 714.433 199.54C715.262 200.074 715.913 200.844 716.384 201.849C716.862 202.855 717.1 204.065 717.1 205.48C717.1 206.895 716.864 208.108 716.393 209.119C715.921 210.125 715.273 210.901 714.45 211.446C713.626 211.986 712.685 212.256 711.629 212.256C710.833 212.256 710.183 212.122 709.677 211.855C709.177 211.588 708.785 211.276 708.501 210.918C708.217 210.56 707.998 210.241 707.844 209.963H707.691V216.909H705.143ZM707.64 205.455C707.64 206.375 707.773 207.182 708.04 207.875C708.308 208.568 708.694 209.111 709.2 209.503C709.705 209.889 710.325 210.082 711.058 210.082C711.819 210.082 712.455 209.881 712.967 209.477C713.478 209.068 713.864 208.514 714.126 207.815C714.393 207.116 714.526 206.33 714.526 205.455C714.526 204.591 714.396 203.815 714.134 203.128C713.879 202.44 713.492 201.898 712.975 201.5C712.464 201.102 711.825 200.903 711.058 200.903C710.319 200.903 709.694 201.094 709.183 201.474C708.677 201.855 708.293 202.386 708.032 203.068C707.771 203.75 707.64 204.545 707.64 205.455ZM719.955 212V198.909H722.418V200.989H722.555C722.793 200.284 723.214 199.73 723.816 199.327C724.424 198.918 725.112 198.713 725.879 198.713C726.038 198.713 726.225 198.719 726.441 198.73C726.663 198.741 726.836 198.756 726.961 198.773V201.21C726.859 201.182 726.677 201.151 726.415 201.116C726.154 201.077 725.893 201.057 725.631 201.057C725.029 201.057 724.492 201.185 724.021 201.44C723.555 201.69 723.185 202.04 722.913 202.489C722.64 202.932 722.504 203.437 722.504 204.006V212H719.955ZM734.212 212.264C732.984 212.264 731.913 211.983 730.999 211.42C730.084 210.858 729.374 210.071 728.868 209.06C728.362 208.048 728.109 206.866 728.109 205.514C728.109 204.156 728.362 202.969 728.868 201.952C729.374 200.935 730.084 200.145 730.999 199.582C731.913 199.02 732.984 198.739 734.212 198.739C735.439 198.739 736.51 199.02 737.425 199.582C738.339 200.145 739.05 200.935 739.555 201.952C740.061 202.969 740.314 204.156 740.314 205.514C740.314 206.866 740.061 208.048 739.555 209.06C739.05 210.071 738.339 210.858 737.425 211.42C736.51 211.983 735.439 212.264 734.212 212.264ZM734.22 210.125C735.016 210.125 735.675 209.915 736.197 209.494C736.72 209.074 737.107 208.514 737.357 207.815C737.612 207.116 737.74 206.347 737.74 205.506C737.74 204.67 737.612 203.903 737.357 203.205C737.107 202.5 736.72 201.935 736.197 201.509C735.675 201.082 735.016 200.869 734.22 200.869C733.419 200.869 732.754 201.082 732.226 201.509C731.703 201.935 731.314 202.5 731.058 203.205C730.808 203.903 730.683 204.67 730.683 205.506C730.683 206.347 730.808 207.116 731.058 207.815C731.314 208.514 731.703 209.074 732.226 209.494C732.754 209.915 733.419 210.125 734.22 210.125ZM743.363 212V194.545H745.911V201.031H746.065C746.212 200.759 746.425 200.443 746.704 200.085C746.982 199.727 747.369 199.415 747.863 199.148C748.357 198.875 749.011 198.739 749.823 198.739C750.88 198.739 751.823 199.006 752.653 199.54C753.482 200.074 754.133 200.844 754.604 201.849C755.082 202.855 755.32 204.065 755.32 205.48C755.32 206.895 755.085 208.108 754.613 209.119C754.141 210.125 753.494 210.901 752.67 211.446C751.846 211.986 750.906 212.256 749.849 212.256C749.053 212.256 748.403 212.122 747.897 211.855C747.397 211.588 747.005 211.276 746.721 210.918C746.437 210.56 746.218 210.241 746.065 209.963H745.852V212H743.363ZM745.86 205.455C745.86 206.375 745.994 207.182 746.261 207.875C746.528 208.568 746.914 209.111 747.42 209.503C747.925 209.889 748.545 210.082 749.278 210.082C750.039 210.082 750.675 209.881 751.187 209.477C751.698 209.068 752.085 208.514 752.346 207.815C752.613 207.116 752.746 206.33 752.746 205.455C752.746 204.591 752.616 203.815 752.354 203.128C752.099 202.44 751.712 201.898 751.195 201.5C750.684 201.102 750.045 200.903 749.278 200.903C748.539 200.903 747.914 201.094 747.403 201.474C746.897 201.855 746.513 202.386 746.252 203.068C745.991 203.75 745.86 204.545 745.86 205.455ZM760.73 194.545V212H758.182V194.545H760.73ZM769.8 212.264C768.511 212.264 767.4 211.989 766.468 211.438C765.542 210.881 764.826 210.099 764.32 209.094C763.82 208.082 763.57 206.898 763.57 205.54C763.57 204.199 763.82 203.017 764.32 201.994C764.826 200.972 765.531 200.173 766.434 199.599C767.343 199.026 768.406 198.739 769.621 198.739C770.36 198.739 771.076 198.861 771.769 199.105C772.462 199.349 773.085 199.733 773.636 200.256C774.187 200.778 774.621 201.457 774.94 202.293C775.258 203.122 775.417 204.131 775.417 205.318V206.222H765.011V204.312H772.92C772.92 203.642 772.783 203.048 772.511 202.531C772.238 202.009 771.854 201.597 771.36 201.295C770.871 200.994 770.298 200.844 769.638 200.844C768.923 200.844 768.298 201.02 767.763 201.372C767.235 201.719 766.826 202.173 766.536 202.736C766.252 203.293 766.11 203.898 766.11 204.551V206.043C766.11 206.918 766.263 207.662 766.57 208.276C766.883 208.889 767.317 209.358 767.874 209.682C768.431 210 769.082 210.159 769.826 210.159C770.309 210.159 770.749 210.091 771.147 209.955C771.545 209.812 771.888 209.602 772.178 209.324C772.468 209.045 772.69 208.702 772.843 208.293L775.255 208.727C775.062 209.437 774.715 210.06 774.215 210.594C773.721 211.122 773.099 211.534 772.349 211.83C771.604 212.119 770.755 212.264 769.8 212.264ZM778.244 212V198.909H780.69V201.04H780.852C781.125 200.318 781.571 199.756 782.19 199.352C782.81 198.943 783.551 198.739 784.415 198.739C785.29 198.739 786.023 198.943 786.614 199.352C787.21 199.761 787.651 200.324 787.935 201.04H788.071C788.384 200.341 788.881 199.784 789.562 199.369C790.244 198.949 791.057 198.739 792 198.739C793.188 198.739 794.156 199.111 794.906 199.855C795.662 200.599 796.04 201.722 796.04 203.222V212H793.491V203.46C793.491 202.574 793.25 201.932 792.767 201.534C792.284 201.136 791.707 200.938 791.037 200.938C790.207 200.938 789.562 201.193 789.102 201.705C788.642 202.21 788.412 202.861 788.412 203.656V212H785.872V203.298C785.872 202.588 785.651 202.017 785.207 201.585C784.764 201.153 784.188 200.938 783.477 200.938C782.994 200.938 782.548 201.065 782.139 201.321C781.736 201.571 781.409 201.92 781.159 202.369C780.915 202.818 780.793 203.338 780.793 203.929V212H778.244ZM809.265 202.105L806.955 202.514C806.859 202.219 806.705 201.937 806.495 201.67C806.29 201.403 806.012 201.185 805.66 201.014C805.308 200.844 804.867 200.759 804.339 200.759C803.617 200.759 803.015 200.92 802.532 201.244C802.049 201.562 801.808 201.974 801.808 202.48C801.808 202.918 801.969 203.27 802.293 203.537C802.617 203.804 803.14 204.023 803.862 204.193L805.941 204.67C807.146 204.949 808.043 205.378 808.634 205.957C809.225 206.537 809.521 207.29 809.521 208.216C809.521 209 809.293 209.699 808.839 210.312C808.39 210.92 807.762 211.398 806.955 211.744C806.154 212.091 805.225 212.264 804.168 212.264C802.702 212.264 801.506 211.952 800.58 211.327C799.654 210.696 799.086 209.801 798.876 208.642L801.339 208.267C801.492 208.909 801.808 209.395 802.285 209.724C802.762 210.048 803.384 210.21 804.151 210.21C804.987 210.21 805.654 210.037 806.154 209.69C806.654 209.338 806.904 208.909 806.904 208.403C806.904 207.994 806.751 207.651 806.444 207.372C806.143 207.094 805.68 206.884 805.055 206.741L802.839 206.256C801.617 205.977 800.714 205.534 800.129 204.926C799.549 204.318 799.259 203.548 799.259 202.616C799.259 201.844 799.475 201.168 799.907 200.588C800.339 200.009 800.935 199.557 801.697 199.233C802.458 198.903 803.33 198.739 804.313 198.739C805.728 198.739 806.842 199.045 807.654 199.659C808.467 200.267 809.004 201.082 809.265 202.105ZM815.638 209.614L815.51 210.543C815.425 211.224 815.28 211.935 815.075 212.673C814.876 213.418 814.669 214.108 814.453 214.744C814.243 215.381 814.07 215.886 813.933 216.261H812.126C812.2 215.909 812.303 215.432 812.433 214.83C812.564 214.233 812.692 213.565 812.817 212.827C812.942 212.088 813.036 211.335 813.098 210.568L813.183 209.614H815.638ZM825.307 212V198.909H827.77V200.989H827.906C828.145 200.284 828.565 199.73 829.168 199.327C829.776 198.918 830.463 198.713 831.23 198.713C831.389 198.713 831.577 198.719 831.793 198.73C832.014 198.741 832.188 198.756 832.312 198.773V201.21C832.21 201.182 832.028 201.151 831.767 201.116C831.506 201.077 831.244 201.057 830.983 201.057C830.381 201.057 829.844 201.185 829.372 201.44C828.906 201.69 828.537 202.04 828.264 202.489C827.991 202.932 827.855 203.437 827.855 204.006V212H825.307ZM838.21 212.29C837.381 212.29 836.631 212.136 835.96 211.83C835.29 211.517 834.759 211.065 834.366 210.474C833.98 209.884 833.787 209.159 833.787 208.301C833.787 207.562 833.929 206.955 834.213 206.477C834.497 206 834.881 205.622 835.364 205.344C835.847 205.065 836.386 204.855 836.983 204.713C837.58 204.571 838.188 204.463 838.807 204.389C839.591 204.298 840.227 204.224 840.716 204.168C841.205 204.105 841.56 204.006 841.781 203.869C842.003 203.733 842.114 203.511 842.114 203.205V203.145C842.114 202.401 841.903 201.824 841.483 201.415C841.068 201.006 840.449 200.801 839.625 200.801C838.767 200.801 838.091 200.991 837.597 201.372C837.108 201.747 836.77 202.165 836.582 202.625L834.188 202.08C834.472 201.284 834.886 200.642 835.432 200.153C835.983 199.659 836.616 199.301 837.332 199.08C838.048 198.852 838.801 198.739 839.591 198.739C840.114 198.739 840.668 198.801 841.253 198.926C841.844 199.045 842.395 199.267 842.906 199.591C843.423 199.915 843.847 200.378 844.176 200.98C844.506 201.577 844.67 202.352 844.67 203.307V212H842.182V210.21H842.08C841.915 210.54 841.668 210.864 841.338 211.182C841.009 211.5 840.585 211.764 840.068 211.974C839.551 212.185 838.932 212.29 838.21 212.29ZM838.764 210.244C839.469 210.244 840.071 210.105 840.571 209.827C841.077 209.548 841.46 209.185 841.722 208.736C841.989 208.281 842.122 207.795 842.122 207.278V205.591C842.031 205.682 841.855 205.767 841.594 205.847C841.338 205.92 841.045 205.986 840.716 206.043C840.386 206.094 840.065 206.142 839.753 206.188C839.44 206.227 839.179 206.261 838.969 206.29C838.474 206.352 838.023 206.457 837.614 206.605C837.21 206.753 836.886 206.966 836.642 207.244C836.403 207.517 836.284 207.881 836.284 208.335C836.284 208.966 836.517 209.443 836.983 209.767C837.449 210.085 838.043 210.244 838.764 210.244ZM854.175 198.909V200.955H847.025V198.909H854.175ZM848.942 195.773H851.491V208.156C851.491 208.651 851.565 209.023 851.712 209.273C851.86 209.517 852.05 209.685 852.283 209.776C852.522 209.861 852.781 209.903 853.059 209.903C853.263 209.903 853.442 209.889 853.596 209.861C853.749 209.832 853.869 209.81 853.954 209.793L854.414 211.898C854.266 211.955 854.056 212.011 853.783 212.068C853.511 212.131 853.17 212.165 852.761 212.17C852.09 212.182 851.465 212.062 850.886 211.812C850.306 211.562 849.837 211.176 849.479 210.653C849.121 210.131 848.942 209.474 848.942 208.685V195.773ZM859.824 204.227V212H857.276V194.545H859.79V201.04H859.952C860.259 200.335 860.727 199.776 861.358 199.361C861.989 198.946 862.813 198.739 863.83 198.739C864.727 198.739 865.511 198.923 866.182 199.293C866.858 199.662 867.381 200.213 867.75 200.946C868.125 201.673 868.312 202.582 868.312 203.673V212H865.764V203.98C865.764 203.02 865.517 202.276 865.023 201.747C864.528 201.213 863.841 200.946 862.96 200.946C862.358 200.946 861.818 201.074 861.341 201.33C860.869 201.585 860.497 201.96 860.224 202.455C859.957 202.943 859.824 203.534 859.824 204.227ZM877.355 212.264C876.065 212.264 874.955 211.989 874.023 211.438C873.097 210.881 872.381 210.099 871.875 209.094C871.375 208.082 871.125 206.898 871.125 205.54C871.125 204.199 871.375 203.017 871.875 201.994C872.381 200.972 873.085 200.173 873.989 199.599C874.898 199.026 875.96 198.739 877.176 198.739C877.915 198.739 878.631 198.861 879.324 199.105C880.017 199.349 880.639 199.733 881.19 200.256C881.741 200.778 882.176 201.457 882.494 202.293C882.813 203.122 882.972 204.131 882.972 205.318V206.222H872.565V204.312H880.474C880.474 203.642 880.338 203.048 880.065 202.531C879.793 202.009 879.409 201.597 878.915 201.295C878.426 200.994 877.852 200.844 877.193 200.844C876.477 200.844 875.852 201.02 875.318 201.372C874.79 201.719 874.381 202.173 874.091 202.736C873.807 203.293 873.665 203.898 873.665 204.551V206.043C873.665 206.918 873.818 207.662 874.125 208.276C874.438 208.889 874.872 209.358 875.429 209.682C875.986 210 876.636 210.159 877.381 210.159C877.864 210.159 878.304 210.091 878.702 209.955C879.099 209.812 879.443 209.602 879.733 209.324C880.023 209.045 880.244 208.702 880.398 208.293L882.81 208.727C882.616 209.437 882.27 210.06 881.77 210.594C881.276 211.122 880.653 211.534 879.903 211.83C879.159 212.119 878.31 212.264 877.355 212.264ZM885.799 212V198.909H888.262V200.989H888.398C888.637 200.284 889.058 199.73 889.66 199.327C890.268 198.918 890.955 198.713 891.722 198.713C891.881 198.713 892.069 198.719 892.285 198.73C892.506 198.741 892.68 198.756 892.805 198.773V201.21C892.702 201.182 892.521 201.151 892.259 201.116C891.998 201.077 891.737 201.057 891.475 201.057C890.873 201.057 890.336 201.185 889.864 201.44C889.398 201.69 889.029 202.04 888.756 202.489C888.484 202.932 888.347 203.437 888.347 204.006V212H885.799ZM907.472 198.909V200.955H900.322V198.909H907.472ZM902.239 195.773H904.788V208.156C904.788 208.651 904.862 209.023 905.009 209.273C905.157 209.517 905.347 209.685 905.58 209.776C905.819 209.861 906.077 209.903 906.356 209.903C906.56 209.903 906.739 209.889 906.893 209.861C907.046 209.832 907.165 209.81 907.251 209.793L907.711 211.898C907.563 211.955 907.353 212.011 907.08 212.068C906.808 212.131 906.467 212.165 906.058 212.17C905.387 212.182 904.762 212.062 904.183 211.812C903.603 211.562 903.134 211.176 902.776 210.653C902.418 210.131 902.239 209.474 902.239 208.685V195.773ZM913.121 204.227V212H910.572V194.545H913.087V201.04H913.249C913.555 200.335 914.024 199.776 914.655 199.361C915.286 198.946 916.109 198.739 917.126 198.739C918.024 198.739 918.808 198.923 919.479 199.293C920.155 199.662 920.678 200.213 921.047 200.946C921.422 201.673 921.609 202.582 921.609 203.673V212H919.061V203.98C919.061 203.02 918.814 202.276 918.32 201.747C917.825 201.213 917.138 200.946 916.257 200.946C915.655 200.946 915.115 201.074 914.638 201.33C914.166 201.585 913.794 201.96 913.521 202.455C913.254 202.943 913.121 203.534 913.121 204.227ZM928.82 212.29C927.99 212.29 927.24 212.136 926.57 211.83C925.899 211.517 925.368 211.065 924.976 210.474C924.589 209.884 924.396 209.159 924.396 208.301C924.396 207.562 924.538 206.955 924.822 206.477C925.107 206 925.49 205.622 925.973 205.344C926.456 205.065 926.996 204.855 927.592 204.713C928.189 204.571 928.797 204.463 929.416 204.389C930.2 204.298 930.837 204.224 931.325 204.168C931.814 204.105 932.169 204.006 932.391 203.869C932.612 203.733 932.723 203.511 932.723 203.205V203.145C932.723 202.401 932.513 201.824 932.092 201.415C931.678 201.006 931.058 200.801 930.234 200.801C929.376 200.801 928.7 200.991 928.206 201.372C927.717 201.747 927.379 202.165 927.192 202.625L924.797 202.08C925.081 201.284 925.496 200.642 926.041 200.153C926.592 199.659 927.226 199.301 927.942 199.08C928.658 198.852 929.411 198.739 930.2 198.739C930.723 198.739 931.277 198.801 931.862 198.926C932.453 199.045 933.004 199.267 933.516 199.591C934.033 199.915 934.456 200.378 934.786 200.98C935.115 201.577 935.28 202.352 935.28 203.307V212H932.791V210.21H932.689C932.524 210.54 932.277 210.864 931.947 211.182C931.618 211.5 931.195 211.764 930.678 211.974C930.161 212.185 929.541 212.29 928.82 212.29ZM929.374 210.244C930.078 210.244 930.68 210.105 931.18 209.827C931.686 209.548 932.07 209.185 932.331 208.736C932.598 208.281 932.732 207.795 932.732 207.278V205.591C932.641 205.682 932.464 205.767 932.203 205.847C931.947 205.92 931.655 205.986 931.325 206.043C930.996 206.094 930.675 206.142 930.362 206.188C930.05 206.227 929.788 206.261 929.578 206.29C929.084 206.352 928.632 206.457 928.223 206.605C927.82 206.753 927.496 206.966 927.251 207.244C927.013 207.517 926.893 207.881 926.893 208.335C926.893 208.966 927.126 209.443 927.592 209.767C928.058 210.085 928.652 210.244 929.374 210.244ZM941.222 204.227V212H938.674V198.909H941.12V201.04H941.282C941.583 200.347 942.055 199.79 942.697 199.369C943.344 198.949 944.16 198.739 945.143 198.739C946.035 198.739 946.816 198.926 947.487 199.301C948.157 199.67 948.677 200.222 949.046 200.955C949.415 201.687 949.6 202.594 949.6 203.673V212H947.052V203.98C947.052 203.031 946.805 202.29 946.31 201.756C945.816 201.216 945.137 200.946 944.273 200.946C943.683 200.946 943.157 201.074 942.697 201.33C942.242 201.585 941.881 201.96 941.614 202.455C941.353 202.943 941.222 203.534 941.222 204.227ZM969.179 202.105L966.869 202.514C966.773 202.219 966.619 201.937 966.409 201.67C966.205 201.403 965.926 201.185 965.574 201.014C965.222 200.844 964.781 200.759 964.253 200.759C963.531 200.759 962.929 200.92 962.446 201.244C961.963 201.562 961.722 201.974 961.722 202.48C961.722 202.918 961.884 203.27 962.207 203.537C962.531 203.804 963.054 204.023 963.776 204.193L965.855 204.67C967.06 204.949 967.957 205.378 968.548 205.957C969.139 206.537 969.435 207.29 969.435 208.216C969.435 209 969.207 209.699 968.753 210.312C968.304 210.92 967.676 211.398 966.869 211.744C966.068 212.091 965.139 212.264 964.082 212.264C962.616 212.264 961.42 211.952 960.494 211.327C959.568 210.696 959 209.801 958.79 208.642L961.253 208.267C961.406 208.909 961.722 209.395 962.199 209.724C962.676 210.048 963.298 210.21 964.065 210.21C964.901 210.21 965.568 210.037 966.068 209.69C966.568 209.338 966.818 208.909 966.818 208.403C966.818 207.994 966.665 207.651 966.358 207.372C966.057 207.094 965.594 206.884 964.969 206.741L962.753 206.256C961.531 205.977 960.628 205.534 960.043 204.926C959.463 204.318 959.173 203.548 959.173 202.616C959.173 201.844 959.389 201.168 959.821 200.588C960.253 200.009 960.849 199.557 961.611 199.233C962.372 198.903 963.244 198.739 964.227 198.739C965.642 198.739 966.756 199.045 967.568 199.659C968.381 200.267 968.918 201.082 969.179 202.105ZM972.237 216.909V198.909H974.725V201.031H974.938C975.086 200.759 975.299 200.443 975.577 200.085C975.856 199.727 976.242 199.415 976.737 199.148C977.231 198.875 977.884 198.739 978.697 198.739C979.754 198.739 980.697 199.006 981.526 199.54C982.356 200.074 983.006 200.844 983.478 201.849C983.955 202.855 984.194 204.065 984.194 205.48C984.194 206.895 983.958 208.108 983.487 209.119C983.015 210.125 982.367 210.901 981.543 211.446C980.719 211.986 979.779 212.256 978.722 212.256C977.927 212.256 977.276 212.122 976.771 211.855C976.271 211.588 975.879 211.276 975.594 210.918C975.31 210.56 975.092 210.241 974.938 209.963H974.785V216.909H972.237ZM974.734 205.455C974.734 206.375 974.867 207.182 975.134 207.875C975.401 208.568 975.788 209.111 976.293 209.503C976.799 209.889 977.418 210.082 978.151 210.082C978.913 210.082 979.549 209.881 980.06 209.477C980.572 209.068 980.958 208.514 981.219 207.815C981.487 207.116 981.62 206.33 981.62 205.455C981.62 204.591 981.489 203.815 981.228 203.128C980.972 202.44 980.586 201.898 980.069 201.5C979.558 201.102 978.918 200.903 978.151 200.903C977.413 200.903 976.788 201.094 976.276 201.474C975.771 201.855 975.387 202.386 975.126 203.068C974.864 203.75 974.734 204.545 974.734 205.455ZM992.691 212.264C991.401 212.264 990.29 211.989 989.359 211.438C988.433 210.881 987.717 210.099 987.211 209.094C986.711 208.082 986.461 206.898 986.461 205.54C986.461 204.199 986.711 203.017 987.211 201.994C987.717 200.972 988.421 200.173 989.325 199.599C990.234 199.026 991.296 198.739 992.512 198.739C993.251 198.739 993.967 198.861 994.66 199.105C995.353 199.349 995.975 199.733 996.526 200.256C997.077 200.778 997.512 201.457 997.83 202.293C998.148 203.122 998.308 204.131 998.308 205.318V206.222H987.901V204.312H995.81C995.81 203.642 995.674 203.048 995.401 202.531C995.129 202.009 994.745 201.597 994.251 201.295C993.762 200.994 993.188 200.844 992.529 200.844C991.813 200.844 991.188 201.02 990.654 201.372C990.126 201.719 989.717 202.173 989.427 202.736C989.143 203.293 989.001 203.898 989.001 204.551V206.043C989.001 206.918 989.154 207.662 989.461 208.276C989.773 208.889 990.208 209.358 990.765 209.682C991.322 210 991.972 210.159 992.717 210.159C993.2 210.159 993.64 210.091 994.038 209.955C994.435 209.812 994.779 209.602 995.069 209.324C995.359 209.045 995.58 208.702 995.734 208.293L998.146 208.727C997.952 209.437 997.606 210.06 997.106 210.594C996.612 211.122 995.989 211.534 995.239 211.83C994.495 212.119 993.646 212.264 992.691 212.264ZM1006.65 212.264C1005.38 212.264 1004.29 211.977 1003.38 211.403C1002.47 210.824 1001.77 210.026 1001.28 209.009C1000.79 207.991 1000.55 206.827 1000.55 205.514C1000.55 204.185 1000.8 203.011 1001.3 201.994C1001.8 200.972 1002.5 200.173 1003.41 199.599C1004.32 199.026 1005.39 198.739 1006.62 198.739C1007.62 198.739 1008.5 198.923 1009.28 199.293C1010.06 199.656 1010.69 200.168 1011.17 200.827C1011.65 201.486 1011.94 202.256 1012.03 203.136H1009.55C1009.41 202.523 1009.1 201.994 1008.61 201.551C1008.13 201.108 1007.48 200.886 1006.67 200.886C1005.96 200.886 1005.33 201.074 1004.8 201.449C1004.27 201.818 1003.86 202.347 1003.56 203.034C1003.27 203.716 1003.12 204.523 1003.12 205.455C1003.12 206.409 1003.27 207.233 1003.56 207.926C1003.85 208.619 1004.25 209.156 1004.78 209.537C1005.32 209.918 1005.94 210.108 1006.67 210.108C1007.15 210.108 1007.59 210.02 1007.98 209.844C1008.38 209.662 1008.71 209.403 1008.98 209.068C1009.25 208.733 1009.44 208.33 1009.55 207.858H1012.03C1011.94 208.705 1011.66 209.46 1011.2 210.125C1010.74 210.79 1010.12 211.312 1009.35 211.693C1008.58 212.074 1007.68 212.264 1006.65 212.264ZM1014.75 212V198.909H1017.3V212H1014.75ZM1016.04 196.889C1015.6 196.889 1015.22 196.741 1014.9 196.446C1014.58 196.145 1014.43 195.787 1014.43 195.372C1014.43 194.952 1014.58 194.594 1014.9 194.298C1015.22 193.997 1015.6 193.847 1016.04 193.847C1016.48 193.847 1016.86 193.997 1017.17 194.298C1017.49 194.594 1017.65 194.952 1017.65 195.372C1017.65 195.787 1017.49 196.145 1017.17 196.446C1016.86 196.741 1016.48 196.889 1016.04 196.889ZM1026.96 198.909V200.955H1019.56V198.909H1026.96ZM1021.59 212V197.392C1021.59 196.574 1021.77 195.895 1022.13 195.355C1022.48 194.81 1022.96 194.403 1023.55 194.136C1024.14 193.864 1024.78 193.727 1025.48 193.727C1025.99 193.727 1026.42 193.77 1026.79 193.855C1027.15 193.935 1027.42 194.009 1027.6 194.077L1027 196.139C1026.88 196.105 1026.73 196.065 1026.54 196.02C1026.35 195.969 1026.13 195.943 1025.86 195.943C1025.24 195.943 1024.8 196.097 1024.53 196.403C1024.27 196.71 1024.14 197.153 1024.14 197.733V212H1021.59ZM1029.59 212V198.909H1032.14V212H1029.59ZM1030.88 196.889C1030.43 196.889 1030.05 196.741 1029.73 196.446C1029.42 196.145 1029.26 195.787 1029.26 195.372C1029.26 194.952 1029.42 194.594 1029.73 194.298C1030.05 193.997 1030.43 193.847 1030.88 193.847C1031.32 193.847 1031.7 193.997 1032.01 194.298C1032.33 194.594 1032.49 194.952 1032.49 195.372C1032.49 195.787 1032.33 196.145 1032.01 196.446C1031.7 196.741 1031.32 196.889 1030.88 196.889ZM1041.08 212.264C1039.81 212.264 1038.72 211.977 1037.81 211.403C1036.9 210.824 1036.2 210.026 1035.71 209.009C1035.22 207.991 1034.98 206.827 1034.98 205.514C1034.98 204.185 1035.23 203.011 1035.73 201.994C1036.23 200.972 1036.93 200.173 1037.84 199.599C1038.75 199.026 1039.82 198.739 1041.05 198.739C1042.05 198.739 1042.93 198.923 1043.71 199.293C1044.49 199.656 1045.12 200.168 1045.6 200.827C1046.08 201.486 1046.37 202.256 1046.46 203.136H1043.98C1043.84 202.523 1043.53 201.994 1043.04 201.551C1042.56 201.108 1041.91 200.886 1041.1 200.886C1040.39 200.886 1039.76 201.074 1039.23 201.449C1038.7 201.818 1038.29 202.347 1037.99 203.034C1037.7 203.716 1037.55 204.523 1037.55 205.455C1037.55 206.409 1037.7 207.233 1037.99 207.926C1038.27 208.619 1038.68 209.156 1039.21 209.537C1039.75 209.918 1040.37 210.108 1041.1 210.108C1041.58 210.108 1042.02 210.02 1042.41 209.844C1042.81 209.662 1043.14 209.403 1043.41 209.068C1043.68 208.733 1043.87 208.33 1043.98 207.858H1046.46C1046.37 208.705 1046.09 209.46 1045.63 210.125C1045.17 210.79 1044.55 211.312 1043.78 211.693C1043.01 212.074 1042.11 212.264 1041.08 212.264ZM607.943 230.909V232.955H600.545V230.909H607.943ZM602.574 244V229.392C602.574 228.574 602.753 227.895 603.111 227.355C603.469 226.81 603.943 226.403 604.534 226.136C605.125 225.864 605.767 225.727 606.46 225.727C606.972 225.727 607.409 225.77 607.773 225.855C608.136 225.935 608.406 226.009 608.582 226.077L607.986 228.139C607.866 228.105 607.713 228.065 607.526 228.02C607.338 227.969 607.111 227.943 606.844 227.943C606.224 227.943 605.781 228.097 605.514 228.403C605.253 228.71 605.122 229.153 605.122 229.733V244H602.574ZM610.572 244V230.909H613.036V232.989H613.172C613.411 232.284 613.831 231.73 614.433 231.327C615.041 230.918 615.729 230.713 616.496 230.713C616.655 230.713 616.842 230.719 617.058 230.73C617.28 230.741 617.453 230.756 617.578 230.773V233.21C617.476 233.182 617.294 233.151 617.033 233.116C616.771 233.077 616.51 233.057 616.249 233.057C615.646 233.057 615.109 233.185 614.638 233.44C614.172 233.69 613.803 234.04 613.53 234.489C613.257 234.932 613.121 235.437 613.121 236.006V244H610.572ZM623.476 244.29C622.646 244.29 621.896 244.136 621.226 243.83C620.555 243.517 620.024 243.065 619.632 242.474C619.246 241.884 619.053 241.159 619.053 240.301C619.053 239.562 619.195 238.955 619.479 238.477C619.763 238 620.146 237.622 620.629 237.344C621.112 237.065 621.652 236.855 622.249 236.713C622.845 236.571 623.453 236.463 624.072 236.389C624.857 236.298 625.493 236.224 625.982 236.168C626.47 236.105 626.825 236.006 627.047 235.869C627.268 235.733 627.379 235.511 627.379 235.205V235.145C627.379 234.401 627.169 233.824 626.749 233.415C626.334 233.006 625.714 232.801 624.891 232.801C624.033 232.801 623.357 232.991 622.862 233.372C622.374 233.747 622.036 234.165 621.848 234.625L619.453 234.08C619.737 233.284 620.152 232.642 620.697 232.153C621.249 231.659 621.882 231.301 622.598 231.08C623.314 230.852 624.067 230.739 624.857 230.739C625.379 230.739 625.933 230.801 626.518 230.926C627.109 231.045 627.661 231.267 628.172 231.591C628.689 231.915 629.112 232.378 629.442 232.98C629.771 233.577 629.936 234.352 629.936 235.307V244H627.447V242.21H627.345C627.18 242.54 626.933 242.864 626.604 243.182C626.274 243.5 625.851 243.764 625.334 243.974C624.817 244.185 624.197 244.29 623.476 244.29ZM624.03 242.244C624.734 242.244 625.337 242.105 625.837 241.827C626.342 241.548 626.726 241.185 626.987 240.736C627.254 240.281 627.388 239.795 627.388 239.278V237.591C627.297 237.682 627.121 237.767 626.859 237.847C626.604 237.92 626.311 237.986 625.982 238.043C625.652 238.094 625.331 238.142 625.018 238.188C624.706 238.227 624.445 238.261 624.234 238.29C623.74 238.352 623.288 238.457 622.879 238.605C622.476 238.753 622.152 238.966 621.908 239.244C621.669 239.517 621.55 239.881 621.55 240.335C621.55 240.966 621.783 241.443 622.249 241.767C622.714 242.085 623.308 242.244 624.03 242.244ZM633.33 244V230.909H635.776V233.04H635.938C636.211 232.318 636.657 231.756 637.276 231.352C637.896 230.943 638.637 230.739 639.501 230.739C640.376 230.739 641.109 230.943 641.7 231.352C642.296 231.761 642.737 232.324 643.021 233.04H643.157C643.469 232.341 643.967 231.784 644.648 231.369C645.33 230.949 646.143 230.739 647.086 230.739C648.273 230.739 649.242 231.111 649.992 231.855C650.748 232.599 651.126 233.722 651.126 235.222V244H648.577V235.46C648.577 234.574 648.336 233.932 647.853 233.534C647.37 233.136 646.793 232.938 646.123 232.938C645.293 232.938 644.648 233.193 644.188 233.705C643.728 234.21 643.498 234.861 643.498 235.656V244H640.958V235.298C640.958 234.588 640.737 234.017 640.293 233.585C639.85 233.153 639.273 232.938 638.563 232.938C638.08 232.938 637.634 233.065 637.225 233.321C636.822 233.571 636.495 233.92 636.245 234.369C636.001 234.818 635.879 235.338 635.879 235.929V244H633.33ZM660.183 244.264C658.893 244.264 657.783 243.989 656.851 243.438C655.925 242.881 655.209 242.099 654.703 241.094C654.203 240.082 653.953 238.898 653.953 237.54C653.953 236.199 654.203 235.017 654.703 233.994C655.209 232.972 655.913 232.173 656.817 231.599C657.726 231.026 658.788 230.739 660.004 230.739C660.743 230.739 661.459 230.861 662.152 231.105C662.845 231.349 663.467 231.733 664.018 232.256C664.57 232.778 665.004 233.457 665.322 234.293C665.641 235.122 665.8 236.131 665.8 237.318V238.222H655.393V236.312H663.303C663.303 235.642 663.166 235.048 662.893 234.531C662.621 234.009 662.237 233.597 661.743 233.295C661.254 232.994 660.68 232.844 660.021 232.844C659.305 232.844 658.68 233.02 658.146 233.372C657.618 233.719 657.209 234.173 656.919 234.736C656.635 235.293 656.493 235.898 656.493 236.551V238.043C656.493 238.918 656.646 239.662 656.953 240.276C657.266 240.889 657.7 241.358 658.257 241.682C658.814 242 659.464 242.159 660.209 242.159C660.692 242.159 661.132 242.091 661.53 241.955C661.928 241.812 662.271 241.602 662.561 241.324C662.851 241.045 663.072 240.702 663.226 240.293L665.638 240.727C665.445 241.437 665.098 242.06 664.598 242.594C664.104 243.122 663.482 243.534 662.732 243.83C661.987 244.119 661.138 244.264 660.183 244.264ZM671.442 244L667.589 230.909H670.223L672.788 240.523H672.916L675.49 230.909H678.124L680.68 240.48H680.808L683.357 230.909H685.99L682.146 244H679.547L676.888 234.548H676.692L674.033 244H671.442ZM693.524 244.264C692.297 244.264 691.226 243.983 690.311 243.42C689.396 242.858 688.686 242.071 688.18 241.06C687.675 240.048 687.422 238.866 687.422 237.514C687.422 236.156 687.675 234.969 688.18 233.952C688.686 232.935 689.396 232.145 690.311 231.582C691.226 231.02 692.297 230.739 693.524 230.739C694.751 230.739 695.822 231.02 696.737 231.582C697.652 232.145 698.362 232.935 698.868 233.952C699.374 234.969 699.626 236.156 699.626 237.514C699.626 238.866 699.374 240.048 698.868 241.06C698.362 242.071 697.652 242.858 696.737 243.42C695.822 243.983 694.751 244.264 693.524 244.264ZM693.533 242.125C694.328 242.125 694.987 241.915 695.51 241.494C696.033 241.074 696.419 240.514 696.669 239.815C696.925 239.116 697.053 238.347 697.053 237.506C697.053 236.67 696.925 235.903 696.669 235.205C696.419 234.5 696.033 233.935 695.51 233.509C694.987 233.082 694.328 232.869 693.533 232.869C692.732 232.869 692.067 233.082 691.538 233.509C691.016 233.935 690.626 234.5 690.371 235.205C690.121 235.903 689.996 236.67 689.996 237.506C689.996 238.347 690.121 239.116 690.371 239.815C690.626 240.514 691.016 241.074 691.538 241.494C692.067 241.915 692.732 242.125 693.533 242.125ZM702.471 244V230.909H704.934V232.989H705.07C705.309 232.284 705.729 231.73 706.332 231.327C706.94 230.918 707.627 230.713 708.394 230.713C708.553 230.713 708.741 230.719 708.957 230.73C709.178 230.741 709.352 230.756 709.477 230.773V233.21C709.374 233.182 709.192 233.151 708.931 233.116C708.67 233.077 708.408 233.057 708.147 233.057C707.545 233.057 707.008 233.185 706.536 233.44C706.07 233.69 705.701 234.04 705.428 234.489C705.156 234.932 705.019 235.437 705.019 236.006V244H702.471ZM714.026 239.56L714.009 236.449H714.452L719.668 230.909H722.719L716.77 237.216H716.369L714.026 239.56ZM711.682 244V226.545H714.23V244H711.682ZM719.949 244L715.261 237.778L717.017 235.997L723.077 244H719.949ZM735.202 244.29C734.373 244.29 733.623 244.136 732.952 243.83C732.282 243.517 731.751 243.065 731.359 242.474C730.972 241.884 730.779 241.159 730.779 240.301C730.779 239.562 730.921 238.955 731.205 238.477C731.489 238 731.873 237.622 732.356 237.344C732.839 237.065 733.379 236.855 733.975 236.713C734.572 236.571 735.18 236.463 735.799 236.389C736.583 236.298 737.219 236.224 737.708 236.168C738.197 236.105 738.552 236.006 738.773 235.869C738.995 235.733 739.106 235.511 739.106 235.205V235.145C739.106 234.401 738.896 233.824 738.475 233.415C738.06 233.006 737.441 232.801 736.617 232.801C735.759 232.801 735.083 232.991 734.589 233.372C734.1 233.747 733.762 234.165 733.575 234.625L731.18 234.08C731.464 233.284 731.879 232.642 732.424 232.153C732.975 231.659 733.609 231.301 734.325 231.08C735.04 230.852 735.793 230.739 736.583 230.739C737.106 230.739 737.66 230.801 738.245 230.926C738.836 231.045 739.387 231.267 739.898 231.591C740.415 231.915 740.839 232.378 741.168 232.98C741.498 233.577 741.663 234.352 741.663 235.307V244H739.174V242.21H739.072C738.907 242.54 738.66 242.864 738.33 243.182C738.001 243.5 737.577 243.764 737.06 243.974C736.543 244.185 735.924 244.29 735.202 244.29ZM735.756 242.244C736.461 242.244 737.063 242.105 737.563 241.827C738.069 241.548 738.452 241.185 738.714 240.736C738.981 240.281 739.114 239.795 739.114 239.278V237.591C739.023 237.682 738.847 237.767 738.586 237.847C738.33 237.92 738.038 237.986 737.708 238.043C737.379 238.094 737.058 238.142 736.745 238.188C736.433 238.227 736.171 238.261 735.961 238.29C735.467 238.352 735.015 238.457 734.606 238.605C734.202 238.753 733.879 238.966 733.634 239.244C733.396 239.517 733.276 239.881 733.276 240.335C733.276 240.966 733.509 241.443 733.975 241.767C734.441 242.085 735.035 242.244 735.756 242.244ZM747.605 236.227V244H745.057V230.909H747.503V233.04H747.665C747.966 232.347 748.438 231.79 749.08 231.369C749.727 230.949 750.543 230.739 751.526 230.739C752.418 230.739 753.199 230.926 753.869 231.301C754.54 231.67 755.06 232.222 755.429 232.955C755.798 233.687 755.983 234.594 755.983 235.673V244H753.435V235.98C753.435 235.031 753.188 234.29 752.693 233.756C752.199 233.216 751.52 232.946 750.656 232.946C750.065 232.946 749.54 233.074 749.08 233.33C748.625 233.585 748.264 233.96 747.997 234.455C747.736 234.943 747.605 235.534 747.605 236.227ZM764.301 244.256C763.244 244.256 762.301 243.986 761.472 243.446C760.648 242.901 760 242.125 759.528 241.119C759.063 240.108 758.83 238.895 758.83 237.48C758.83 236.065 759.065 234.855 759.537 233.849C760.014 232.844 760.668 232.074 761.497 231.54C762.327 231.006 763.267 230.739 764.318 230.739C765.131 230.739 765.784 230.875 766.278 231.148C766.778 231.415 767.165 231.727 767.438 232.085C767.716 232.443 767.932 232.759 768.085 233.031H768.239V226.545H770.787V244H768.298V241.963H768.085C767.932 242.241 767.71 242.56 767.42 242.918C767.136 243.276 766.744 243.588 766.244 243.855C765.744 244.122 765.097 244.256 764.301 244.256ZM764.864 242.082C765.597 242.082 766.216 241.889 766.722 241.503C767.233 241.111 767.619 240.568 767.881 239.875C768.148 239.182 768.281 238.375 768.281 237.455C768.281 236.545 768.151 235.75 767.889 235.068C767.628 234.386 767.244 233.855 766.739 233.474C766.233 233.094 765.608 232.903 764.864 232.903C764.097 232.903 763.457 233.102 762.946 233.5C762.435 233.898 762.048 234.44 761.787 235.128C761.531 235.815 761.403 236.591 761.403 237.455C761.403 238.33 761.534 239.116 761.795 239.815C762.057 240.514 762.443 241.068 762.955 241.477C763.472 241.881 764.108 242.082 764.864 242.082ZM783.324 226.545V244H780.776V226.545H783.324ZM786.752 244V230.909H789.3V244H786.752ZM788.039 228.889C787.596 228.889 787.215 228.741 786.897 228.446C786.585 228.145 786.428 227.787 786.428 227.372C786.428 226.952 786.585 226.594 786.897 226.298C787.215 225.997 787.596 225.847 788.039 225.847C788.482 225.847 788.86 225.997 789.173 226.298C789.491 226.594 789.65 226.952 789.65 227.372C789.65 227.787 789.491 228.145 789.173 228.446C788.86 228.741 788.482 228.889 788.039 228.889ZM792.933 244V226.545H795.482V233.031H795.635C795.783 232.759 795.996 232.443 796.274 232.085C796.553 231.727 796.939 231.415 797.433 231.148C797.928 230.875 798.581 230.739 799.393 230.739C800.45 230.739 801.393 231.006 802.223 231.54C803.053 232.074 803.703 232.844 804.175 233.849C804.652 234.855 804.891 236.065 804.891 237.48C804.891 238.895 804.655 240.108 804.183 241.119C803.712 242.125 803.064 242.901 802.24 243.446C801.416 243.986 800.476 244.256 799.419 244.256C798.624 244.256 797.973 244.122 797.467 243.855C796.967 243.588 796.575 243.276 796.291 242.918C796.007 242.56 795.788 242.241 795.635 241.963H795.422V244H792.933ZM795.43 237.455C795.43 238.375 795.564 239.182 795.831 239.875C796.098 240.568 796.484 241.111 796.99 241.503C797.496 241.889 798.115 242.082 798.848 242.082C799.609 242.082 800.246 241.881 800.757 241.477C801.268 241.068 801.655 240.514 801.916 239.815C802.183 239.116 802.317 238.33 802.317 237.455C802.317 236.591 802.186 235.815 801.925 235.128C801.669 234.44 801.283 233.898 800.766 233.5C800.254 233.102 799.615 232.903 798.848 232.903C798.109 232.903 797.484 233.094 796.973 233.474C796.467 233.855 796.084 234.386 795.822 235.068C795.561 235.75 795.43 236.545 795.43 237.455ZM807.752 244V230.909H810.215V232.989H810.352C810.59 232.284 811.011 231.73 811.613 231.327C812.221 230.918 812.908 230.713 813.675 230.713C813.835 230.713 814.022 230.719 814.238 230.73C814.46 230.741 814.633 230.756 814.758 230.773V233.21C814.656 233.182 814.474 233.151 814.212 233.116C813.951 233.077 813.69 233.057 813.428 233.057C812.826 233.057 812.289 233.185 811.817 233.44C811.352 233.69 810.982 234.04 810.71 234.489C810.437 234.932 810.3 235.437 810.3 236.006V244H807.752ZM820.656 244.29C819.826 244.29 819.076 244.136 818.406 243.83C817.735 243.517 817.204 243.065 816.812 242.474C816.425 241.884 816.232 241.159 816.232 240.301C816.232 239.562 816.374 238.955 816.658 238.477C816.942 238 817.326 237.622 817.809 237.344C818.292 237.065 818.832 236.855 819.428 236.713C820.025 236.571 820.633 236.463 821.252 236.389C822.036 236.298 822.673 236.224 823.161 236.168C823.65 236.105 824.005 236.006 824.227 235.869C824.448 235.733 824.559 235.511 824.559 235.205V235.145C824.559 234.401 824.349 233.824 823.928 233.415C823.513 233.006 822.894 232.801 822.07 232.801C821.212 232.801 820.536 232.991 820.042 233.372C819.553 233.747 819.215 234.165 819.028 234.625L816.633 234.08C816.917 233.284 817.332 232.642 817.877 232.153C818.428 231.659 819.062 231.301 819.778 231.08C820.494 230.852 821.246 230.739 822.036 230.739C822.559 230.739 823.113 230.801 823.698 230.926C824.289 231.045 824.84 231.267 825.352 231.591C825.869 231.915 826.292 232.378 826.621 232.98C826.951 233.577 827.116 234.352 827.116 235.307V244H824.627V242.21H824.525C824.36 242.54 824.113 242.864 823.783 243.182C823.454 243.5 823.031 243.764 822.513 243.974C821.996 244.185 821.377 244.29 820.656 244.29ZM821.21 242.244C821.914 242.244 822.516 242.105 823.016 241.827C823.522 241.548 823.906 241.185 824.167 240.736C824.434 240.281 824.567 239.795 824.567 239.278V237.591C824.477 237.682 824.3 237.767 824.039 237.847C823.783 237.92 823.491 237.986 823.161 238.043C822.832 238.094 822.511 238.142 822.198 238.188C821.886 238.227 821.624 238.261 821.414 238.29C820.92 238.352 820.468 238.457 820.059 238.605C819.656 238.753 819.332 238.966 819.087 239.244C818.849 239.517 818.729 239.881 818.729 240.335C818.729 240.966 818.962 241.443 819.428 241.767C819.894 242.085 820.488 242.244 821.21 242.244ZM830.51 244V230.909H832.973V232.989H833.109C833.348 232.284 833.768 231.73 834.371 231.327C834.979 230.918 835.666 230.713 836.433 230.713C836.592 230.713 836.78 230.719 836.996 230.73C837.217 230.741 837.391 230.756 837.516 230.773V233.21C837.413 233.182 837.232 233.151 836.97 233.116C836.709 233.077 836.447 233.057 836.186 233.057C835.584 233.057 835.047 233.185 834.575 233.44C834.109 233.69 833.74 234.04 833.467 234.489C833.195 234.932 833.058 235.437 833.058 236.006V244H830.51ZM841.73 248.909C841.349 248.909 841.003 248.878 840.69 248.815C840.378 248.759 840.145 248.696 839.991 248.628L840.605 246.54C841.071 246.665 841.486 246.719 841.849 246.702C842.213 246.685 842.534 246.548 842.812 246.293C843.097 246.037 843.347 245.619 843.562 245.04L843.878 244.17L839.088 230.909H841.815L845.131 241.068H845.267L848.582 230.909H851.318L845.923 245.747C845.673 246.429 845.355 247.006 844.969 247.477C844.582 247.955 844.122 248.313 843.588 248.551C843.054 248.79 842.435 248.909 841.73 248.909ZM869.874 234.105L867.565 234.514C867.468 234.219 867.315 233.937 867.104 233.67C866.9 233.403 866.621 233.185 866.269 233.014C865.917 232.844 865.477 232.759 864.948 232.759C864.227 232.759 863.624 232.92 863.141 233.244C862.658 233.562 862.417 233.974 862.417 234.48C862.417 234.918 862.579 235.27 862.903 235.537C863.227 235.804 863.749 236.023 864.471 236.193L866.55 236.67C867.755 236.949 868.653 237.378 869.244 237.957C869.835 238.537 870.13 239.29 870.13 240.216C870.13 241 869.903 241.699 869.448 242.312C868.999 242.92 868.371 243.398 867.565 243.744C866.763 244.091 865.835 244.264 864.778 244.264C863.312 244.264 862.116 243.952 861.19 243.327C860.263 242.696 859.695 241.801 859.485 240.642L861.948 240.267C862.102 240.909 862.417 241.395 862.894 241.724C863.371 242.048 863.994 242.21 864.761 242.21C865.596 242.21 866.263 242.037 866.763 241.69C867.263 241.338 867.513 240.909 867.513 240.403C867.513 239.994 867.36 239.651 867.053 239.372C866.752 239.094 866.289 238.884 865.664 238.741L863.448 238.256C862.227 237.977 861.323 237.534 860.738 236.926C860.158 236.318 859.869 235.548 859.869 234.616C859.869 233.844 860.085 233.168 860.516 232.588C860.948 232.009 861.545 231.557 862.306 231.233C863.067 230.903 863.94 230.739 864.923 230.739C866.337 230.739 867.451 231.045 868.263 231.659C869.076 232.267 869.613 233.082 869.874 234.105ZM874.543 248.909C874.162 248.909 873.815 248.878 873.503 248.815C873.19 248.759 872.957 248.696 872.804 248.628L873.418 246.54C873.884 246.665 874.298 246.719 874.662 246.702C875.026 246.685 875.347 246.548 875.625 246.293C875.909 246.037 876.159 245.619 876.375 245.04L876.69 244.17L871.901 230.909H874.628L877.943 241.068H878.08L881.395 230.909H884.131L878.736 245.747C878.486 246.429 878.168 247.006 877.781 247.477C877.395 247.955 876.935 248.313 876.401 248.551C875.866 248.79 875.247 248.909 874.543 248.909ZM889.074 236.227V244H886.526V230.909H888.972V233.04H889.134C889.435 232.347 889.906 231.79 890.548 231.369C891.196 230.949 892.011 230.739 892.994 230.739C893.886 230.739 894.668 230.926 895.338 231.301C896.009 231.67 896.528 232.222 896.898 232.955C897.267 233.687 897.452 234.594 897.452 235.673V244H894.903V235.98C894.903 235.031 894.656 234.29 894.162 233.756C893.668 233.216 892.989 232.946 892.125 232.946C891.534 232.946 891.009 233.074 890.548 233.33C890.094 233.585 889.733 233.96 889.466 234.455C889.205 234.943 889.074 235.534 889.074 236.227ZM906.98 230.909V232.955H899.83V230.909H906.98ZM901.747 227.773H904.295V240.156C904.295 240.651 904.369 241.023 904.517 241.273C904.665 241.517 904.855 241.685 905.088 241.776C905.327 241.861 905.585 241.903 905.864 241.903C906.068 241.903 906.247 241.889 906.401 241.861C906.554 241.832 906.673 241.81 906.759 241.793L907.219 243.898C907.071 243.955 906.861 244.011 906.588 244.068C906.315 244.131 905.974 244.165 905.565 244.17C904.895 244.182 904.27 244.062 903.69 243.812C903.111 243.562 902.642 243.176 902.284 242.653C901.926 242.131 901.747 241.474 901.747 240.685V227.773ZM913.609 244.29C912.779 244.29 912.029 244.136 911.359 243.83C910.688 243.517 910.157 243.065 909.765 242.474C909.379 241.884 909.185 241.159 909.185 240.301C909.185 239.562 909.327 238.955 909.612 238.477C909.896 238 910.279 237.622 910.762 237.344C911.245 237.065 911.785 236.855 912.381 236.713C912.978 236.571 913.586 236.463 914.205 236.389C914.989 236.298 915.626 236.224 916.114 236.168C916.603 236.105 916.958 236.006 917.18 235.869C917.401 235.733 917.512 235.511 917.512 235.205V235.145C917.512 234.401 917.302 233.824 916.881 233.415C916.467 233.006 915.847 232.801 915.023 232.801C914.165 232.801 913.489 232.991 912.995 233.372C912.506 233.747 912.168 234.165 911.981 234.625L909.586 234.08C909.87 233.284 910.285 232.642 910.83 232.153C911.381 231.659 912.015 231.301 912.731 231.08C913.447 230.852 914.2 230.739 914.989 230.739C915.512 230.739 916.066 230.801 916.651 230.926C917.242 231.045 917.793 231.267 918.305 231.591C918.822 231.915 919.245 232.378 919.575 232.98C919.904 233.577 920.069 234.352 920.069 235.307V244H917.58V242.21H917.478C917.313 242.54 917.066 242.864 916.737 243.182C916.407 243.5 915.984 243.764 915.467 243.974C914.95 244.185 914.33 244.29 913.609 244.29ZM914.163 242.244C914.867 242.244 915.469 242.105 915.969 241.827C916.475 241.548 916.859 241.185 917.12 240.736C917.387 240.281 917.521 239.795 917.521 239.278V237.591C917.43 237.682 917.254 237.767 916.992 237.847C916.737 237.92 916.444 237.986 916.114 238.043C915.785 238.094 915.464 238.142 915.151 238.188C914.839 238.227 914.577 238.261 914.367 238.29C913.873 238.352 913.421 238.457 913.012 238.605C912.609 238.753 912.285 238.966 912.04 239.244C911.802 239.517 911.683 239.881 911.683 240.335C911.683 240.966 911.915 241.443 912.381 241.767C912.847 242.085 913.441 242.244 914.163 242.244ZM925.474 230.909L928.364 236.006L931.278 230.909H934.065L929.983 237.455L934.099 244H931.312L928.364 239.108L925.423 244H922.628L926.702 237.455L922.679 230.909H925.474ZM943.033 248.909V230.909H945.522V233.031H945.735C945.883 232.759 946.096 232.443 946.374 232.085C946.653 231.727 947.039 231.415 947.533 231.148C948.028 230.875 948.681 230.739 949.494 230.739C950.55 230.739 951.494 231.006 952.323 231.54C953.153 232.074 953.803 232.844 954.275 233.849C954.752 234.855 954.991 236.065 954.991 237.48C954.991 238.895 954.755 240.108 954.283 241.119C953.812 242.125 953.164 242.901 952.34 243.446C951.516 243.986 950.576 244.256 949.519 244.256C948.724 244.256 948.073 244.122 947.567 243.855C947.067 243.588 946.675 243.276 946.391 242.918C946.107 242.56 945.888 242.241 945.735 241.963H945.582V248.909H943.033ZM945.531 237.455C945.531 238.375 945.664 239.182 945.931 239.875C946.198 240.568 946.585 241.111 947.09 241.503C947.596 241.889 948.215 242.082 948.948 242.082C949.71 242.082 950.346 241.881 950.857 241.477C951.369 241.068 951.755 240.514 952.016 239.815C952.283 239.116 952.417 238.33 952.417 237.455C952.417 236.591 952.286 235.815 952.025 235.128C951.769 234.44 951.383 233.898 950.866 233.5C950.354 233.102 949.715 232.903 948.948 232.903C948.21 232.903 947.585 233.094 947.073 233.474C946.567 233.855 946.184 234.386 945.923 235.068C945.661 235.75 945.531 236.545 945.531 237.455ZM957.846 244V230.909H960.309V232.989H960.445C960.684 232.284 961.104 231.73 961.707 231.327C962.315 230.918 963.002 230.713 963.769 230.713C963.928 230.713 964.116 230.719 964.332 230.73C964.553 230.741 964.727 230.756 964.852 230.773V233.21C964.749 233.182 964.567 233.151 964.306 233.116C964.045 233.077 963.783 233.057 963.522 233.057C962.92 233.057 962.383 233.185 961.911 233.44C961.445 233.69 961.076 234.04 960.803 234.489C960.531 234.932 960.394 235.437 960.394 236.006V244H957.846ZM972.102 244.264C970.875 244.264 969.804 243.983 968.889 243.42C967.974 242.858 967.264 242.071 966.759 241.06C966.253 240.048 966 238.866 966 237.514C966 236.156 966.253 234.969 966.759 233.952C967.264 232.935 967.974 232.145 968.889 231.582C969.804 231.02 970.875 230.739 972.102 230.739C973.33 230.739 974.401 231.02 975.315 231.582C976.23 232.145 976.94 232.935 977.446 233.952C977.952 234.969 978.205 236.156 978.205 237.514C978.205 238.866 977.952 240.048 977.446 241.06C976.94 242.071 976.23 242.858 975.315 243.42C974.401 243.983 973.33 244.264 972.102 244.264ZM972.111 242.125C972.906 242.125 973.565 241.915 974.088 241.494C974.611 241.074 974.997 240.514 975.247 239.815C975.503 239.116 975.631 238.347 975.631 237.506C975.631 236.67 975.503 235.903 975.247 235.205C974.997 234.5 974.611 233.935 974.088 233.509C973.565 233.082 972.906 232.869 972.111 232.869C971.31 232.869 970.645 233.082 970.116 233.509C969.594 233.935 969.205 234.5 968.949 235.205C968.699 235.903 968.574 236.67 968.574 237.506C968.574 238.347 968.699 239.116 968.949 239.815C969.205 240.514 969.594 241.074 970.116 241.494C970.645 241.915 971.31 242.125 972.111 242.125ZM981.254 244V226.545H983.802V233.031H983.955C984.103 232.759 984.316 232.443 984.594 232.085C984.873 231.727 985.259 231.415 985.754 231.148C986.248 230.875 986.901 230.739 987.714 230.739C988.771 230.739 989.714 231.006 990.543 231.54C991.373 232.074 992.023 232.844 992.495 233.849C992.972 234.855 993.211 236.065 993.211 237.48C993.211 238.895 992.975 240.108 992.504 241.119C992.032 242.125 991.384 242.901 990.56 243.446C989.737 243.986 988.796 244.256 987.739 244.256C986.944 244.256 986.293 244.122 985.788 243.855C985.288 243.588 984.896 243.276 984.612 242.918C984.327 242.56 984.109 242.241 983.955 241.963H983.742V244H981.254ZM983.751 237.455C983.751 238.375 983.884 239.182 984.151 239.875C984.418 240.568 984.805 241.111 985.31 241.503C985.816 241.889 986.435 242.082 987.168 242.082C987.93 242.082 988.566 241.881 989.077 241.477C989.589 241.068 989.975 240.514 990.237 239.815C990.504 239.116 990.637 238.33 990.637 237.455C990.637 236.591 990.506 235.815 990.245 235.128C989.989 234.44 989.603 233.898 989.086 233.5C988.575 233.102 987.935 232.903 987.168 232.903C986.43 232.903 985.805 233.094 985.293 233.474C984.788 233.855 984.404 234.386 984.143 235.068C983.881 235.75 983.751 236.545 983.751 237.455ZM998.621 226.545V244H996.072V226.545H998.621ZM1007.69 244.264C1006.4 244.264 1005.29 243.989 1004.36 243.438C1003.43 242.881 1002.72 242.099 1002.21 241.094C1001.71 240.082 1001.46 238.898 1001.46 237.54C1001.46 236.199 1001.71 235.017 1002.21 233.994C1002.72 232.972 1003.42 232.173 1004.32 231.599C1005.23 231.026 1006.3 230.739 1007.51 230.739C1008.25 230.739 1008.97 230.861 1009.66 231.105C1010.35 231.349 1010.98 231.733 1011.53 232.256C1012.08 232.778 1012.51 233.457 1012.83 234.293C1013.15 235.122 1013.31 236.131 1013.31 237.318V238.222H1002.9V236.312H1010.81C1010.81 235.642 1010.67 235.048 1010.4 234.531C1010.13 234.009 1009.75 233.597 1009.25 233.295C1008.76 232.994 1008.19 232.844 1007.53 232.844C1006.81 232.844 1006.19 233.02 1005.65 233.372C1005.13 233.719 1004.72 234.173 1004.43 234.736C1004.14 235.293 1004 235.898 1004 236.551V238.043C1004 238.918 1004.15 239.662 1004.46 240.276C1004.77 240.889 1005.21 241.358 1005.76 241.682C1006.32 242 1006.97 242.159 1007.72 242.159C1008.2 242.159 1008.64 242.091 1009.04 241.955C1009.44 241.812 1009.78 241.602 1010.07 241.324C1010.36 241.045 1010.58 240.702 1010.73 240.293L1013.15 240.727C1012.95 241.437 1012.61 242.06 1012.11 242.594C1011.61 243.122 1010.99 243.534 1010.24 243.83C1009.5 244.119 1008.65 244.264 1007.69 244.264ZM1016.13 244V230.909H1018.58V233.04H1018.74C1019.02 232.318 1019.46 231.756 1020.08 231.352C1020.7 230.943 1021.44 230.739 1022.31 230.739C1023.18 230.739 1023.91 230.943 1024.5 231.352C1025.1 231.761 1025.54 232.324 1025.83 233.04H1025.96C1026.27 232.341 1026.77 231.784 1027.45 231.369C1028.13 230.949 1028.95 230.739 1029.89 230.739C1031.08 230.739 1032.05 231.111 1032.8 231.855C1033.55 232.599 1033.93 233.722 1033.93 235.222V244H1031.38V235.46C1031.38 234.574 1031.14 233.932 1030.66 233.534C1030.17 233.136 1029.6 232.938 1028.93 232.938C1028.1 232.938 1027.45 233.193 1026.99 233.705C1026.53 234.21 1026.3 234.861 1026.3 235.656V244H1023.76V235.298C1023.76 234.588 1023.54 234.017 1023.1 233.585C1022.65 233.153 1022.08 232.938 1021.37 232.938C1020.88 232.938 1020.44 233.065 1020.03 233.321C1019.63 233.571 1019.3 233.92 1019.05 234.369C1018.81 234.818 1018.68 235.338 1018.68 235.929V244H1016.13ZM1047.16 234.105L1044.85 234.514C1044.75 234.219 1044.6 233.937 1044.39 233.67C1044.18 233.403 1043.9 233.185 1043.55 233.014C1043.2 232.844 1042.76 232.759 1042.23 232.759C1041.51 232.759 1040.91 232.92 1040.42 233.244C1039.94 233.562 1039.7 233.974 1039.7 234.48C1039.7 234.918 1039.86 235.27 1040.18 235.537C1040.51 235.804 1041.03 236.023 1041.75 236.193L1043.83 236.67C1045.04 236.949 1045.93 237.378 1046.52 237.957C1047.12 238.537 1047.41 239.29 1047.41 240.216C1047.41 241 1047.18 241.699 1046.73 242.312C1046.28 242.92 1045.65 243.398 1044.85 243.744C1044.04 244.091 1043.12 244.264 1042.06 244.264C1040.59 244.264 1039.4 243.952 1038.47 243.327C1037.54 242.696 1036.98 241.801 1036.77 240.642L1039.23 240.267C1039.38 240.909 1039.7 241.395 1040.18 241.724C1040.65 242.048 1041.27 242.21 1042.04 242.21C1042.88 242.21 1043.54 242.037 1044.04 241.69C1044.54 241.338 1044.79 240.909 1044.79 240.403C1044.79 239.994 1044.64 239.651 1044.33 239.372C1044.03 239.094 1043.57 238.884 1042.95 238.741L1040.73 238.256C1039.51 237.977 1038.6 237.534 1038.02 236.926C1037.44 236.318 1037.15 235.548 1037.15 234.616C1037.15 233.844 1037.37 233.168 1037.8 232.588C1038.23 232.009 1038.83 231.557 1039.59 231.233C1040.35 230.903 1041.22 230.739 1042.2 230.739C1043.62 230.739 1044.73 231.045 1045.54 231.659C1046.36 232.267 1046.89 233.082 1047.16 234.105ZM1051.89 244.162C1051.43 244.162 1051.03 243.997 1050.69 243.668C1050.36 243.332 1050.19 242.929 1050.19 242.457C1050.19 241.991 1050.36 241.594 1050.69 241.264C1051.03 240.929 1051.43 240.761 1051.89 240.761C1052.36 240.761 1052.76 240.929 1053.09 241.264C1053.43 241.594 1053.6 241.991 1053.6 242.457C1053.6 242.77 1053.52 243.057 1053.36 243.318C1053.2 243.574 1053 243.778 1052.74 243.932C1052.49 244.085 1052.2 244.162 1051.89 244.162Z" fill="#E0E0E0"/>
<path d="M1073.64 244.273L1064.88 235.511C1064.18 234.812 1063.71 234 1063.48 233.074C1063.25 232.148 1063.26 231.227 1063.49 230.312C1063.72 229.392 1064.19 228.591 1064.88 227.909C1065.59 227.21 1066.4 226.747 1067.31 226.52C1068.22 226.287 1069.13 226.287 1070.04 226.52C1070.96 226.753 1071.77 227.216 1072.48 227.909L1073.64 229.034L1074.8 227.909C1075.51 227.216 1076.33 226.753 1077.24 226.52C1078.15 226.287 1079.05 226.287 1079.96 226.52C1080.88 226.747 1081.69 227.21 1082.4 227.909C1083.09 228.591 1083.56 229.392 1083.79 230.312C1084.02 231.227 1084.02 232.148 1083.79 233.074C1083.56 234 1083.1 234.812 1082.4 235.511L1073.64 244.273Z" fill="#FD5C5C"/>
<path d="M348 210C348 214.243 346.314 218.313 343.314 221.314C340.313 224.314 336.243 226 332 226C327.757 226 323.687 224.314 320.686 221.314C317.686 218.313 316 214.243 316 210L332 210H348Z" fill="#E4E4E4"/>
<path d="M479.751 187.975C480.535 193.218 477.334 198.93 470.558 204.8C463.805 210.65 453.615 216.552 440.727 222.163C414.958 233.382 378.509 243.392 337.494 249.522C296.478 255.651 258.696 256.735 230.773 253.541C216.807 251.943 205.337 249.279 197.168 245.658C188.972 242.026 184.241 237.499 183.458 232.256C182.674 227.012 185.875 221.3 192.65 215.431C199.404 209.58 209.594 203.679 222.482 198.068C248.251 186.849 284.699 176.839 325.715 170.709C366.731 164.579 404.513 163.496 432.436 166.69C446.401 168.287 457.872 170.952 466.041 174.572C474.237 178.204 478.967 182.731 479.751 187.975Z" stroke="#C0C0C0"/>
<circle cx="215" cy="201" r="7" fill="#E4E4E4"/>
<path d="M369.991 209.644C370.01 210.761 369.243 211.995 367.513 213.254C365.799 214.5 363.238 215.694 359.919 216.741C353.289 218.834 343.739 220.31 332.175 220.512C320.61 220.713 311.393 219.565 305.073 217.701C301.91 216.768 299.5 215.664 297.886 214.481C296.264 213.291 295.522 212.082 295.502 210.944C295.482 209.809 296.179 208.602 297.756 207.396C299.327 206.195 301.697 205.058 304.828 204.066C311.082 202.084 320.258 200.717 331.826 200.515C343.393 200.313 352.989 201.352 359.688 203.11C363.041 203.991 365.641 205.044 367.395 206.191C369.166 207.35 369.971 208.531 369.991 209.644Z" stroke="#C0C0C0"/>
<path d="M316 210C316 205.757 317.686 201.687 320.686 198.686C323.687 195.686 327.757 194 332 194C336.243 194 340.313 195.686 343.314 198.686C346.314 201.687 348 205.757 348 210L332 210H316Z" fill="#E4E4E4"/>
<path d="M299 210C299 211.657 297.657 213 296 213C294.343 213 293 211.657 293 210C293 208.343 294.343 207 296 207C297.657 207 299 208.343 299 210Z" fill="#E4E4E4"/>
</svg>
