<svg width="1200" height="420" viewBox="0 0 1200 420" fill="none" xmlns="http://www.w3.org/2000/svg">
<rect width="1200" height="420" rx="16" fill="#31353A"/>
<path d="M642.857 171.909H644.838V180.519C644.838 181.435 644.623 182.247 644.192 182.955C643.762 183.658 643.157 184.212 642.377 184.616C641.597 185.017 640.683 185.217 639.635 185.217C638.591 185.217 637.679 185.017 636.899 184.616C636.119 184.212 635.514 183.658 635.084 182.955C634.653 182.247 634.438 181.435 634.438 180.519V171.909H636.413V180.359C636.413 180.952 636.543 181.478 636.803 181.938C637.067 182.398 637.44 182.761 637.922 183.025C638.403 183.285 638.974 183.415 639.635 183.415C640.3 183.415 640.873 183.285 641.354 183.025C641.84 182.761 642.211 182.398 642.467 181.938C642.727 181.478 642.857 180.952 642.857 180.359V171.909ZM654.914 177.579L653.181 177.886C653.109 177.664 652.994 177.453 652.836 177.253C652.683 177.053 652.474 176.888 652.21 176.761C651.945 176.633 651.615 176.569 651.219 176.569C650.678 176.569 650.226 176.69 649.864 176.933C649.502 177.172 649.32 177.481 649.32 177.86C649.32 178.188 649.442 178.452 649.685 178.653C649.928 178.853 650.32 179.017 650.861 179.145L652.421 179.503C653.324 179.712 653.997 180.033 654.441 180.468C654.884 180.903 655.105 181.467 655.105 182.162C655.105 182.75 654.935 183.274 654.594 183.734C654.257 184.19 653.786 184.548 653.181 184.808C652.58 185.068 651.884 185.198 651.091 185.198C649.992 185.198 649.095 184.964 648.4 184.495C647.705 184.022 647.279 183.351 647.122 182.482L648.969 182.2C649.084 182.682 649.32 183.046 649.678 183.293C650.036 183.536 650.503 183.658 651.078 183.658C651.705 183.658 652.205 183.528 652.58 183.268C652.955 183.004 653.143 182.682 653.143 182.303C653.143 181.996 653.028 181.738 652.798 181.529C652.572 181.32 652.225 181.163 651.756 181.056L650.094 180.692C649.178 180.483 648.5 180.151 648.061 179.695C647.627 179.239 647.409 178.661 647.409 177.962C647.409 177.383 647.571 176.876 647.895 176.441C648.219 176.006 648.666 175.668 649.237 175.425C649.808 175.178 650.463 175.054 651.2 175.054C652.261 175.054 653.096 175.284 653.705 175.744C654.315 176.2 654.718 176.812 654.914 177.579ZM661.438 185.198C660.471 185.198 659.638 184.991 658.939 184.578C658.244 184.161 657.707 183.575 657.328 182.82C656.953 182.062 656.766 181.173 656.766 180.155C656.766 179.149 656.953 178.263 657.328 177.496C657.707 176.729 658.236 176.13 658.913 175.7C659.595 175.269 660.392 175.054 661.304 175.054C661.858 175.054 662.395 175.146 662.915 175.329C663.435 175.512 663.901 175.8 664.315 176.192C664.728 176.584 665.054 177.093 665.293 177.719C665.531 178.342 665.651 179.098 665.651 179.989V180.666H657.846V179.234H663.778C663.778 178.732 663.675 178.286 663.471 177.898C663.266 177.506 662.979 177.197 662.608 176.972C662.241 176.746 661.811 176.633 661.317 176.633C660.78 176.633 660.311 176.765 659.911 177.029C659.514 177.289 659.207 177.63 658.99 178.052C658.777 178.469 658.67 178.923 658.67 179.413V180.532C658.67 181.188 658.786 181.746 659.016 182.207C659.25 182.667 659.576 183.018 659.994 183.261C660.411 183.5 660.899 183.619 661.457 183.619C661.82 183.619 662.15 183.568 662.448 183.466C662.746 183.359 663.004 183.202 663.222 182.993C663.439 182.784 663.605 182.526 663.72 182.219L665.529 182.545C665.384 183.078 665.124 183.545 664.749 183.945C664.379 184.342 663.912 184.651 663.349 184.872C662.791 185.089 662.154 185.198 661.438 185.198ZM676.766 185.198C675.799 185.198 674.966 184.991 674.267 184.578C673.572 184.161 673.036 183.575 672.656 182.82C672.281 182.062 672.094 181.173 672.094 180.155C672.094 179.149 672.281 178.263 672.656 177.496C673.036 176.729 673.564 176.13 674.241 175.7C674.923 175.269 675.72 175.054 676.632 175.054C677.186 175.054 677.723 175.146 678.243 175.329C678.763 175.512 679.229 175.8 679.643 176.192C680.056 176.584 680.382 177.093 680.621 177.719C680.859 178.342 680.979 179.098 680.979 179.989V180.666H673.174V179.234H679.106C679.106 178.732 679.004 178.286 678.799 177.898C678.594 177.506 678.307 177.197 677.936 176.972C677.57 176.746 677.139 176.633 676.645 176.633C676.108 176.633 675.639 176.765 675.239 177.029C674.842 177.289 674.536 177.63 674.318 178.052C674.105 178.469 673.999 178.923 673.999 179.413V180.532C673.999 181.188 674.114 181.746 674.344 182.207C674.578 182.667 674.904 183.018 675.322 183.261C675.739 183.5 676.227 183.619 676.786 183.619C677.148 183.619 677.478 183.568 677.776 183.466C678.075 183.359 678.332 183.202 678.55 182.993C678.767 182.784 678.933 182.526 679.048 182.219L680.857 182.545C680.712 183.078 680.452 183.545 680.077 183.945C679.707 184.342 679.24 184.651 678.678 184.872C678.119 185.089 677.482 185.198 676.766 185.198ZM685.01 179.17V185H683.099V175.182H684.934V176.78H685.055C685.281 176.26 685.635 175.842 686.116 175.527C686.602 175.212 687.214 175.054 687.951 175.054C688.62 175.054 689.206 175.195 689.709 175.476C690.211 175.753 690.601 176.166 690.878 176.716C691.155 177.266 691.294 177.945 691.294 178.755V185H689.383V178.985C689.383 178.273 689.197 177.717 688.827 177.317C688.456 176.912 687.947 176.71 687.299 176.71C686.856 176.71 686.461 176.805 686.116 176.997C685.775 177.189 685.505 177.47 685.305 177.841C685.108 178.207 685.01 178.651 685.01 179.17ZM697.974 188.886C697.194 188.886 696.523 188.784 695.96 188.58C695.402 188.375 694.946 188.104 694.592 187.768C694.238 187.431 693.974 187.063 693.8 186.662L695.442 185.984C695.557 186.172 695.711 186.37 695.903 186.579C696.099 186.792 696.363 186.973 696.695 187.122C697.032 187.271 697.464 187.346 697.993 187.346C698.717 187.346 699.316 187.169 699.789 186.815C700.262 186.466 700.498 185.908 700.498 185.141V183.21H700.377C700.262 183.419 700.096 183.651 699.878 183.907C699.665 184.163 699.371 184.384 698.996 184.572C698.621 184.759 698.133 184.853 697.532 184.853C696.757 184.853 696.058 184.672 695.436 184.31C694.818 183.943 694.328 183.404 693.966 182.692C693.608 181.977 693.429 181.097 693.429 180.053C693.429 179.009 693.606 178.114 693.959 177.368C694.317 176.622 694.807 176.051 695.43 175.655C696.052 175.254 696.757 175.054 697.545 175.054C698.155 175.054 698.647 175.156 699.022 175.361C699.397 175.561 699.689 175.795 699.898 176.064C700.111 176.332 700.275 176.569 700.39 176.773H700.53V175.182H702.403V185.217C702.403 186.061 702.207 186.754 701.815 187.295C701.423 187.836 700.893 188.237 700.224 188.496C699.559 188.756 698.809 188.886 697.974 188.886ZM697.954 183.268C698.504 183.268 698.969 183.14 699.348 182.884C699.731 182.624 700.021 182.254 700.217 181.772C700.417 181.286 700.518 180.705 700.518 180.027C700.518 179.366 700.42 178.785 700.224 178.282C700.028 177.779 699.74 177.387 699.361 177.106C698.981 176.82 698.513 176.678 697.954 176.678C697.379 176.678 696.9 176.827 696.516 177.125C696.133 177.419 695.843 177.82 695.647 178.327C695.455 178.834 695.359 179.401 695.359 180.027C695.359 180.67 695.457 181.235 695.653 181.721C695.849 182.207 696.139 182.586 696.523 182.859C696.91 183.131 697.388 183.268 697.954 183.268ZM704.966 185V175.182H706.878V185H704.966ZM705.932 173.667C705.599 173.667 705.314 173.556 705.075 173.335C704.841 173.109 704.724 172.84 704.724 172.529C704.724 172.214 704.841 171.945 705.075 171.724C705.314 171.498 705.599 171.385 705.932 171.385C706.264 171.385 706.547 171.498 706.782 171.724C707.02 171.945 707.14 172.214 707.14 172.529C707.14 172.84 707.02 173.109 706.782 173.335C706.547 173.556 706.264 173.667 705.932 173.667ZM711.36 179.17V185H709.449V175.182H711.283V176.78H711.405C711.631 176.26 711.984 175.842 712.466 175.527C712.952 175.212 713.563 175.054 714.3 175.054C714.969 175.054 715.555 175.195 716.058 175.476C716.561 175.753 716.951 176.166 717.228 176.716C717.505 177.266 717.643 177.945 717.643 178.755V185H715.732V178.985C715.732 178.273 715.547 177.717 715.176 177.317C714.805 176.912 714.296 176.71 713.648 176.71C713.205 176.71 712.811 176.805 712.466 176.997C712.125 177.189 711.854 177.47 711.654 177.841C711.458 178.207 711.36 178.651 711.36 179.17ZM724.438 185.198C723.471 185.198 722.638 184.991 721.939 184.578C721.244 184.161 720.707 183.575 720.328 182.82C719.953 182.062 719.766 181.173 719.766 180.155C719.766 179.149 719.953 178.263 720.328 177.496C720.707 176.729 721.236 176.13 721.913 175.7C722.595 175.269 723.392 175.054 724.304 175.054C724.858 175.054 725.395 175.146 725.915 175.329C726.435 175.512 726.901 175.8 727.315 176.192C727.728 176.584 728.054 177.093 728.293 177.719C728.531 178.342 728.651 179.098 728.651 179.989V180.666H720.846V179.234H726.778C726.778 178.732 726.675 178.286 726.471 177.898C726.266 177.506 725.979 177.197 725.608 176.972C725.241 176.746 724.811 176.633 724.317 176.633C723.78 176.633 723.311 176.765 722.911 177.029C722.514 177.289 722.207 177.63 721.99 178.052C721.777 178.469 721.67 178.923 721.67 179.413V180.532C721.67 181.188 721.786 181.746 722.016 182.207C722.25 182.667 722.576 183.018 722.994 183.261C723.411 183.5 723.899 183.619 724.457 183.619C724.82 183.619 725.15 183.568 725.448 183.466C725.746 183.359 726.004 183.202 726.222 182.993C726.439 182.784 726.605 182.526 726.72 182.219L728.529 182.545C728.384 183.078 728.124 183.545 727.749 183.945C727.379 184.342 726.912 184.651 726.349 184.872C725.791 185.089 725.154 185.198 724.438 185.198ZM735.003 185.198C734.035 185.198 733.202 184.991 732.503 184.578C731.809 184.161 731.272 183.575 730.893 182.82C730.518 182.062 730.33 181.173 730.33 180.155C730.33 179.149 730.518 178.263 730.893 177.496C731.272 176.729 731.8 176.13 732.478 175.7C733.16 175.269 733.956 175.054 734.868 175.054C735.422 175.054 735.959 175.146 736.479 175.329C736.999 175.512 737.466 175.8 737.879 176.192C738.292 176.584 738.618 177.093 738.857 177.719C739.096 178.342 739.215 179.098 739.215 179.989V180.666H731.41V179.234H737.342C737.342 178.732 737.24 178.286 737.035 177.898C736.831 177.506 736.543 177.197 736.172 176.972C735.806 176.746 735.376 176.633 734.881 176.633C734.344 176.633 733.876 176.765 733.475 177.029C733.079 177.289 732.772 177.63 732.555 178.052C732.341 178.469 732.235 178.923 732.235 179.413V180.532C732.235 181.188 732.35 181.746 732.58 182.207C732.814 182.667 733.14 183.018 733.558 183.261C733.976 183.5 734.464 183.619 735.022 183.619C735.384 183.619 735.714 183.568 736.013 183.466C736.311 183.359 736.569 183.202 736.786 182.993C737.003 182.784 737.17 182.526 737.285 182.219L739.094 182.545C738.949 183.078 738.689 183.545 738.314 183.945C737.943 184.342 737.476 184.651 736.914 184.872C736.356 185.089 735.719 185.198 735.003 185.198ZM741.336 185V175.182H743.183V176.741H743.285C743.464 176.213 743.779 175.798 744.231 175.495C744.687 175.188 745.203 175.035 745.778 175.035C745.897 175.035 746.038 175.039 746.2 175.048C746.366 175.056 746.496 175.067 746.59 175.08V176.908C746.513 176.886 746.377 176.863 746.181 176.837C745.985 176.808 745.789 176.793 745.593 176.793C745.141 176.793 744.738 176.888 744.385 177.08C744.035 177.268 743.758 177.53 743.554 177.866C743.349 178.199 743.247 178.578 743.247 179.004V185H741.336ZM748.244 185V175.182H750.155V185H748.244ZM749.209 173.667C748.877 173.667 748.591 173.556 748.352 173.335C748.118 173.109 748.001 172.84 748.001 172.529C748.001 172.214 748.118 171.945 748.352 171.724C748.591 171.498 748.877 171.385 749.209 171.385C749.541 171.385 749.825 171.498 750.059 171.724C750.298 171.945 750.417 172.214 750.417 172.529C750.417 172.84 750.298 173.109 750.059 173.335C749.825 173.556 749.541 173.667 749.209 173.667ZM754.637 179.17V185H752.726V175.182H754.561V176.78H754.682C754.908 176.26 755.262 175.842 755.743 175.527C756.229 175.212 756.841 175.054 757.578 175.054C758.247 175.054 758.833 175.195 759.336 175.476C759.838 175.753 760.228 176.166 760.505 176.716C760.782 177.266 760.921 177.945 760.921 178.755V185H759.01V178.985C759.01 178.273 758.824 177.717 758.453 177.317C758.083 176.912 757.574 176.71 756.926 176.71C756.483 176.71 756.088 176.805 755.743 176.997C755.402 177.189 755.132 177.47 754.931 177.841C754.735 178.207 754.637 178.651 754.637 179.17ZM767.6 188.886C766.821 188.886 766.15 188.784 765.587 188.58C765.029 188.375 764.573 188.104 764.219 187.768C763.865 187.431 763.601 187.063 763.426 186.662L765.069 185.984C765.184 186.172 765.338 186.37 765.529 186.579C765.725 186.792 765.99 186.973 766.322 187.122C766.659 187.271 767.091 187.346 767.62 187.346C768.344 187.346 768.943 187.169 769.416 186.815C769.889 186.466 770.125 185.908 770.125 185.141V183.21H770.004C769.889 183.419 769.723 183.651 769.505 183.907C769.292 184.163 768.998 184.384 768.623 184.572C768.248 184.759 767.76 184.853 767.159 184.853C766.384 184.853 765.685 184.672 765.063 184.31C764.445 183.943 763.955 183.404 763.593 182.692C763.235 181.977 763.056 181.097 763.056 180.053C763.056 179.009 763.233 178.114 763.586 177.368C763.944 176.622 764.434 176.051 765.056 175.655C765.679 175.254 766.384 175.054 767.172 175.054C767.782 175.054 768.274 175.156 768.649 175.361C769.024 175.561 769.316 175.795 769.525 176.064C769.738 176.332 769.902 176.569 770.017 176.773H770.157V175.182H772.03V185.217C772.03 186.061 771.834 186.754 771.442 187.295C771.05 187.836 770.52 188.237 769.85 188.496C769.186 188.756 768.436 188.886 767.6 188.886ZM767.581 183.268C768.131 183.268 768.596 183.14 768.975 182.884C769.358 182.624 769.648 182.254 769.844 181.772C770.044 181.286 770.145 180.705 770.145 180.027C770.145 179.366 770.047 178.785 769.85 178.282C769.654 177.779 769.367 177.387 768.988 177.106C768.608 176.82 768.14 176.678 767.581 176.678C767.006 176.678 766.527 176.827 766.143 177.125C765.76 177.419 765.47 177.82 765.274 178.327C765.082 178.834 764.986 179.401 764.986 180.027C764.986 180.67 765.084 181.235 765.28 181.721C765.476 182.207 765.766 182.586 766.15 182.859C766.537 183.131 767.015 183.268 767.581 183.268ZM779.357 185V175.182H781.192V176.78H781.313C781.518 176.239 781.852 175.817 782.317 175.514C782.781 175.207 783.337 175.054 783.985 175.054C784.641 175.054 785.191 175.207 785.634 175.514C786.081 175.821 786.412 176.243 786.625 176.78H786.727C786.961 176.256 787.334 175.838 787.846 175.527C788.357 175.212 788.966 175.054 789.674 175.054C790.564 175.054 791.291 175.333 791.854 175.891C792.42 176.45 792.704 177.291 792.704 178.416V185H790.792V178.595C790.792 177.93 790.611 177.449 790.249 177.151C789.887 176.852 789.454 176.703 788.952 176.703C788.329 176.703 787.846 176.895 787.501 177.278C787.155 177.658 786.983 178.146 786.983 178.742V185H785.078V178.474C785.078 177.941 784.912 177.513 784.579 177.189C784.247 176.865 783.814 176.703 783.282 176.703C782.92 176.703 782.585 176.799 782.278 176.991C781.976 177.178 781.731 177.44 781.543 177.777C781.36 178.114 781.268 178.504 781.268 178.947V185H779.357ZM799.497 185.198C798.529 185.198 797.696 184.991 796.998 184.578C796.303 184.161 795.766 183.575 795.387 182.82C795.012 182.062 794.824 181.173 794.824 180.155C794.824 179.149 795.012 178.263 795.387 177.496C795.766 176.729 796.294 176.13 796.972 175.7C797.654 175.269 798.451 175.054 799.363 175.054C799.917 175.054 800.453 175.146 800.973 175.329C801.493 175.512 801.96 175.8 802.373 176.192C802.787 176.584 803.113 177.093 803.351 177.719C803.59 178.342 803.709 179.098 803.709 179.989V180.666H795.904V179.234H801.836C801.836 178.732 801.734 178.286 801.529 177.898C801.325 177.506 801.037 177.197 800.667 176.972C800.3 176.746 799.87 176.633 799.375 176.633C798.838 176.633 798.37 176.765 797.969 177.029C797.573 177.289 797.266 177.63 797.049 178.052C796.836 178.469 796.729 178.923 796.729 179.413V180.532C796.729 181.188 796.844 181.746 797.074 182.207C797.309 182.667 797.635 183.018 798.052 183.261C798.47 183.5 798.958 183.619 799.516 183.619C799.878 183.619 800.208 183.568 800.507 183.466C800.805 183.359 801.063 183.202 801.28 182.993C801.498 182.784 801.664 182.526 801.779 182.219L803.588 182.545C803.443 183.078 803.183 183.545 802.808 183.945C802.437 184.342 801.971 184.651 801.408 184.872C800.85 185.089 800.213 185.198 799.497 185.198ZM810.413 175.182V176.716H805.05V175.182H810.413ZM806.488 172.83H808.399V182.117C808.399 182.488 808.455 182.767 808.566 182.955C808.676 183.138 808.819 183.263 808.994 183.332C809.173 183.396 809.367 183.428 809.575 183.428C809.729 183.428 809.863 183.417 809.978 183.396C810.093 183.374 810.183 183.357 810.247 183.344L810.592 184.923C810.481 184.966 810.323 185.009 810.119 185.051C809.914 185.098 809.659 185.124 809.352 185.128C808.849 185.136 808.38 185.047 807.945 184.859C807.511 184.672 807.159 184.382 806.891 183.99C806.622 183.598 806.488 183.106 806.488 182.513V172.83ZM814.649 179.17V185H812.738V171.909H814.624V176.78H814.745C814.975 176.251 815.327 175.832 815.8 175.521C816.273 175.21 816.891 175.054 817.653 175.054C818.327 175.054 818.915 175.192 819.418 175.469C819.925 175.746 820.317 176.16 820.594 176.71C820.875 177.255 821.016 177.937 821.016 178.755V185H819.104V178.985C819.104 178.265 818.919 177.707 818.548 177.31C818.178 176.91 817.662 176.71 817.001 176.71C816.55 176.71 816.145 176.805 815.787 176.997C815.433 177.189 815.154 177.47 814.95 177.841C814.749 178.207 814.649 178.651 814.649 179.17ZM827.702 185.198C826.781 185.198 825.978 184.987 825.292 184.565C824.606 184.143 824.073 183.553 823.694 182.795C823.315 182.036 823.125 181.15 823.125 180.136C823.125 179.117 823.315 178.227 823.694 177.464C824.073 176.701 824.606 176.109 825.292 175.687C825.978 175.265 826.781 175.054 827.702 175.054C828.622 175.054 829.425 175.265 830.112 175.687C830.798 176.109 831.33 176.701 831.71 177.464C832.089 178.227 832.278 179.117 832.278 180.136C832.278 181.15 832.089 182.036 831.71 182.795C831.33 183.553 830.798 184.143 830.112 184.565C829.425 184.987 828.622 185.198 827.702 185.198ZM827.708 183.594C828.305 183.594 828.799 183.436 829.191 183.121C829.583 182.805 829.873 182.386 830.06 181.862C830.252 181.337 830.348 180.76 830.348 180.129C830.348 179.503 830.252 178.928 830.06 178.403C829.873 177.875 829.583 177.451 829.191 177.131C828.799 176.812 828.305 176.652 827.708 176.652C827.107 176.652 826.609 176.812 826.212 177.131C825.82 177.451 825.528 177.875 825.337 178.403C825.149 178.928 825.055 179.503 825.055 180.129C825.055 180.76 825.149 181.337 825.337 181.862C825.528 182.386 825.82 182.805 826.212 183.121C826.609 183.436 827.107 183.594 827.708 183.594ZM838.087 185.192C837.295 185.192 836.587 184.989 835.965 184.585C835.347 184.175 834.861 183.594 834.508 182.839C834.158 182.081 833.983 181.171 833.983 180.11C833.983 179.049 834.16 178.141 834.514 177.387C834.872 176.633 835.362 176.055 835.984 175.655C836.606 175.254 837.312 175.054 838.1 175.054C838.709 175.054 839.199 175.156 839.57 175.361C839.945 175.561 840.235 175.795 840.439 176.064C840.648 176.332 840.81 176.569 840.925 176.773H841.04V171.909H842.952V185H841.085V183.472H840.925C840.81 183.681 840.644 183.92 840.427 184.188C840.214 184.457 839.92 184.691 839.545 184.891C839.17 185.092 838.684 185.192 838.087 185.192ZM838.509 183.562C839.059 183.562 839.523 183.417 839.903 183.127C840.286 182.833 840.576 182.426 840.772 181.906C840.972 181.386 841.072 180.781 841.072 180.091C841.072 179.409 840.974 178.812 840.778 178.301C840.582 177.79 840.295 177.391 839.915 177.106C839.536 176.82 839.067 176.678 838.509 176.678C837.934 176.678 837.454 176.827 837.071 177.125C836.687 177.423 836.398 177.83 836.202 178.346C836.01 178.862 835.914 179.443 835.914 180.091C835.914 180.747 836.012 181.337 836.208 181.862C836.404 182.386 836.694 182.801 837.077 183.108C837.465 183.411 837.942 183.562 838.509 183.562ZM853.037 177.579L851.304 177.886C851.232 177.664 851.117 177.453 850.959 177.253C850.806 177.053 850.597 176.888 850.333 176.761C850.069 176.633 849.738 176.569 849.342 176.569C848.801 176.569 848.349 176.69 847.987 176.933C847.625 177.172 847.444 177.481 847.444 177.86C847.444 178.188 847.565 178.452 847.808 178.653C848.051 178.853 848.443 179.017 848.984 179.145L850.544 179.503C851.447 179.712 852.12 180.033 852.564 180.468C853.007 180.903 853.228 181.467 853.228 182.162C853.228 182.75 853.058 183.274 852.717 183.734C852.38 184.19 851.909 184.548 851.304 184.808C850.703 185.068 850.007 185.198 849.214 185.198C848.115 185.198 847.218 184.964 846.523 184.495C845.828 184.022 845.402 183.351 845.245 182.482L847.092 182.2C847.207 182.682 847.444 183.046 847.801 183.293C848.159 183.536 848.626 183.658 849.201 183.658C849.828 183.658 850.328 183.528 850.703 183.268C851.078 183.004 851.266 182.682 851.266 182.303C851.266 181.996 851.151 181.738 850.921 181.529C850.695 181.32 850.348 181.163 849.879 181.056L848.217 180.692C847.301 180.483 846.623 180.151 846.184 179.695C845.75 179.239 845.532 178.661 845.532 177.962C845.532 177.383 845.694 176.876 846.018 176.441C846.342 176.006 846.789 175.668 847.36 175.425C847.931 175.178 848.586 175.054 849.323 175.054C850.384 175.054 851.219 175.284 851.828 175.744C852.438 176.2 852.841 176.812 853.037 177.579ZM864.676 175.182V176.716H859.314V175.182H864.676ZM860.752 172.83H862.663V182.117C862.663 182.488 862.718 182.767 862.829 182.955C862.94 183.138 863.083 183.263 863.257 183.332C863.436 183.396 863.63 183.428 863.839 183.428C863.993 183.428 864.127 183.417 864.242 183.396C864.357 183.374 864.446 183.357 864.51 183.344L864.855 184.923C864.745 184.966 864.587 185.009 864.382 185.051C864.178 185.098 863.922 185.124 863.615 185.128C863.113 185.136 862.644 185.047 862.209 184.859C861.775 184.672 861.423 184.382 861.154 183.99C860.886 183.598 860.752 183.106 860.752 182.513V172.83ZM870.821 185.198C869.9 185.198 869.097 184.987 868.411 184.565C867.725 184.143 867.192 183.553 866.813 182.795C866.434 182.036 866.244 181.15 866.244 180.136C866.244 179.117 866.434 178.227 866.813 177.464C867.192 176.701 867.725 176.109 868.411 175.687C869.097 175.265 869.9 175.054 870.821 175.054C871.741 175.054 872.545 175.265 873.231 175.687C873.917 176.109 874.449 176.701 874.829 177.464C875.208 178.227 875.398 179.117 875.398 180.136C875.398 181.15 875.208 182.036 874.829 182.795C874.449 183.553 873.917 184.143 873.231 184.565C872.545 184.987 871.741 185.198 870.821 185.198ZM870.827 183.594C871.424 183.594 871.918 183.436 872.31 183.121C872.702 182.805 872.992 182.386 873.18 181.862C873.371 181.337 873.467 180.76 873.467 180.129C873.467 179.503 873.371 178.928 873.18 178.403C872.992 177.875 872.702 177.451 872.31 177.131C871.918 176.812 871.424 176.652 870.827 176.652C870.226 176.652 869.728 176.812 869.331 177.131C868.939 177.451 868.648 177.875 868.456 178.403C868.268 178.928 868.175 179.503 868.175 180.129C868.175 180.76 868.268 181.337 868.456 181.862C868.648 182.386 868.939 182.805 869.331 183.121C869.728 183.436 870.226 183.594 870.827 183.594ZM889.652 177.579L887.92 177.886C887.847 177.664 887.732 177.453 887.574 177.253C887.421 177.053 887.212 176.888 886.948 176.761C886.684 176.633 886.354 176.569 885.957 176.569C885.416 176.569 884.964 176.69 884.602 176.933C884.24 177.172 884.059 177.481 884.059 177.86C884.059 178.188 884.18 178.452 884.423 178.653C884.666 178.853 885.058 179.017 885.599 179.145L887.159 179.503C888.062 179.712 888.736 180.033 889.179 180.468C889.622 180.903 889.844 181.467 889.844 182.162C889.844 182.75 889.673 183.274 889.332 183.734C888.996 184.19 888.525 184.548 887.92 184.808C887.319 185.068 886.622 185.198 885.829 185.198C884.73 185.198 883.833 184.964 883.138 184.495C882.444 184.022 882.018 183.351 881.86 182.482L883.707 182.2C883.822 182.682 884.059 183.046 884.417 183.293C884.775 183.536 885.241 183.658 885.817 183.658C886.443 183.658 886.944 183.528 887.319 183.268C887.694 183.004 887.881 182.682 887.881 182.303C887.881 181.996 887.766 181.738 887.536 181.529C887.31 181.32 886.963 181.163 886.494 181.056L884.832 180.692C883.916 180.483 883.238 180.151 882.8 179.695C882.365 179.239 882.148 178.661 882.148 177.962C882.148 177.383 882.309 176.876 882.633 176.441C882.957 176.006 883.405 175.668 883.976 175.425C884.547 175.178 885.201 175.054 885.938 175.054C886.999 175.054 887.834 175.284 888.444 175.744C889.053 176.2 889.456 176.812 889.652 177.579ZM896.081 185.198C895.16 185.198 894.357 184.987 893.671 184.565C892.985 184.143 892.452 183.553 892.073 182.795C891.694 182.036 891.504 181.15 891.504 180.136C891.504 179.117 891.694 178.227 892.073 177.464C892.452 176.701 892.985 176.109 893.671 175.687C894.357 175.265 895.16 175.054 896.081 175.054C897.001 175.054 897.804 175.265 898.49 175.687C899.176 176.109 899.709 176.701 900.088 177.464C900.468 178.227 900.657 179.117 900.657 180.136C900.657 181.15 900.468 182.036 900.088 182.795C899.709 183.553 899.176 184.143 898.49 184.565C897.804 184.987 897.001 185.198 896.081 185.198ZM896.087 183.594C896.684 183.594 897.178 183.436 897.57 183.121C897.962 182.805 898.252 182.386 898.439 181.862C898.631 181.337 898.727 180.76 898.727 180.129C898.727 179.503 898.631 178.928 898.439 178.403C898.252 177.875 897.962 177.451 897.57 177.131C897.178 176.812 896.684 176.652 896.087 176.652C895.486 176.652 894.988 176.812 894.591 177.131C894.199 177.451 893.907 177.875 893.716 178.403C893.528 178.928 893.434 179.503 893.434 180.129C893.434 180.76 893.528 181.337 893.716 181.862C893.907 182.386 894.199 182.805 894.591 183.121C894.988 183.436 895.486 183.594 896.087 183.594ZM904.702 171.909V185H902.791V171.909H904.702ZM915.672 175.182L912.112 185H910.066L906.5 175.182H908.551L911.038 182.737H911.14L913.62 175.182H915.672ZM921.366 185.198C920.399 185.198 919.566 184.991 918.867 184.578C918.172 184.161 917.635 183.575 917.256 182.82C916.881 182.062 916.693 181.173 916.693 180.155C916.693 179.149 916.881 178.263 917.256 177.496C917.635 176.729 918.164 176.13 918.841 175.7C919.523 175.269 920.32 175.054 921.232 175.054C921.786 175.054 922.323 175.146 922.843 175.329C923.362 175.512 923.829 175.8 924.242 176.192C924.656 176.584 924.982 177.093 925.22 177.719C925.459 178.342 925.578 179.098 925.578 179.989V180.666H917.774V179.234H923.705C923.705 178.732 923.603 178.286 923.399 177.898C923.194 177.506 922.906 177.197 922.536 176.972C922.169 176.746 921.739 176.633 921.244 176.633C920.708 176.633 920.239 176.765 919.838 177.029C919.442 177.289 919.135 177.63 918.918 178.052C918.705 178.469 918.598 178.923 918.598 179.413V180.532C918.598 181.188 918.713 181.746 918.943 182.207C919.178 182.667 919.504 183.018 919.921 183.261C920.339 183.5 920.827 183.619 921.385 183.619C921.747 183.619 922.078 183.568 922.376 183.466C922.674 183.359 922.932 183.202 923.149 182.993C923.367 182.784 923.533 182.526 923.648 182.219L925.457 182.545C925.312 183.078 925.052 183.545 924.677 183.945C924.306 184.342 923.84 184.651 923.277 184.872C922.719 185.089 922.082 185.198 921.366 185.198ZM936.598 185.198C935.648 185.198 934.83 184.983 934.144 184.553C933.462 184.118 932.938 183.519 932.571 182.756C932.205 181.994 932.021 181.12 932.021 180.136C932.021 179.138 932.209 178.259 932.584 177.496C932.959 176.729 933.487 176.13 934.169 175.7C934.851 175.269 935.654 175.054 936.579 175.054C937.325 175.054 937.99 175.192 938.573 175.469C939.157 175.742 939.628 176.126 939.986 176.62C940.348 177.114 940.563 177.692 940.632 178.352H938.771C938.669 177.892 938.435 177.496 938.068 177.163C937.706 176.831 937.22 176.665 936.611 176.665C936.078 176.665 935.612 176.805 935.211 177.087C934.815 177.364 934.506 177.76 934.284 178.276C934.063 178.787 933.952 179.392 933.952 180.091C933.952 180.807 934.061 181.425 934.278 181.945C934.495 182.464 934.802 182.867 935.198 183.153C935.599 183.438 936.07 183.581 936.611 183.581C936.973 183.581 937.301 183.515 937.595 183.383C937.894 183.246 938.143 183.053 938.343 182.801C938.548 182.55 938.691 182.247 938.771 181.893H940.632C940.563 182.528 940.357 183.095 940.012 183.594C939.666 184.092 939.204 184.484 938.624 184.77C938.049 185.055 937.374 185.198 936.598 185.198ZM946.811 185.198C945.891 185.198 945.087 184.987 944.401 184.565C943.715 184.143 943.183 183.553 942.803 182.795C942.424 182.036 942.234 181.15 942.234 180.136C942.234 179.117 942.424 178.227 942.803 177.464C943.183 176.701 943.715 176.109 944.401 175.687C945.087 175.265 945.891 175.054 946.811 175.054C947.732 175.054 948.535 175.265 949.221 175.687C949.907 176.109 950.44 176.701 950.819 177.464C951.198 178.227 951.388 179.117 951.388 180.136C951.388 181.15 951.198 182.036 950.819 182.795C950.44 183.553 949.907 184.143 949.221 184.565C948.535 184.987 947.732 185.198 946.811 185.198ZM946.817 183.594C947.414 183.594 947.908 183.436 948.3 183.121C948.692 182.805 948.982 182.386 949.17 181.862C949.362 181.337 949.457 180.76 949.457 180.129C949.457 179.503 949.362 178.928 949.17 178.403C948.982 177.875 948.692 177.451 948.3 177.131C947.908 176.812 947.414 176.652 946.817 176.652C946.217 176.652 945.718 176.812 945.322 177.131C944.93 177.451 944.638 177.875 944.446 178.403C944.259 178.928 944.165 179.503 944.165 180.129C944.165 180.76 944.259 181.337 944.446 181.862C944.638 182.386 944.93 182.805 945.322 183.121C945.718 183.436 946.217 183.594 946.817 183.594ZM953.521 185V175.182H955.356V176.78H955.477C955.682 176.239 956.016 175.817 956.481 175.514C956.945 175.207 957.501 175.054 958.149 175.054C958.805 175.054 959.355 175.207 959.798 175.514C960.246 175.821 960.576 176.243 960.789 176.78H960.891C961.126 176.256 961.498 175.838 962.01 175.527C962.521 175.212 963.131 175.054 963.838 175.054C964.729 175.054 965.455 175.333 966.018 175.891C966.584 176.45 966.868 177.291 966.868 178.416V185H964.956V178.595C964.956 177.93 964.775 177.449 964.413 177.151C964.051 176.852 963.618 176.703 963.116 176.703C962.493 176.703 962.01 176.895 961.665 177.278C961.319 177.658 961.147 178.146 961.147 178.742V185H959.242V178.474C959.242 177.941 959.076 177.513 958.743 177.189C958.411 176.865 957.979 176.703 957.446 176.703C957.084 176.703 956.749 176.799 956.442 176.991C956.14 177.178 955.895 177.44 955.707 177.777C955.524 178.114 955.432 178.504 955.432 178.947V185H953.521ZM969.429 188.682V175.182H971.296V176.773H971.456C971.566 176.569 971.726 176.332 971.935 176.064C972.144 175.795 972.434 175.561 972.804 175.361C973.175 175.156 973.665 175.054 974.275 175.054C975.067 175.054 975.775 175.254 976.397 175.655C977.019 176.055 977.507 176.633 977.86 177.387C978.218 178.141 978.397 179.049 978.397 180.11C978.397 181.171 978.221 182.081 977.867 182.839C977.513 183.594 977.027 184.175 976.409 184.585C975.792 184.989 975.086 185.192 974.294 185.192C973.697 185.192 973.209 185.092 972.83 184.891C972.455 184.691 972.161 184.457 971.948 184.188C971.735 183.92 971.571 183.681 971.456 183.472H971.341V188.682H969.429ZM971.302 180.091C971.302 180.781 971.402 181.386 971.603 181.906C971.803 182.426 972.093 182.833 972.472 183.127C972.851 183.417 973.316 183.562 973.865 183.562C974.436 183.562 974.914 183.411 975.297 183.108C975.681 182.801 975.971 182.386 976.167 181.862C976.367 181.337 976.467 180.747 976.467 180.091C976.467 179.443 976.369 178.862 976.173 178.346C975.981 177.83 975.691 177.423 975.304 177.125C974.92 176.827 974.441 176.678 973.865 176.678C973.311 176.678 972.843 176.82 972.459 177.106C972.08 177.391 971.792 177.79 971.596 178.301C971.4 178.812 971.302 179.409 971.302 180.091ZM982.45 171.909V185H980.539V171.909H982.45ZM989.253 185.198C988.285 185.198 987.452 184.991 986.753 184.578C986.059 184.161 985.522 183.575 985.143 182.82C984.768 182.062 984.58 181.173 984.58 180.155C984.58 179.149 984.768 178.263 985.143 177.496C985.522 176.729 986.05 176.13 986.728 175.7C987.41 175.269 988.206 175.054 989.118 175.054C989.672 175.054 990.209 175.146 990.729 175.329C991.249 175.512 991.716 175.8 992.129 176.192C992.542 176.584 992.868 177.093 993.107 177.719C993.346 178.342 993.465 179.098 993.465 179.989V180.666H985.66V179.234H991.592C991.592 178.732 991.49 178.286 991.285 177.898C991.081 177.506 990.793 177.197 990.422 176.972C990.056 176.746 989.626 176.633 989.131 176.633C988.594 176.633 988.126 176.765 987.725 177.029C987.329 177.289 987.022 177.63 986.805 178.052C986.591 178.469 986.485 178.923 986.485 179.413V180.532C986.485 181.188 986.6 181.746 986.83 182.207C987.064 182.667 987.39 183.018 987.808 183.261C988.226 183.5 988.714 183.619 989.272 183.619C989.634 183.619 989.964 183.568 990.263 183.466C990.561 183.359 990.819 183.202 991.036 182.993C991.253 182.784 991.42 182.526 991.535 182.219L993.344 182.545C993.199 183.078 992.939 183.545 992.564 183.945C992.193 184.342 991.726 184.651 991.164 184.872C990.606 185.089 989.969 185.198 989.253 185.198ZM996.866 175.182L999.032 179.004L1001.22 175.182H1003.31L1000.25 180.091L1003.33 185H1001.24L999.032 181.331L996.827 185H994.731L997.786 180.091L994.769 175.182H996.866ZM634.285 220.682V207.182H636.151V208.773H636.311C636.422 208.569 636.582 208.332 636.79 208.064C636.999 207.795 637.289 207.561 637.66 207.361C638.031 207.156 638.521 207.054 639.13 207.054C639.923 207.054 640.63 207.254 641.252 207.655C641.874 208.055 642.362 208.633 642.716 209.387C643.074 210.141 643.253 211.049 643.253 212.11C643.253 213.171 643.076 214.081 642.722 214.839C642.369 215.594 641.883 216.175 641.265 216.585C640.647 216.989 639.942 217.192 639.149 217.192C638.553 217.192 638.065 217.092 637.685 216.891C637.31 216.691 637.016 216.457 636.803 216.188C636.59 215.92 636.426 215.681 636.311 215.472H636.196V220.682H634.285ZM636.158 212.091C636.158 212.781 636.258 213.386 636.458 213.906C636.658 214.426 636.948 214.833 637.327 215.127C637.707 215.417 638.171 215.562 638.721 215.562C639.292 215.562 639.769 215.411 640.153 215.108C640.536 214.801 640.826 214.386 641.022 213.862C641.222 213.337 641.322 212.747 641.322 212.091C641.322 211.443 641.224 210.862 641.028 210.346C640.837 209.83 640.547 209.423 640.159 209.125C639.776 208.827 639.296 208.678 638.721 208.678C638.167 208.678 637.698 208.82 637.315 209.106C636.935 209.391 636.648 209.79 636.452 210.301C636.256 210.812 636.158 211.409 636.158 212.091ZM645.394 217V207.182H647.241V208.741H647.344C647.523 208.213 647.838 207.798 648.29 207.495C648.746 207.188 649.261 207.035 649.837 207.035C649.956 207.035 650.097 207.039 650.259 207.048C650.425 207.056 650.555 207.067 650.648 207.08V208.908C650.572 208.886 650.435 208.863 650.239 208.837C650.043 208.808 649.847 208.793 649.651 208.793C649.2 208.793 648.797 208.888 648.443 209.08C648.094 209.268 647.817 209.53 647.612 209.866C647.408 210.199 647.305 210.578 647.305 211.004V217H645.394ZM656.086 217.198C655.166 217.198 654.363 216.987 653.677 216.565C652.991 216.143 652.458 215.553 652.079 214.795C651.699 214.036 651.51 213.15 651.51 212.136C651.51 211.117 651.699 210.227 652.079 209.464C652.458 208.701 652.991 208.109 653.677 207.687C654.363 207.265 655.166 207.054 656.086 207.054C657.007 207.054 657.81 207.265 658.496 207.687C659.182 208.109 659.715 208.701 660.094 209.464C660.474 210.227 660.663 211.117 660.663 212.136C660.663 213.15 660.474 214.036 660.094 214.795C659.715 215.553 659.182 216.143 658.496 216.565C657.81 216.987 657.007 217.198 656.086 217.198ZM656.093 215.594C656.689 215.594 657.184 215.436 657.576 215.121C657.968 214.805 658.258 214.386 658.445 213.862C658.637 213.337 658.733 212.76 658.733 212.129C658.733 211.503 658.637 210.928 658.445 210.403C658.258 209.875 657.968 209.451 657.576 209.131C657.184 208.812 656.689 208.652 656.093 208.652C655.492 208.652 654.993 208.812 654.597 209.131C654.205 209.451 653.913 209.875 653.721 210.403C653.534 210.928 653.44 211.503 653.44 212.129C653.44 212.76 653.534 213.337 653.721 213.862C653.913 214.386 654.205 214.805 654.597 215.121C654.993 215.436 655.492 215.594 656.093 215.594ZM662.95 217V203.909H664.861V208.773H664.976C665.087 208.569 665.247 208.332 665.456 208.064C665.664 207.795 665.954 207.561 666.325 207.361C666.696 207.156 667.186 207.054 667.795 207.054C668.588 207.054 669.295 207.254 669.917 207.655C670.539 208.055 671.027 208.633 671.381 209.387C671.739 210.141 671.918 211.049 671.918 212.11C671.918 213.171 671.741 214.081 671.387 214.839C671.034 215.594 670.548 216.175 669.93 216.585C669.312 216.989 668.607 217.192 667.814 217.192C667.218 217.192 666.73 217.092 666.35 216.891C665.975 216.691 665.681 216.457 665.468 216.188C665.255 215.92 665.091 215.681 664.976 215.472H664.816V217H662.95ZM664.823 212.091C664.823 212.781 664.923 213.386 665.123 213.906C665.324 214.426 665.613 214.833 665.993 215.127C666.372 215.417 666.836 215.562 667.386 215.562C667.957 215.562 668.434 215.411 668.818 215.108C669.201 214.801 669.491 214.386 669.687 213.862C669.887 213.337 669.988 212.747 669.988 212.091C669.988 211.443 669.89 210.862 669.694 210.346C669.502 209.83 669.212 209.423 668.824 209.125C668.441 208.827 667.961 208.678 667.386 208.678C666.832 208.678 666.363 208.82 665.98 209.106C665.6 209.391 665.313 209.79 665.117 210.301C664.921 210.812 664.823 211.409 664.823 212.091ZM675.975 203.909V217H674.064V203.909H675.975ZM682.778 217.198C681.811 217.198 680.978 216.991 680.279 216.578C679.584 216.161 679.047 215.575 678.668 214.82C678.293 214.062 678.105 213.173 678.105 212.155C678.105 211.149 678.293 210.263 678.668 209.496C679.047 208.729 679.576 208.13 680.253 207.7C680.935 207.269 681.732 207.054 682.644 207.054C683.198 207.054 683.735 207.146 684.255 207.329C684.775 207.512 685.241 207.8 685.654 208.192C686.068 208.584 686.394 209.093 686.632 209.719C686.871 210.342 686.99 211.098 686.99 211.989V212.666H679.186V211.234H685.118C685.118 210.732 685.015 210.286 684.811 209.898C684.606 209.506 684.319 209.197 683.948 208.972C683.581 208.746 683.151 208.633 682.657 208.633C682.12 208.633 681.651 208.765 681.25 209.029C680.854 209.289 680.547 209.63 680.33 210.052C680.117 210.469 680.01 210.923 680.01 211.413V212.532C680.01 213.188 680.125 213.746 680.355 214.207C680.59 214.667 680.916 215.018 681.333 215.261C681.751 215.5 682.239 215.619 682.797 215.619C683.159 215.619 683.49 215.568 683.788 215.466C684.086 215.359 684.344 215.202 684.561 214.993C684.779 214.784 684.945 214.526 685.06 214.219L686.869 214.545C686.724 215.078 686.464 215.545 686.089 215.945C685.718 216.342 685.252 216.651 684.689 216.872C684.131 217.089 683.494 217.198 682.778 217.198ZM689.111 217V207.182H690.945V208.78H691.067C691.271 208.239 691.606 207.817 692.07 207.514C692.535 207.207 693.091 207.054 693.739 207.054C694.395 207.054 694.945 207.207 695.388 207.514C695.835 207.821 696.166 208.243 696.379 208.78H696.481C696.715 208.256 697.088 207.838 697.6 207.527C698.111 207.212 698.72 207.054 699.428 207.054C700.318 207.054 701.045 207.333 701.607 207.891C702.174 208.45 702.458 209.291 702.458 210.416V217H700.546V210.595C700.546 209.93 700.365 209.449 700.003 209.151C699.641 208.852 699.208 208.703 698.705 208.703C698.083 208.703 697.6 208.895 697.254 209.278C696.909 209.658 696.737 210.146 696.737 210.742V217H694.832V210.474C694.832 209.941 694.666 209.513 694.333 209.189C694.001 208.865 693.568 208.703 693.036 208.703C692.673 208.703 692.339 208.799 692.032 208.991C691.73 209.178 691.485 209.44 691.297 209.777C691.114 210.114 691.022 210.504 691.022 210.947V217H689.111ZM712.376 209.579L710.644 209.886C710.572 209.664 710.457 209.453 710.299 209.253C710.146 209.053 709.937 208.888 709.673 208.761C709.408 208.633 709.078 208.569 708.682 208.569C708.141 208.569 707.689 208.69 707.327 208.933C706.964 209.172 706.783 209.481 706.783 209.86C706.783 210.188 706.905 210.452 707.148 210.653C707.391 210.853 707.783 211.017 708.324 211.145L709.884 211.503C710.787 211.712 711.46 212.033 711.903 212.468C712.347 212.903 712.568 213.467 712.568 214.162C712.568 214.75 712.398 215.274 712.057 215.734C711.72 216.19 711.249 216.548 710.644 216.808C710.043 217.068 709.347 217.198 708.554 217.198C707.455 217.198 706.558 216.964 705.863 216.495C705.168 216.022 704.742 215.351 704.585 214.482L706.432 214.2C706.547 214.682 706.783 215.046 707.141 215.293C707.499 215.536 707.966 215.658 708.541 215.658C709.168 215.658 709.668 215.528 710.043 215.268C710.418 215.004 710.606 214.682 710.606 214.303C710.606 213.996 710.491 213.738 710.261 213.529C710.035 213.32 709.688 213.163 709.219 213.056L707.557 212.692C706.641 212.483 705.963 212.151 705.524 211.695C705.089 211.239 704.872 210.661 704.872 209.962C704.872 209.383 705.034 208.876 705.358 208.441C705.682 208.006 706.129 207.668 706.7 207.425C707.271 207.178 707.925 207.054 708.663 207.054C709.724 207.054 710.559 207.284 711.168 207.744C711.778 208.2 712.18 208.812 712.376 209.579ZM717.156 215.21L717.06 215.907C716.996 216.418 716.888 216.951 716.734 217.505C716.585 218.063 716.43 218.581 716.268 219.058C716.11 219.536 715.98 219.915 715.878 220.196H714.523C714.578 219.932 714.655 219.574 714.753 219.122C714.851 218.675 714.947 218.174 715.04 217.62C715.134 217.066 715.204 216.501 715.251 215.926L715.315 215.21H717.156ZM724.408 217V207.182H726.255V208.741H726.357C726.536 208.213 726.852 207.798 727.303 207.495C727.759 207.188 728.275 207.035 728.85 207.035C728.97 207.035 729.11 207.039 729.272 207.048C729.438 207.056 729.568 207.067 729.662 207.08V208.908C729.585 208.886 729.449 208.863 729.253 208.837C729.057 208.808 728.861 208.793 728.665 208.793C728.213 208.793 727.811 208.888 727.457 209.08C727.107 209.268 726.83 209.53 726.626 209.866C726.421 210.199 726.319 210.578 726.319 211.004V217H724.408ZM734.085 217.217C733.463 217.217 732.901 217.102 732.398 216.872C731.895 216.638 731.497 216.299 731.203 215.856C730.913 215.413 730.768 214.869 730.768 214.226C730.768 213.672 730.874 213.216 731.088 212.858C731.301 212.5 731.588 212.217 731.95 212.008C732.313 211.799 732.718 211.641 733.165 211.535C733.612 211.428 734.068 211.347 734.533 211.292C735.121 211.224 735.598 211.168 735.965 211.126C736.331 211.079 736.597 211.004 736.764 210.902C736.93 210.8 737.013 210.634 737.013 210.403V210.359C737.013 209.8 736.855 209.368 736.54 209.061C736.229 208.754 735.764 208.601 735.146 208.601C734.503 208.601 733.996 208.744 733.625 209.029C733.259 209.31 733.005 209.624 732.865 209.969L731.068 209.56C731.281 208.963 731.593 208.482 732.002 208.115C732.415 207.744 732.89 207.476 733.427 207.31C733.964 207.139 734.529 207.054 735.121 207.054C735.513 207.054 735.928 207.101 736.367 207.195C736.811 207.284 737.224 207.45 737.607 207.693C737.995 207.936 738.313 208.283 738.56 208.735C738.807 209.183 738.931 209.764 738.931 210.48V217H737.064V215.658H736.987C736.864 215.905 736.678 216.148 736.431 216.386C736.184 216.625 735.867 216.823 735.479 216.981C735.091 217.138 734.627 217.217 734.085 217.217ZM734.501 215.683C735.029 215.683 735.481 215.579 735.856 215.37C736.235 215.161 736.523 214.888 736.719 214.552C736.919 214.211 737.019 213.847 737.019 213.459V212.193C736.951 212.261 736.819 212.325 736.623 212.385C736.431 212.44 736.212 212.489 735.965 212.532C735.718 212.57 735.477 212.607 735.242 212.641C735.008 212.67 734.812 212.696 734.654 212.717C734.284 212.764 733.945 212.843 733.638 212.954C733.335 213.065 733.093 213.224 732.909 213.433C732.73 213.638 732.641 213.911 732.641 214.251C732.641 214.724 732.816 215.082 733.165 215.325C733.514 215.564 733.96 215.683 734.501 215.683ZM746.059 207.182V208.716H740.696V207.182H746.059ZM742.135 204.83H744.046V214.117C744.046 214.488 744.101 214.767 744.212 214.955C744.323 215.138 744.466 215.263 744.64 215.332C744.819 215.396 745.013 215.428 745.222 215.428C745.375 215.428 745.51 215.417 745.625 215.396C745.74 215.374 745.829 215.357 745.893 215.344L746.238 216.923C746.127 216.966 745.97 217.009 745.765 217.051C745.561 217.098 745.305 217.124 744.998 217.128C744.495 217.136 744.027 217.047 743.592 216.859C743.157 216.672 742.806 216.382 742.537 215.99C742.269 215.598 742.135 215.106 742.135 214.513V204.83ZM750.296 211.17V217H748.384V203.909H750.27V208.78H750.392C750.622 208.251 750.973 207.832 751.446 207.521C751.919 207.21 752.537 207.054 753.3 207.054C753.973 207.054 754.561 207.192 755.064 207.469C755.571 207.746 755.963 208.16 756.24 208.71C756.521 209.255 756.662 209.937 756.662 210.755V217H754.751V210.985C754.751 210.265 754.566 209.707 754.195 209.31C753.824 208.91 753.308 208.71 752.648 208.71C752.196 208.71 751.791 208.805 751.433 208.997C751.08 209.189 750.801 209.47 750.596 209.841C750.396 210.207 750.296 210.651 750.296 211.17ZM763.444 217.198C762.477 217.198 761.644 216.991 760.945 216.578C760.25 216.161 759.713 215.575 759.334 214.82C758.959 214.062 758.771 213.173 758.771 212.155C758.771 211.149 758.959 210.263 759.334 209.496C759.713 208.729 760.242 208.13 760.919 207.7C761.601 207.269 762.398 207.054 763.31 207.054C763.864 207.054 764.401 207.146 764.921 207.329C765.441 207.512 765.907 207.8 766.32 208.192C766.734 208.584 767.06 209.093 767.298 209.719C767.537 210.342 767.656 211.098 767.656 211.989V212.666H759.852V211.234H765.784C765.784 210.732 765.681 210.286 765.477 209.898C765.272 209.506 764.985 209.197 764.614 208.972C764.247 208.746 763.817 208.633 763.323 208.633C762.786 208.633 762.317 208.765 761.916 209.029C761.52 209.289 761.213 209.63 760.996 210.052C760.783 210.469 760.676 210.923 760.676 211.413V212.532C760.676 213.188 760.791 213.746 761.021 214.207C761.256 214.667 761.582 215.018 761.999 215.261C762.417 215.5 762.905 215.619 763.463 215.619C763.825 215.619 764.156 215.568 764.454 215.466C764.752 215.359 765.01 215.202 765.227 214.993C765.445 214.784 765.611 214.526 765.726 214.219L767.535 214.545C767.39 215.078 767.13 215.545 766.755 215.945C766.384 216.342 765.918 216.651 765.355 216.872C764.797 217.089 764.16 217.198 763.444 217.198ZM769.777 217V207.182H771.624V208.741H771.727C771.906 208.213 772.221 207.798 772.673 207.495C773.129 207.188 773.644 207.035 774.219 207.035C774.339 207.035 774.479 207.039 774.641 207.048C774.808 207.056 774.938 207.067 775.031 207.08V208.908C774.955 208.886 774.818 208.863 774.622 208.837C774.426 208.808 774.23 208.793 774.034 208.793C773.582 208.793 773.18 208.888 772.826 209.08C772.477 209.268 772.2 209.53 771.995 209.866C771.79 210.199 771.688 210.578 771.688 211.004V217H769.777ZM786.032 207.182V208.716H780.669V207.182H786.032ZM782.107 204.83H784.018V214.117C784.018 214.488 784.074 214.767 784.185 214.955C784.295 215.138 784.438 215.263 784.613 215.332C784.792 215.396 784.986 215.428 785.195 215.428C785.348 215.428 785.482 215.417 785.597 215.396C785.712 215.374 785.802 215.357 785.866 215.344L786.211 216.923C786.1 216.966 785.942 217.009 785.738 217.051C785.533 217.098 785.278 217.124 784.971 217.128C784.468 217.136 783.999 217.047 783.565 216.859C783.13 216.672 782.778 216.382 782.51 215.99C782.241 215.598 782.107 215.106 782.107 214.513V204.83ZM790.268 211.17V217H788.357V203.909H790.243V208.78H790.364C790.594 208.251 790.946 207.832 791.419 207.521C791.892 207.21 792.51 207.054 793.273 207.054C793.946 207.054 794.534 207.192 795.037 207.469C795.544 207.746 795.936 208.16 796.213 208.71C796.494 209.255 796.635 209.937 796.635 210.755V217H794.724V210.985C794.724 210.265 794.538 209.707 794.167 209.31C793.797 208.91 793.281 208.71 792.621 208.71C792.169 208.71 791.764 208.805 791.406 208.997C791.052 209.189 790.773 209.47 790.569 209.841C790.368 210.207 790.268 210.651 790.268 211.17ZM802.042 217.217C801.42 217.217 800.858 217.102 800.355 216.872C799.852 216.638 799.454 216.299 799.16 215.856C798.87 215.413 798.725 214.869 798.725 214.226C798.725 213.672 798.831 213.216 799.045 212.858C799.258 212.5 799.545 212.217 799.907 212.008C800.27 211.799 800.675 211.641 801.122 211.535C801.569 211.428 802.025 211.347 802.49 211.292C803.078 211.224 803.555 211.168 803.922 211.126C804.288 211.079 804.555 211.004 804.721 210.902C804.887 210.8 804.97 210.634 804.97 210.403V210.359C804.97 209.8 804.812 209.368 804.497 209.061C804.186 208.754 803.721 208.601 803.104 208.601C802.46 208.601 801.953 208.744 801.582 209.029C801.216 209.31 800.962 209.624 800.822 209.969L799.025 209.56C799.238 208.963 799.55 208.482 799.959 208.115C800.372 207.744 800.847 207.476 801.384 207.31C801.921 207.139 802.486 207.054 803.078 207.054C803.47 207.054 803.885 207.101 804.324 207.195C804.768 207.284 805.181 207.45 805.564 207.693C805.952 207.936 806.27 208.283 806.517 208.735C806.764 209.183 806.888 209.764 806.888 210.48V217H805.021V215.658H804.944C804.821 215.905 804.635 216.148 804.388 216.386C804.141 216.625 803.824 216.823 803.436 216.981C803.048 217.138 802.584 217.217 802.042 217.217ZM802.458 215.683C802.986 215.683 803.438 215.579 803.813 215.37C804.192 215.161 804.48 214.888 804.676 214.552C804.876 214.211 804.976 213.847 804.976 213.459V212.193C804.908 212.261 804.776 212.325 804.58 212.385C804.388 212.44 804.169 212.489 803.922 212.532C803.675 212.57 803.434 212.607 803.199 212.641C802.965 212.67 802.769 212.696 802.611 212.717C802.241 212.764 801.902 212.843 801.595 212.954C801.292 213.065 801.05 213.224 800.866 213.433C800.687 213.638 800.598 213.911 800.598 214.251C800.598 214.724 800.773 215.082 801.122 215.325C801.471 215.564 801.917 215.683 802.458 215.683ZM811.344 211.17V217H809.433V207.182H811.268V208.78H811.389C811.615 208.26 811.969 207.842 812.45 207.527C812.936 207.212 813.548 207.054 814.285 207.054C814.954 207.054 815.54 207.195 816.043 207.476C816.545 207.753 816.935 208.166 817.212 208.716C817.489 209.266 817.628 209.945 817.628 210.755V217H815.717V210.985C815.717 210.273 815.531 209.717 815.161 209.317C814.79 208.912 814.281 208.71 813.633 208.71C813.19 208.71 812.795 208.805 812.45 208.997C812.109 209.189 811.839 209.47 811.638 209.841C811.442 210.207 811.344 210.651 811.344 211.17ZM832.312 209.579L830.58 209.886C830.507 209.664 830.392 209.453 830.235 209.253C830.081 209.053 829.872 208.888 829.608 208.761C829.344 208.633 829.014 208.569 828.617 208.569C828.076 208.569 827.624 208.69 827.262 208.933C826.9 209.172 826.719 209.481 826.719 209.86C826.719 210.188 826.84 210.452 827.083 210.653C827.326 210.853 827.718 211.017 828.259 211.145L829.819 211.503C830.722 211.712 831.396 212.033 831.839 212.468C832.282 212.903 832.504 213.467 832.504 214.162C832.504 214.75 832.333 215.274 831.992 215.734C831.656 216.19 831.185 216.548 830.58 216.808C829.979 217.068 829.282 217.198 828.49 217.198C827.39 217.198 826.493 216.964 825.798 216.495C825.104 216.022 824.678 215.351 824.52 214.482L826.367 214.2C826.482 214.682 826.719 215.046 827.077 215.293C827.435 215.536 827.901 215.658 828.477 215.658C829.103 215.658 829.604 215.528 829.979 215.268C830.354 215.004 830.541 214.682 830.541 214.303C830.541 213.996 830.426 213.738 830.196 213.529C829.97 213.32 829.623 213.163 829.154 213.056L827.492 212.692C826.576 212.483 825.899 212.151 825.46 211.695C825.025 211.239 824.808 210.661 824.808 209.962C824.808 209.383 824.97 208.876 825.294 208.441C825.617 208.006 826.065 207.668 826.636 207.425C827.207 207.178 827.861 207.054 828.598 207.054C829.659 207.054 830.494 207.284 831.104 207.744C831.713 208.2 832.116 208.812 832.312 209.579ZM834.605 220.682V207.182H836.472V208.773H836.631C836.742 208.569 836.902 208.332 837.111 208.064C837.32 207.795 837.609 207.561 837.98 207.361C838.351 207.156 838.841 207.054 839.45 207.054C840.243 207.054 840.95 207.254 841.572 207.655C842.195 208.055 842.683 208.633 843.036 209.387C843.394 210.141 843.573 211.049 843.573 212.11C843.573 213.171 843.396 214.081 843.043 214.839C842.689 215.594 842.203 216.175 841.585 216.585C840.967 216.989 840.262 217.192 839.469 217.192C838.873 217.192 838.385 217.092 838.006 216.891C837.631 216.691 837.337 216.457 837.124 216.188C836.911 215.92 836.746 215.681 836.631 215.472H836.516V220.682H834.605ZM836.478 212.091C836.478 212.781 836.578 213.386 836.778 213.906C836.979 214.426 837.268 214.833 837.648 215.127C838.027 215.417 838.491 215.562 839.041 215.562C839.612 215.562 840.089 215.411 840.473 215.108C840.857 214.801 841.146 214.386 841.342 213.862C841.543 213.337 841.643 212.747 841.643 212.091C841.643 211.443 841.545 210.862 841.349 210.346C841.157 209.83 840.867 209.423 840.479 209.125C840.096 208.827 839.616 208.678 839.041 208.678C838.487 208.678 838.018 208.82 837.635 209.106C837.256 209.391 836.968 209.79 836.772 210.301C836.576 210.812 836.478 211.409 836.478 212.091ZM849.946 217.198C848.979 217.198 848.146 216.991 847.447 216.578C846.752 216.161 846.215 215.575 845.836 214.82C845.461 214.062 845.273 213.173 845.273 212.155C845.273 211.149 845.461 210.263 845.836 209.496C846.215 208.729 846.744 208.13 847.421 207.7C848.103 207.269 848.9 207.054 849.812 207.054C850.366 207.054 850.903 207.146 851.423 207.329C851.942 207.512 852.409 207.8 852.822 208.192C853.236 208.584 853.562 209.093 853.8 209.719C854.039 210.342 854.158 211.098 854.158 211.989V212.666H846.354V211.234H852.286C852.286 210.732 852.183 210.286 851.979 209.898C851.774 209.506 851.487 209.197 851.116 208.972C850.749 208.746 850.319 208.633 849.825 208.633C849.288 208.633 848.819 208.765 848.418 209.029C848.022 209.289 847.715 209.63 847.498 210.052C847.285 210.469 847.178 210.923 847.178 211.413V212.532C847.178 213.188 847.293 213.746 847.523 214.207C847.758 214.667 848.084 215.018 848.501 215.261C848.919 215.5 849.407 215.619 849.965 215.619C850.327 215.619 850.658 215.568 850.956 215.466C851.254 215.359 851.512 215.202 851.729 214.993C851.947 214.784 852.113 214.526 852.228 214.219L854.037 214.545C853.892 215.078 853.632 215.545 853.257 215.945C852.886 216.342 852.42 216.651 851.857 216.872C851.299 217.089 850.662 217.198 849.946 217.198ZM860.415 217.198C859.464 217.198 858.646 216.983 857.96 216.553C857.278 216.118 856.754 215.519 856.388 214.756C856.021 213.994 855.838 213.12 855.838 212.136C855.838 211.138 856.025 210.259 856.4 209.496C856.775 208.729 857.304 208.13 857.986 207.7C858.667 207.269 859.471 207.054 860.395 207.054C861.141 207.054 861.806 207.192 862.39 207.469C862.974 207.742 863.444 208.126 863.802 208.62C864.165 209.114 864.38 209.692 864.448 210.352H862.588C862.486 209.892 862.251 209.496 861.885 209.163C861.523 208.831 861.037 208.665 860.427 208.665C859.895 208.665 859.428 208.805 859.028 209.087C858.631 209.364 858.322 209.76 858.101 210.276C857.879 210.787 857.768 211.392 857.768 212.091C857.768 212.807 857.877 213.425 858.094 213.945C858.312 214.464 858.618 214.867 859.015 215.153C859.415 215.438 859.886 215.581 860.427 215.581C860.79 215.581 861.118 215.515 861.412 215.383C861.71 215.246 861.959 215.053 862.16 214.801C862.364 214.55 862.507 214.247 862.588 213.893H864.448C864.38 214.528 864.173 215.095 863.828 215.594C863.483 216.092 863.02 216.484 862.441 216.77C861.866 217.055 861.19 217.198 860.415 217.198ZM866.492 217V207.182H868.403V217H866.492ZM867.457 205.667C867.125 205.667 866.839 205.556 866.6 205.335C866.366 205.109 866.249 204.84 866.249 204.529C866.249 204.214 866.366 203.945 866.6 203.724C866.839 203.498 867.125 203.385 867.457 203.385C867.789 203.385 868.073 203.498 868.307 203.724C868.546 203.945 868.665 204.214 868.665 204.529C868.665 204.84 868.546 205.109 868.307 205.335C868.073 205.556 867.789 205.667 867.457 205.667ZM875.647 207.182V208.716H870.099V207.182H875.647ZM871.62 217V206.044C871.62 205.43 871.754 204.921 872.023 204.516C872.291 204.107 872.647 203.803 873.09 203.602C873.533 203.398 874.015 203.295 874.535 203.295C874.918 203.295 875.246 203.327 875.519 203.391C875.792 203.451 875.994 203.506 876.126 203.558L875.679 205.104C875.589 205.079 875.474 205.049 875.334 205.015C875.193 204.977 875.023 204.957 874.822 204.957C874.358 204.957 874.025 205.072 873.825 205.303C873.629 205.533 873.531 205.865 873.531 206.3V217H871.62ZM877.619 217V207.182H879.53V217H877.619ZM878.584 205.667C878.252 205.667 877.966 205.556 877.727 205.335C877.493 205.109 877.376 204.84 877.376 204.529C877.376 204.214 877.493 203.945 877.727 203.724C877.966 203.498 878.252 203.385 878.584 203.385C878.916 203.385 879.2 203.498 879.434 203.724C879.673 203.945 879.792 204.214 879.792 204.529C879.792 204.84 879.673 205.109 879.434 205.335C879.2 205.556 878.916 205.667 878.584 205.667ZM886.237 217.198C885.287 217.198 884.468 216.983 883.782 216.553C883.1 216.118 882.576 215.519 882.21 214.756C881.843 213.994 881.66 213.12 881.66 212.136C881.66 211.138 881.848 210.259 882.223 209.496C882.598 208.729 883.126 208.13 883.808 207.7C884.49 207.269 885.293 207.054 886.218 207.054C886.963 207.054 887.628 207.192 888.212 207.469C888.796 207.742 889.267 208.126 889.625 208.62C889.987 209.114 890.202 209.692 890.27 210.352H888.41C888.308 209.892 888.074 209.496 887.707 209.163C887.345 208.831 886.859 208.665 886.25 208.665C885.717 208.665 885.25 208.805 884.85 209.087C884.453 209.364 884.145 209.76 883.923 210.276C883.701 210.787 883.591 211.392 883.591 212.091C883.591 212.807 883.699 213.425 883.917 213.945C884.134 214.464 884.441 214.867 884.837 215.153C885.238 215.438 885.708 215.581 886.25 215.581C886.612 215.581 886.94 215.515 887.234 215.383C887.532 215.246 887.782 215.053 887.982 214.801C888.186 214.55 888.329 214.247 888.41 213.893H890.27C890.202 214.528 889.995 215.095 889.65 215.594C889.305 216.092 888.843 216.484 888.263 216.77C887.688 217.055 887.012 217.198 886.237 217.198ZM901.75 207.182V208.716H896.202V207.182H901.75ZM897.723 217V206.044C897.723 205.43 897.858 204.921 898.126 204.516C898.395 204.107 898.75 203.803 899.194 203.602C899.637 203.398 900.118 203.295 900.638 203.295C901.022 203.295 901.35 203.327 901.623 203.391C901.895 203.451 902.098 203.506 902.23 203.558L901.782 205.104C901.693 205.079 901.578 205.049 901.437 205.015C901.297 204.977 901.126 204.957 900.926 204.957C900.461 204.957 900.129 205.072 899.929 205.303C899.733 205.533 899.635 205.865 899.635 206.3V217H897.723ZM903.722 217V207.182H905.57V208.741H905.672C905.851 208.213 906.166 207.798 906.618 207.495C907.074 207.188 907.589 207.035 908.165 207.035C908.284 207.035 908.425 207.039 908.587 207.048C908.753 207.056 908.883 207.067 908.977 207.08V208.908C908.9 208.886 908.763 208.863 908.567 208.837C908.371 208.808 908.175 208.793 907.979 208.793C907.528 208.793 907.125 208.888 906.771 209.08C906.422 209.268 906.145 209.53 905.94 209.866C905.736 210.199 905.634 210.578 905.634 211.004V217H903.722ZM913.4 217.217C912.778 217.217 912.215 217.102 911.712 216.872C911.21 216.638 910.811 216.299 910.517 215.856C910.227 215.413 910.082 214.869 910.082 214.226C910.082 213.672 910.189 213.216 910.402 212.858C910.615 212.5 910.903 212.217 911.265 212.008C911.627 211.799 912.032 211.641 912.479 211.535C912.927 211.428 913.383 211.347 913.847 211.292C914.435 211.224 914.913 211.168 915.279 211.126C915.646 211.079 915.912 211.004 916.078 210.902C916.244 210.8 916.327 210.634 916.327 210.403V210.359C916.327 209.8 916.17 209.368 915.854 209.061C915.543 208.754 915.079 208.601 914.461 208.601C913.817 208.601 913.31 208.744 912.94 209.029C912.573 209.31 912.32 209.624 912.179 209.969L910.383 209.56C910.596 208.963 910.907 208.482 911.316 208.115C911.729 207.744 912.205 207.476 912.741 207.31C913.278 207.139 913.843 207.054 914.435 207.054C914.827 207.054 915.243 207.101 915.682 207.195C916.125 207.284 916.538 207.45 916.922 207.693C917.31 207.936 917.627 208.283 917.874 208.735C918.121 209.183 918.245 209.764 918.245 210.48V217H916.379V215.658H916.302C916.178 215.905 915.993 216.148 915.746 216.386C915.499 216.625 915.181 216.823 914.793 216.981C914.406 217.138 913.941 217.217 913.4 217.217ZM913.815 215.683C914.344 215.683 914.795 215.579 915.17 215.37C915.55 215.161 915.837 214.888 916.033 214.552C916.234 214.211 916.334 213.847 916.334 213.459V212.193C916.266 212.261 916.134 212.325 915.938 212.385C915.746 212.44 915.526 212.489 915.279 212.532C915.032 212.57 914.791 212.607 914.557 212.641C914.322 212.67 914.126 212.696 913.969 212.717C913.598 212.764 913.259 212.843 912.952 212.954C912.65 213.065 912.407 213.224 912.224 213.433C912.045 213.638 911.955 213.911 911.955 214.251C911.955 214.724 912.13 215.082 912.479 215.325C912.829 215.564 913.274 215.683 913.815 215.683ZM920.791 217V207.182H922.625V208.78H922.747C922.951 208.239 923.286 207.817 923.75 207.514C924.215 207.207 924.771 207.054 925.419 207.054C926.075 207.054 926.624 207.207 927.068 207.514C927.515 207.821 927.845 208.243 928.058 208.78H928.161C928.395 208.256 928.768 207.838 929.279 207.527C929.791 207.212 930.4 207.054 931.107 207.054C931.998 207.054 932.725 207.333 933.287 207.891C933.854 208.45 934.137 209.291 934.137 210.416V217H932.226V210.595C932.226 209.93 932.045 209.449 931.683 209.151C931.32 208.852 930.888 208.703 930.385 208.703C929.763 208.703 929.279 208.895 928.934 209.278C928.589 209.658 928.416 210.146 928.416 210.742V217H926.512V210.474C926.512 209.941 926.345 209.513 926.013 209.189C925.681 208.865 925.248 208.703 924.715 208.703C924.353 208.703 924.019 208.799 923.712 208.991C923.409 209.178 923.164 209.44 922.977 209.777C922.794 210.114 922.702 210.504 922.702 210.947V217H920.791ZM940.93 217.198C939.963 217.198 939.13 216.991 938.431 216.578C937.737 216.161 937.2 215.575 936.82 214.82C936.445 214.062 936.258 213.173 936.258 212.155C936.258 211.149 936.445 210.263 936.82 209.496C937.2 208.729 937.728 208.13 938.406 207.7C939.087 207.269 939.884 207.054 940.796 207.054C941.35 207.054 941.887 207.146 942.407 207.329C942.927 207.512 943.393 207.8 943.807 208.192C944.22 208.584 944.546 209.093 944.785 209.719C945.023 210.342 945.143 211.098 945.143 211.989V212.666H937.338V211.234H943.27C943.27 210.732 943.168 210.286 942.963 209.898C942.759 209.506 942.471 209.197 942.1 208.972C941.734 208.746 941.303 208.633 940.809 208.633C940.272 208.633 939.803 208.765 939.403 209.029C939.006 209.289 938.7 209.63 938.482 210.052C938.269 210.469 938.163 210.923 938.163 211.413V212.532C938.163 213.188 938.278 213.746 938.508 214.207C938.742 214.667 939.068 215.018 939.486 215.261C939.903 215.5 940.391 215.619 940.95 215.619C941.312 215.619 941.642 215.568 941.94 215.466C942.239 215.359 942.496 215.202 942.714 214.993C942.931 214.784 943.097 214.526 943.212 214.219L945.021 214.545C944.876 215.078 944.616 215.545 944.241 215.945C943.871 216.342 943.404 216.651 942.842 216.872C942.283 217.089 941.646 217.198 940.93 217.198ZM949.374 217L946.485 207.182H948.46L950.384 214.392H950.48L952.411 207.182H954.386L956.303 214.36H956.399L958.31 207.182H960.286L957.403 217H955.453L953.459 209.911H953.312L951.317 217H949.374ZM965.936 217.198C965.016 217.198 964.212 216.987 963.526 216.565C962.84 216.143 962.308 215.553 961.928 214.795C961.549 214.036 961.359 213.15 961.359 212.136C961.359 211.117 961.549 210.227 961.928 209.464C962.308 208.701 962.84 208.109 963.526 207.687C964.212 207.265 965.016 207.054 965.936 207.054C966.857 207.054 967.66 207.265 968.346 207.687C969.032 208.109 969.565 208.701 969.944 209.464C970.323 210.227 970.513 211.117 970.513 212.136C970.513 213.15 970.323 214.036 969.944 214.795C969.565 215.553 969.032 216.143 968.346 216.565C967.66 216.987 966.857 217.198 965.936 217.198ZM965.942 215.594C966.539 215.594 967.033 215.436 967.425 215.121C967.817 214.805 968.107 214.386 968.295 213.862C968.487 213.337 968.582 212.76 968.582 212.129C968.582 211.503 968.487 210.928 968.295 210.403C968.107 209.875 967.817 209.451 967.425 209.131C967.033 208.812 966.539 208.652 965.942 208.652C965.342 208.652 964.843 208.812 964.447 209.131C964.055 209.451 963.763 209.875 963.571 210.403C963.384 210.928 963.29 211.503 963.29 212.129C963.29 212.76 963.384 213.337 963.571 213.862C963.763 214.386 964.055 214.805 964.447 215.121C964.843 215.436 965.342 215.594 965.942 215.594ZM972.646 217V207.182H974.493V208.741H974.596C974.775 208.213 975.09 207.798 975.542 207.495C975.998 207.188 976.513 207.035 977.089 207.035C977.208 207.035 977.349 207.039 977.51 207.048C977.677 207.056 977.807 207.067 977.9 207.08V208.908C977.824 208.886 977.687 208.863 977.491 208.837C977.295 208.808 977.099 208.793 976.903 208.793C976.452 208.793 976.049 208.888 975.695 209.08C975.346 209.268 975.069 209.53 974.864 209.866C974.66 210.199 974.557 210.578 974.557 211.004V217H972.646ZM981.312 213.67L981.299 211.337H981.632L985.544 207.182H987.832L983.37 211.912H983.07L981.312 213.67ZM979.554 217V203.909H981.466V217H979.554ZM985.755 217L982.239 212.334L983.556 210.998L988.1 217H985.755ZM637.142 249.217C636.52 249.217 635.957 249.102 635.455 248.872C634.952 248.638 634.553 248.299 634.259 247.856C633.969 247.413 633.825 246.869 633.825 246.226C633.825 245.672 633.931 245.216 634.144 244.858C634.357 244.5 634.645 244.217 635.007 244.008C635.369 243.799 635.774 243.641 636.222 243.535C636.669 243.428 637.125 243.347 637.589 243.292C638.178 243.224 638.655 243.168 639.021 243.126C639.388 243.079 639.654 243.004 639.82 242.902C639.987 242.8 640.07 242.634 640.07 242.403V242.359C640.07 241.8 639.912 241.368 639.597 241.061C639.286 240.754 638.821 240.601 638.203 240.601C637.56 240.601 637.053 240.744 636.682 241.029C636.315 241.31 636.062 241.624 635.921 241.969L634.125 241.56C634.338 240.963 634.649 240.482 635.058 240.115C635.472 239.744 635.947 239.476 636.484 239.31C637.021 239.139 637.585 239.054 638.178 239.054C638.57 239.054 638.985 239.101 639.424 239.195C639.867 239.284 640.281 239.45 640.664 239.693C641.052 239.936 641.369 240.283 641.616 240.735C641.864 241.183 641.987 241.764 641.987 242.48V249H640.121V247.658H640.044C639.92 247.905 639.735 248.148 639.488 248.386C639.241 248.625 638.923 248.823 638.536 248.981C638.148 249.138 637.683 249.217 637.142 249.217ZM637.558 247.683C638.086 247.683 638.538 247.579 638.913 247.37C639.292 247.161 639.58 246.888 639.776 246.552C639.976 246.211 640.076 245.847 640.076 245.459V244.193C640.008 244.261 639.876 244.325 639.68 244.385C639.488 244.44 639.268 244.489 639.021 244.532C638.774 244.57 638.533 244.607 638.299 244.641C638.065 244.67 637.869 244.696 637.711 244.717C637.34 244.764 637.001 244.843 636.695 244.954C636.392 245.065 636.149 245.224 635.966 245.433C635.787 245.638 635.697 245.911 635.697 246.251C635.697 246.724 635.872 247.082 636.222 247.325C636.571 247.564 637.016 247.683 637.558 247.683ZM646.444 243.17V249H644.533V239.182H646.367V240.78H646.489C646.715 240.26 647.068 239.842 647.55 239.527C648.036 239.212 648.647 239.054 649.384 239.054C650.053 239.054 650.639 239.195 651.142 239.476C651.645 239.753 652.035 240.166 652.312 240.716C652.589 241.266 652.727 241.945 652.727 242.755V249H650.816V242.985C650.816 242.273 650.631 241.717 650.26 241.317C649.889 240.912 649.38 240.71 648.732 240.71C648.289 240.71 647.895 240.805 647.55 240.997C647.209 241.189 646.938 241.47 646.738 241.841C646.542 242.207 646.444 242.651 646.444 243.17ZM658.966 249.192C658.173 249.192 657.466 248.989 656.844 248.585C656.226 248.175 655.74 247.594 655.387 246.839C655.037 246.081 654.862 245.171 654.862 244.11C654.862 243.049 655.039 242.141 655.393 241.387C655.751 240.633 656.241 240.055 656.863 239.655C657.485 239.254 658.191 239.054 658.979 239.054C659.588 239.054 660.078 239.156 660.449 239.361C660.824 239.561 661.114 239.795 661.318 240.064C661.527 240.332 661.689 240.569 661.804 240.773H661.919V235.909H663.83V249H661.964V247.472H661.804C661.689 247.681 661.523 247.92 661.306 248.188C661.093 248.457 660.798 248.691 660.423 248.891C660.048 249.092 659.563 249.192 658.966 249.192ZM659.388 247.562C659.938 247.562 660.402 247.417 660.781 247.127C661.165 246.833 661.455 246.426 661.651 245.906C661.851 245.386 661.951 244.781 661.951 244.091C661.951 243.409 661.853 242.812 661.657 242.301C661.461 241.79 661.173 241.391 660.794 241.106C660.415 240.82 659.946 240.678 659.388 240.678C658.813 240.678 658.333 240.827 657.95 241.125C657.566 241.423 657.276 241.83 657.08 242.346C656.889 242.862 656.793 243.443 656.793 244.091C656.793 244.747 656.891 245.337 657.087 245.862C657.283 246.386 657.573 246.801 657.956 247.108C658.344 247.411 658.821 247.562 659.388 247.562ZM673.233 235.909V249H671.322V235.909H673.233ZM675.804 249V239.182H677.716V249H675.804ZM676.77 237.667C676.437 237.667 676.152 237.556 675.913 237.335C675.679 237.109 675.561 236.84 675.561 236.529C675.561 236.214 675.679 235.945 675.913 235.724C676.152 235.498 676.437 235.385 676.77 235.385C677.102 235.385 677.385 235.498 677.62 235.724C677.858 235.945 677.978 236.214 677.978 236.529C677.978 236.84 677.858 237.109 677.62 237.335C677.385 237.556 677.102 237.667 676.77 237.667ZM680.44 249V235.909H682.351V240.773H682.466C682.577 240.569 682.737 240.332 682.946 240.064C683.155 239.795 683.444 239.561 683.815 239.361C684.186 239.156 684.676 239.054 685.285 239.054C686.078 239.054 686.785 239.254 687.407 239.655C688.03 240.055 688.518 240.633 688.871 241.387C689.229 242.141 689.408 243.049 689.408 244.11C689.408 245.171 689.231 246.081 688.878 246.839C688.524 247.594 688.038 248.175 687.42 248.585C686.802 248.989 686.097 249.192 685.305 249.192C684.708 249.192 684.22 249.092 683.841 248.891C683.466 248.691 683.172 248.457 682.959 248.188C682.746 247.92 682.581 247.681 682.466 247.472H682.307V249H680.44ZM682.313 244.091C682.313 244.781 682.413 245.386 682.613 245.906C682.814 246.426 683.104 246.833 683.483 247.127C683.862 247.417 684.327 247.562 684.876 247.562C685.447 247.562 685.925 247.411 686.308 247.108C686.692 246.801 686.981 246.386 687.177 245.862C687.378 245.337 687.478 244.747 687.478 244.091C687.478 243.443 687.38 242.862 687.184 242.346C686.992 241.83 686.702 241.423 686.314 241.125C685.931 240.827 685.452 240.678 684.876 240.678C684.322 240.678 683.854 240.82 683.47 241.106C683.091 241.391 682.803 241.79 682.607 242.301C682.411 242.812 682.313 243.409 682.313 244.091ZM691.554 249V239.182H693.402V240.741H693.504C693.683 240.213 693.998 239.798 694.45 239.495C694.906 239.188 695.422 239.035 695.997 239.035C696.116 239.035 696.257 239.039 696.419 239.048C696.585 239.056 696.715 239.067 696.809 239.08V240.908C696.732 240.886 696.596 240.863 696.4 240.837C696.203 240.808 696.007 240.793 695.811 240.793C695.36 240.793 694.957 240.888 694.603 241.08C694.254 241.268 693.977 241.53 693.772 241.866C693.568 242.199 693.466 242.578 693.466 243.004V249H691.554ZM701.232 249.217C700.61 249.217 700.047 249.102 699.544 248.872C699.042 248.638 698.643 248.299 698.349 247.856C698.059 247.413 697.914 246.869 697.914 246.226C697.914 245.672 698.021 245.216 698.234 244.858C698.447 244.5 698.735 244.217 699.097 244.008C699.459 243.799 699.864 243.641 700.311 243.535C700.759 243.428 701.215 243.347 701.679 243.292C702.267 243.224 702.745 243.168 703.111 243.126C703.478 243.079 703.744 243.004 703.91 242.902C704.076 242.8 704.159 242.634 704.159 242.403V242.359C704.159 241.8 704.002 241.368 703.686 241.061C703.375 240.754 702.911 240.601 702.293 240.601C701.65 240.601 701.142 240.744 700.772 241.029C700.405 241.31 700.152 241.624 700.011 241.969L698.215 241.56C698.428 240.963 698.739 240.482 699.148 240.115C699.561 239.744 700.037 239.476 700.574 239.31C701.11 239.139 701.675 239.054 702.267 239.054C702.659 239.054 703.075 239.101 703.514 239.195C703.957 239.284 704.37 239.45 704.754 239.693C705.142 239.936 705.459 240.283 705.706 240.735C705.953 241.183 706.077 241.764 706.077 242.48V249H704.211V247.658H704.134C704.01 247.905 703.825 248.148 703.578 248.386C703.331 248.625 703.013 248.823 702.625 248.981C702.238 249.138 701.773 249.217 701.232 249.217ZM701.647 247.683C702.176 247.683 702.627 247.579 703.002 247.37C703.382 247.161 703.669 246.888 703.865 246.552C704.066 246.211 704.166 245.847 704.166 245.459V244.193C704.098 244.261 703.966 244.325 703.77 244.385C703.578 244.44 703.358 244.489 703.111 244.532C702.864 244.57 702.623 244.607 702.389 244.641C702.154 244.67 701.958 244.696 701.801 244.717C701.43 244.764 701.091 244.843 700.784 244.954C700.482 245.065 700.239 245.224 700.056 245.433C699.877 245.638 699.787 245.911 699.787 246.251C699.787 246.724 699.962 247.082 700.311 247.325C700.661 247.564 701.106 247.683 701.647 247.683ZM708.623 249V239.182H710.47V240.741H710.572C710.751 240.213 711.067 239.798 711.518 239.495C711.974 239.188 712.49 239.035 713.065 239.035C713.184 239.035 713.325 239.039 713.487 239.048C713.653 239.056 713.783 239.067 713.877 239.08V240.908C713.8 240.886 713.664 240.863 713.468 240.837C713.272 240.808 713.076 240.793 712.88 240.793C712.428 240.793 712.025 240.888 711.672 241.08C711.322 241.268 711.045 241.53 710.841 241.866C710.636 242.199 710.534 242.578 710.534 243.004V249H708.623ZM717.038 252.682C716.752 252.682 716.492 252.658 716.258 252.612C716.024 252.569 715.849 252.522 715.734 252.471L716.194 250.905C716.544 250.999 716.855 251.039 717.127 251.026C717.4 251.013 717.641 250.911 717.85 250.719C718.063 250.528 718.25 250.214 718.412 249.78L718.649 249.128L715.056 239.182H717.102L719.588 246.801H719.691L722.177 239.182H724.229L720.183 250.31C719.995 250.822 719.757 251.254 719.467 251.608C719.177 251.966 718.832 252.234 718.431 252.413C718.031 252.592 717.566 252.682 717.038 252.682ZM738.146 241.579L736.414 241.886C736.341 241.664 736.226 241.453 736.069 241.253C735.915 241.053 735.706 240.888 735.442 240.761C735.178 240.633 734.848 240.569 734.451 240.569C733.91 240.569 733.458 240.69 733.096 240.933C732.734 241.172 732.553 241.481 732.553 241.86C732.553 242.188 732.674 242.452 732.917 242.653C733.16 242.853 733.552 243.017 734.093 243.145L735.653 243.503C736.556 243.712 737.23 244.033 737.673 244.468C738.116 244.903 738.338 245.467 738.338 246.162C738.338 246.75 738.167 247.274 737.826 247.734C737.49 248.19 737.019 248.548 736.414 248.808C735.813 249.068 735.116 249.198 734.324 249.198C733.224 249.198 732.327 248.964 731.632 248.495C730.938 248.022 730.512 247.351 730.354 246.482L732.201 246.2C732.316 246.682 732.553 247.046 732.911 247.293C733.269 247.536 733.735 247.658 734.311 247.658C734.937 247.658 735.438 247.528 735.813 247.268C736.188 247.004 736.375 246.682 736.375 246.303C736.375 245.996 736.26 245.738 736.03 245.529C735.804 245.32 735.457 245.163 734.988 245.056L733.326 244.692C732.41 244.483 731.733 244.151 731.294 243.695C730.859 243.239 730.642 242.661 730.642 241.962C730.642 241.383 730.804 240.876 731.127 240.441C731.451 240.006 731.899 239.668 732.47 239.425C733.041 239.178 733.695 239.054 734.432 239.054C735.493 239.054 736.328 239.284 736.938 239.744C737.547 240.2 737.95 240.812 738.146 241.579ZM741.647 252.682C741.362 252.682 741.102 252.658 740.867 252.612C740.633 252.569 740.458 252.522 740.343 252.471L740.803 250.905C741.153 250.999 741.464 251.039 741.737 251.026C742.009 251.013 742.25 250.911 742.459 250.719C742.672 250.528 742.86 250.214 743.021 249.78L743.258 249.128L739.666 239.182H741.711L744.198 246.801H744.3L746.786 239.182H748.838L744.792 250.31C744.605 250.822 744.366 251.254 744.076 251.608C743.786 251.966 743.441 252.234 743.041 252.413C742.64 252.592 742.176 252.682 741.647 252.682ZM752.546 243.17V249H750.634V239.182H752.469V240.78H752.59C752.816 240.26 753.17 239.842 753.651 239.527C754.137 239.212 754.749 239.054 755.486 239.054C756.155 239.054 756.741 239.195 757.244 239.476C757.747 239.753 758.137 240.166 758.414 240.716C758.691 241.266 758.829 241.945 758.829 242.755V249H756.918V242.985C756.918 242.273 756.732 241.717 756.362 241.317C755.991 240.912 755.482 240.71 754.834 240.71C754.391 240.71 753.997 240.805 753.651 240.997C753.311 241.189 753.04 241.47 752.84 241.841C752.644 242.207 752.546 242.651 752.546 243.17ZM765.975 239.182V240.716H760.612V239.182H765.975ZM762.051 236.83H763.962V246.117C763.962 246.488 764.017 246.767 764.128 246.955C764.239 247.138 764.382 247.263 764.556 247.332C764.735 247.396 764.929 247.428 765.138 247.428C765.291 247.428 765.426 247.417 765.541 247.396C765.656 247.374 765.745 247.357 765.809 247.344L766.154 248.923C766.044 248.966 765.886 249.009 765.681 249.051C765.477 249.098 765.221 249.124 764.914 249.128C764.411 249.136 763.943 249.047 763.508 248.859C763.073 248.672 762.722 248.382 762.453 247.99C762.185 247.598 762.051 247.106 762.051 246.513V236.83ZM770.947 249.217C770.325 249.217 769.762 249.102 769.259 248.872C768.756 248.638 768.358 248.299 768.064 247.856C767.774 247.413 767.629 246.869 767.629 246.226C767.629 245.672 767.736 245.216 767.949 244.858C768.162 244.5 768.45 244.217 768.812 244.008C769.174 243.799 769.579 243.641 770.026 243.535C770.474 243.428 770.93 243.347 771.394 243.292C771.982 243.224 772.46 243.168 772.826 243.126C773.192 243.079 773.459 243.004 773.625 242.902C773.791 242.8 773.874 242.634 773.874 242.403V242.359C773.874 241.8 773.717 241.368 773.401 241.061C773.09 240.754 772.626 240.601 772.008 240.601C771.364 240.601 770.857 240.744 770.487 241.029C770.12 241.31 769.866 241.624 769.726 241.969L767.93 241.56C768.143 240.963 768.454 240.482 768.863 240.115C769.276 239.744 769.751 239.476 770.288 239.31C770.825 239.139 771.39 239.054 771.982 239.054C772.374 239.054 772.79 239.101 773.229 239.195C773.672 239.284 774.085 239.45 774.469 239.693C774.857 239.936 775.174 240.283 775.421 240.735C775.668 241.183 775.792 241.764 775.792 242.48V249H773.925V247.658H773.849C773.725 247.905 773.54 248.148 773.293 248.386C773.045 248.625 772.728 248.823 772.34 248.981C771.952 249.138 771.488 249.217 770.947 249.217ZM771.362 247.683C771.891 247.683 772.342 247.579 772.717 247.37C773.097 247.161 773.384 246.888 773.58 246.552C773.781 246.211 773.881 245.847 773.881 245.459V244.193C773.813 244.261 773.68 244.325 773.484 244.385C773.293 244.44 773.073 244.489 772.826 244.532C772.579 244.57 772.338 244.607 772.104 244.641C771.869 244.67 771.673 244.696 771.516 244.717C771.145 244.764 770.806 244.843 770.499 244.954C770.197 245.065 769.954 245.224 769.771 245.433C769.592 245.638 769.502 245.911 769.502 246.251C769.502 246.724 769.677 247.082 770.026 247.325C770.376 247.564 770.821 247.683 771.362 247.683ZM779.846 239.182L782.013 243.004L784.199 239.182H786.289L783.227 244.091L786.315 249H784.225L782.013 245.331L779.808 249H777.711L780.767 244.091L777.749 239.182H779.846ZM793.015 252.682V239.182H794.882V240.773H795.042C795.152 240.569 795.312 240.332 795.521 240.064C795.73 239.795 796.02 239.561 796.39 239.361C796.761 239.156 797.251 239.054 797.86 239.054C798.653 239.054 799.36 239.254 799.983 239.655C800.605 240.055 801.093 240.633 801.446 241.387C801.804 242.141 801.983 243.049 801.983 244.11C801.983 245.171 801.806 246.081 801.453 246.839C801.099 247.594 800.613 248.175 799.995 248.585C799.377 248.989 798.672 249.192 797.88 249.192C797.283 249.192 796.795 249.092 796.416 248.891C796.041 248.691 795.747 248.457 795.534 248.188C795.321 247.92 795.157 247.681 795.042 247.472H794.926V252.682H793.015ZM794.888 244.091C794.888 244.781 794.988 245.386 795.189 245.906C795.389 246.426 795.679 246.833 796.058 247.127C796.437 247.417 796.902 247.562 797.451 247.562C798.022 247.562 798.5 247.411 798.883 247.108C799.267 246.801 799.556 246.386 799.752 245.862C799.953 245.337 800.053 244.747 800.053 244.091C800.053 243.443 799.955 242.862 799.759 242.346C799.567 241.83 799.277 241.423 798.89 241.125C798.506 240.827 798.027 240.678 797.451 240.678C796.897 240.678 796.429 240.82 796.045 241.106C795.666 241.391 795.378 241.79 795.182 242.301C794.986 242.812 794.888 243.409 794.888 244.091ZM804.125 249V239.182H805.972V240.741H806.074C806.253 240.213 806.569 239.798 807.02 239.495C807.476 239.188 807.992 239.035 808.567 239.035C808.686 239.035 808.827 239.039 808.989 239.048C809.155 239.056 809.285 239.067 809.379 239.08V240.908C809.302 240.886 809.166 240.863 808.97 240.837C808.774 240.808 808.578 240.793 808.382 240.793C807.93 240.793 807.527 240.888 807.174 241.08C806.824 241.268 806.547 241.53 806.343 241.866C806.138 242.199 806.036 242.578 806.036 243.004V249H804.125ZM814.817 249.198C813.896 249.198 813.093 248.987 812.407 248.565C811.721 248.143 811.188 247.553 810.809 246.795C810.43 246.036 810.24 245.15 810.24 244.136C810.24 243.117 810.43 242.227 810.809 241.464C811.188 240.701 811.721 240.109 812.407 239.687C813.093 239.265 813.896 239.054 814.817 239.054C815.737 239.054 816.541 239.265 817.227 239.687C817.913 240.109 818.445 240.701 818.825 241.464C819.204 242.227 819.394 243.117 819.394 244.136C819.394 245.15 819.204 246.036 818.825 246.795C818.445 247.553 817.913 248.143 817.227 248.565C816.541 248.987 815.737 249.198 814.817 249.198ZM814.823 247.594C815.42 247.594 815.914 247.436 816.306 247.121C816.698 246.805 816.988 246.386 817.176 245.862C817.367 245.337 817.463 244.76 817.463 244.129C817.463 243.503 817.367 242.928 817.176 242.403C816.988 241.875 816.698 241.451 816.306 241.131C815.914 240.812 815.42 240.652 814.823 240.652C814.222 240.652 813.724 240.812 813.328 241.131C812.936 241.451 812.644 241.875 812.452 242.403C812.264 242.928 812.171 243.503 812.171 244.129C812.171 244.76 812.264 245.337 812.452 245.862C812.644 246.386 812.936 246.805 813.328 247.121C813.724 247.436 814.222 247.594 814.823 247.594ZM821.68 249V235.909H823.592V240.773H823.707C823.817 240.569 823.977 240.332 824.186 240.064C824.395 239.795 824.685 239.561 825.055 239.361C825.426 239.156 825.916 239.054 826.526 239.054C827.318 239.054 828.026 239.254 828.648 239.655C829.27 240.055 829.758 240.633 830.112 241.387C830.469 242.141 830.648 243.049 830.648 244.11C830.648 245.171 830.472 246.081 830.118 246.839C829.764 247.594 829.278 248.175 828.661 248.585C828.043 248.989 827.337 249.192 826.545 249.192C825.948 249.192 825.46 249.092 825.081 248.891C824.706 248.691 824.412 248.457 824.199 248.188C823.986 247.92 823.822 247.681 823.707 247.472H823.547V249H821.68ZM823.553 244.091C823.553 244.781 823.653 245.386 823.854 245.906C824.054 246.426 824.344 246.833 824.723 247.127C825.102 247.417 825.567 247.562 826.116 247.562C826.688 247.562 827.165 247.411 827.548 247.108C827.932 246.801 828.222 246.386 828.418 245.862C828.618 245.337 828.718 244.747 828.718 244.091C828.718 243.443 828.62 242.862 828.424 242.346C828.232 241.83 827.942 241.423 827.555 241.125C827.171 240.827 826.692 240.678 826.116 240.678C825.562 240.678 825.094 240.82 824.71 241.106C824.331 241.391 824.043 241.79 823.847 242.301C823.651 242.812 823.553 243.409 823.553 244.091ZM834.706 235.909V249H832.795V235.909H834.706ZM841.509 249.198C840.541 249.198 839.708 248.991 839.009 248.578C838.315 248.161 837.778 247.575 837.398 246.82C837.023 246.062 836.836 245.173 836.836 244.155C836.836 243.149 837.023 242.263 837.398 241.496C837.778 240.729 838.306 240.13 838.984 239.7C839.665 239.269 840.462 239.054 841.374 239.054C841.928 239.054 842.465 239.146 842.985 239.329C843.505 239.512 843.972 239.8 844.385 240.192C844.798 240.584 845.124 241.093 845.363 241.719C845.602 242.342 845.721 243.098 845.721 243.989V244.666H837.916V243.234H843.848C843.848 242.732 843.746 242.286 843.541 241.898C843.337 241.506 843.049 241.197 842.678 240.972C842.312 240.746 841.881 240.633 841.387 240.633C840.85 240.633 840.381 240.765 839.981 241.029C839.585 241.289 839.278 241.63 839.06 242.052C838.847 242.469 838.741 242.923 838.741 243.413V244.532C838.741 245.188 838.856 245.746 839.086 246.207C839.32 246.667 839.646 247.018 840.064 247.261C840.482 247.5 840.969 247.619 841.528 247.619C841.89 247.619 842.22 247.568 842.518 247.466C842.817 247.359 843.075 247.202 843.292 246.993C843.509 246.784 843.675 246.526 843.79 246.219L845.599 246.545C845.455 247.078 845.195 247.545 844.82 247.945C844.449 248.342 843.982 248.651 843.42 248.872C842.862 249.089 842.224 249.198 841.509 249.198ZM847.841 249V239.182H849.676V240.78H849.797C850.002 240.239 850.336 239.817 850.801 239.514C851.265 239.207 851.822 239.054 852.469 239.054C853.126 239.054 853.675 239.207 854.118 239.514C854.566 239.821 854.896 240.243 855.109 240.78H855.211C855.446 240.256 855.819 239.838 856.33 239.527C856.841 239.212 857.451 239.054 858.158 239.054C859.049 239.054 859.775 239.333 860.338 239.891C860.905 240.45 861.188 241.291 861.188 242.416V249H859.277V242.595C859.277 241.93 859.096 241.449 858.733 241.151C858.371 240.852 857.939 240.703 857.436 240.703C856.814 240.703 856.33 240.895 855.985 241.278C855.64 241.658 855.467 242.146 855.467 242.742V249H853.562V242.474C853.562 241.941 853.396 241.513 853.064 241.189C852.731 240.865 852.299 240.703 851.766 240.703C851.404 240.703 851.069 240.799 850.763 240.991C850.46 241.178 850.215 241.44 850.028 241.777C849.844 242.114 849.753 242.504 849.753 242.947V249H847.841ZM871.107 241.579L869.375 241.886C869.302 241.664 869.187 241.453 869.029 241.253C868.876 241.053 868.667 240.888 868.403 240.761C868.139 240.633 867.809 240.569 867.412 240.569C866.871 240.569 866.419 240.69 866.057 240.933C865.695 241.172 865.514 241.481 865.514 241.86C865.514 242.188 865.635 242.452 865.878 242.653C866.121 242.853 866.513 243.017 867.054 243.145L868.614 243.503C869.517 243.712 870.191 244.033 870.634 244.468C871.077 244.903 871.299 245.467 871.299 246.162C871.299 246.75 871.128 247.274 870.787 247.734C870.451 248.19 869.98 248.548 869.375 248.808C868.774 249.068 868.077 249.198 867.284 249.198C866.185 249.198 865.288 248.964 864.593 248.495C863.899 248.022 863.473 247.351 863.315 246.482L865.162 246.2C865.277 246.682 865.514 247.046 865.872 247.293C866.23 247.536 866.696 247.658 867.272 247.658C867.898 247.658 868.399 247.528 868.774 247.268C869.149 247.004 869.336 246.682 869.336 246.303C869.336 245.996 869.221 245.738 868.991 245.529C868.765 245.32 868.418 245.163 867.949 245.056L866.287 244.692C865.371 244.483 864.694 244.151 864.255 243.695C863.82 243.239 863.603 242.661 863.603 241.962C863.603 241.383 863.765 240.876 864.088 240.441C864.412 240.006 864.86 239.668 865.431 239.425C866.002 239.178 866.656 239.054 867.393 239.054C868.454 239.054 869.289 239.284 869.899 239.744C870.508 240.2 870.911 240.812 871.107 241.579ZM874.659 249.121C874.31 249.121 874.009 248.998 873.758 248.751C873.507 248.499 873.381 248.197 873.381 247.843C873.381 247.494 873.507 247.195 873.758 246.948C874.009 246.697 874.31 246.571 874.659 246.571C875.009 246.571 875.309 246.697 875.561 246.948C875.812 247.195 875.938 247.494 875.938 247.843C875.938 248.077 875.878 248.293 875.759 248.489C875.644 248.68 875.49 248.834 875.298 248.949C875.107 249.064 874.894 249.121 874.659 249.121Z" fill="#E0E0E0"/>
<path d="M890.97 249.205L884.399 242.634C883.875 242.109 883.526 241.5 883.351 240.805C883.18 240.111 883.183 239.42 883.357 238.734C883.532 238.044 883.879 237.443 884.399 236.932C884.932 236.408 885.539 236.06 886.221 235.89C886.907 235.715 887.591 235.715 888.273 235.89C888.959 236.065 889.568 236.412 890.101 236.932L890.97 237.776L891.839 236.932C892.376 236.412 892.986 236.065 893.668 235.89C894.349 235.715 895.031 235.715 895.713 235.89C896.399 236.06 897.009 236.408 897.541 236.932C898.061 237.443 898.408 238.044 898.583 238.734C898.758 239.42 898.758 240.111 898.583 240.805C898.413 241.5 898.065 242.109 897.541 242.634L890.97 249.205Z" fill="#FD5C5C"/>
<path d="M423 217C423 221.243 421.314 225.313 418.314 228.314C415.313 231.314 411.243 233 407 233C402.757 233 398.687 231.314 395.686 228.314C392.686 225.313 391 221.243 391 217L407 217H423Z" fill="#E4E4E4"/>
<line x1="597.5" y1="153" x2="597.5" y2="261" stroke="#A6A6A6"/>
<path d="M554.751 194.975C555.535 200.218 552.334 205.93 545.558 211.8C538.805 217.65 528.615 223.552 515.727 229.163C489.958 240.382 453.509 250.392 412.494 256.522C371.478 262.651 333.696 263.735 305.773 260.541C291.807 258.943 280.337 256.279 272.168 252.658C263.972 249.026 259.241 244.499 258.458 239.256C257.674 234.012 260.875 228.3 267.65 222.431C274.404 216.58 284.594 210.679 297.482 205.068C323.251 193.849 359.699 183.839 400.715 177.709C441.731 171.579 479.513 170.496 507.436 173.69C521.401 175.287 532.872 177.952 541.041 181.572C549.237 185.204 553.967 189.731 554.751 194.975Z" stroke="#C0C0C0"/>
<circle cx="290" cy="208" r="7" fill="#E4E4E4"/>
<path d="M445 217.294C445 218.411 444.212 219.632 442.459 220.86C440.724 222.076 438.143 223.225 434.806 224.214C428.14 226.191 418.566 227.5 407 227.5C395.434 227.5 386.238 226.191 379.951 224.217C376.805 223.229 374.415 222.083 372.822 220.871C371.221 219.654 370.5 218.432 370.5 217.294C370.5 216.159 371.217 214.964 372.816 213.786C374.408 212.613 376.797 211.517 379.944 210.58C386.233 208.707 395.43 207.5 407 207.5C418.569 207.5 428.145 208.707 434.813 210.582C438.15 211.52 440.731 212.618 442.465 213.797C444.216 214.986 445 216.181 445 217.294Z" stroke="#C0C0C0"/>
<path d="M391 217C391 212.757 392.686 208.687 395.686 205.686C398.687 202.686 402.757 201 407 201C411.243 201 415.313 202.686 418.314 205.686C421.314 208.687 423 212.757 423 217L407 217H391Z" fill="#E4E4E4"/>
<path d="M376 221C376 222.657 374.657 224 373 224C371.343 224 370 222.657 370 221C370 219.343 371.343 218 373 218C374.657 218 376 219.343 376 221Z" fill="#E4E4E4"/>
</svg>
