<svg width="1200" height="420" viewBox="0 0 1200 420" fill="none" xmlns="http://www.w3.org/2000/svg">
<rect width="1200" height="420" rx="16" fill="#011635"/>
<line x1="543.5" y1="148" x2="543.5" y2="256" stroke="#A6A6A6"/>
<path d="M612.047 163H614.469V173.523C614.469 174.643 614.206 175.635 613.68 176.5C613.154 177.359 612.414 178.036 611.461 178.531C610.508 179.021 609.391 179.266 608.109 179.266C606.833 179.266 605.719 179.021 604.766 178.531C603.813 178.036 603.073 177.359 602.547 176.5C602.021 175.635 601.758 174.643 601.758 173.523V163H604.172V173.328C604.172 174.052 604.331 174.695 604.648 175.258C604.971 175.82 605.427 176.263 606.016 176.586C606.604 176.904 607.302 177.062 608.109 177.062C608.922 177.062 609.622 176.904 610.211 176.586C610.805 176.263 611.258 175.82 611.57 175.258C611.888 174.695 612.047 174.052 612.047 173.328V163ZM626.783 169.93L624.666 170.305C624.577 170.034 624.437 169.776 624.244 169.531C624.057 169.286 623.801 169.086 623.479 168.93C623.156 168.773 622.752 168.695 622.268 168.695C621.606 168.695 621.054 168.844 620.611 169.141C620.169 169.432 619.947 169.81 619.947 170.273C619.947 170.674 620.096 170.997 620.393 171.242C620.689 171.487 621.169 171.687 621.83 171.844L623.736 172.281C624.84 172.536 625.663 172.93 626.205 173.461C626.747 173.992 627.018 174.682 627.018 175.531C627.018 176.25 626.809 176.891 626.393 177.453C625.981 178.01 625.406 178.448 624.666 178.766C623.932 179.083 623.08 179.242 622.111 179.242C620.768 179.242 619.671 178.956 618.822 178.383C617.973 177.805 617.452 176.984 617.26 175.922L619.518 175.578C619.658 176.167 619.947 176.612 620.385 176.914C620.822 177.211 621.393 177.359 622.096 177.359C622.861 177.359 623.473 177.201 623.932 176.883C624.39 176.56 624.619 176.167 624.619 175.703C624.619 175.328 624.479 175.013 624.197 174.758C623.921 174.503 623.497 174.31 622.924 174.18L620.893 173.734C619.773 173.479 618.945 173.073 618.408 172.516C617.877 171.958 617.611 171.253 617.611 170.398C617.611 169.69 617.809 169.07 618.205 168.539C618.601 168.008 619.148 167.594 619.846 167.297C620.544 166.995 621.343 166.844 622.244 166.844C623.541 166.844 624.562 167.125 625.307 167.687C626.051 168.245 626.544 168.992 626.783 169.93ZM634.758 179.242C633.576 179.242 632.557 178.99 631.703 178.484C630.854 177.974 630.198 177.258 629.734 176.336C629.276 175.409 629.047 174.323 629.047 173.078C629.047 171.849 629.276 170.766 629.734 169.828C630.198 168.891 630.844 168.159 631.672 167.633C632.505 167.107 633.479 166.844 634.594 166.844C635.271 166.844 635.927 166.956 636.563 167.18C637.198 167.404 637.768 167.755 638.273 168.234C638.779 168.714 639.177 169.336 639.469 170.102C639.76 170.862 639.906 171.786 639.906 172.875V173.703H630.367V171.953H637.617C637.617 171.339 637.492 170.794 637.242 170.32C636.992 169.841 636.641 169.464 636.188 169.187C635.74 168.911 635.214 168.773 634.609 168.773C633.953 168.773 633.38 168.935 632.891 169.258C632.406 169.576 632.031 169.992 631.766 170.508C631.505 171.018 631.375 171.573 631.375 172.172V173.539C631.375 174.341 631.516 175.023 631.797 175.586C632.083 176.148 632.482 176.578 632.992 176.875C633.503 177.167 634.099 177.312 634.781 177.312C635.224 177.312 635.628 177.25 635.992 177.125C636.357 176.995 636.672 176.802 636.938 176.547C637.203 176.292 637.406 175.977 637.547 175.602L639.758 176C639.581 176.651 639.263 177.221 638.805 177.711C638.352 178.195 637.781 178.573 637.094 178.844C636.411 179.109 635.633 179.242 634.758 179.242ZM653.492 179.242C652.31 179.242 651.292 178.99 650.438 178.484C649.589 177.974 648.932 177.258 648.469 176.336C648.01 175.409 647.781 174.323 647.781 173.078C647.781 171.849 648.01 170.766 648.469 169.828C648.932 168.891 649.578 168.159 650.406 167.633C651.24 167.107 652.214 166.844 653.328 166.844C654.005 166.844 654.661 166.956 655.297 167.18C655.932 167.404 656.503 167.755 657.008 168.234C657.513 168.714 657.911 169.336 658.203 170.102C658.495 170.862 658.641 171.786 658.641 172.875V173.703H649.102V171.953H656.352C656.352 171.339 656.227 170.794 655.977 170.32C655.727 169.841 655.375 169.464 654.922 169.187C654.474 168.911 653.948 168.773 653.344 168.773C652.688 168.773 652.115 168.935 651.625 169.258C651.141 169.576 650.766 169.992 650.5 170.508C650.24 171.018 650.109 171.573 650.109 172.172V173.539C650.109 174.341 650.25 175.023 650.531 175.586C650.818 176.148 651.216 176.578 651.727 176.875C652.237 177.167 652.833 177.312 653.516 177.312C653.958 177.312 654.362 177.25 654.727 177.125C655.091 176.995 655.406 176.802 655.672 176.547C655.938 176.292 656.141 175.977 656.281 175.602L658.492 176C658.315 176.651 657.997 177.221 657.539 177.711C657.086 178.195 656.516 178.573 655.828 178.844C655.146 179.109 654.367 179.242 653.492 179.242ZM663.568 171.875V179H661.232V167H663.475V168.953H663.623C663.899 168.318 664.331 167.807 664.92 167.422C665.514 167.036 666.261 166.844 667.162 166.844C667.98 166.844 668.696 167.016 669.311 167.359C669.925 167.698 670.402 168.203 670.74 168.875C671.079 169.547 671.248 170.378 671.248 171.367V179H668.912V171.648C668.912 170.779 668.686 170.099 668.232 169.609C667.779 169.115 667.157 168.867 666.365 168.867C665.824 168.867 665.342 168.984 664.92 169.219C664.503 169.453 664.173 169.797 663.928 170.25C663.688 170.698 663.568 171.24 663.568 171.875ZM679.412 183.75C678.459 183.75 677.639 183.625 676.951 183.375C676.269 183.125 675.712 182.794 675.279 182.383C674.847 181.971 674.524 181.521 674.311 181.031L676.318 180.203C676.459 180.432 676.646 180.674 676.881 180.93C677.12 181.19 677.443 181.411 677.85 181.594C678.261 181.776 678.79 181.867 679.436 181.867C680.321 181.867 681.053 181.651 681.631 181.219C682.209 180.792 682.498 180.109 682.498 179.172V176.812H682.35C682.209 177.068 682.006 177.352 681.74 177.664C681.48 177.977 681.12 178.247 680.662 178.477C680.204 178.706 679.607 178.82 678.873 178.82C677.925 178.82 677.071 178.599 676.311 178.156C675.555 177.708 674.956 177.049 674.514 176.18C674.076 175.305 673.857 174.229 673.857 172.953C673.857 171.677 674.074 170.583 674.506 169.672C674.943 168.76 675.542 168.062 676.303 167.578C677.063 167.089 677.925 166.844 678.889 166.844C679.633 166.844 680.235 166.969 680.693 167.219C681.152 167.464 681.508 167.75 681.764 168.078C682.024 168.406 682.225 168.695 682.365 168.945H682.537V167H684.826V179.266C684.826 180.297 684.587 181.143 684.107 181.805C683.628 182.466 682.98 182.956 682.162 183.273C681.35 183.591 680.433 183.75 679.412 183.75ZM679.389 176.883C680.061 176.883 680.628 176.727 681.092 176.414C681.561 176.096 681.915 175.643 682.154 175.055C682.399 174.461 682.521 173.75 682.521 172.922C682.521 172.115 682.402 171.404 682.162 170.789C681.923 170.174 681.571 169.695 681.107 169.352C680.644 169.003 680.071 168.828 679.389 168.828C678.686 168.828 678.1 169.01 677.631 169.375C677.162 169.734 676.808 170.224 676.568 170.844C676.334 171.464 676.217 172.156 676.217 172.922C676.217 173.708 676.337 174.398 676.576 174.992C676.816 175.586 677.17 176.049 677.639 176.383C678.113 176.716 678.696 176.883 679.389 176.883ZM687.959 179V167H690.295V179H687.959ZM689.139 165.148C688.732 165.148 688.383 165.013 688.092 164.742C687.805 164.466 687.662 164.138 687.662 163.758C687.662 163.372 687.805 163.044 688.092 162.773C688.383 162.497 688.732 162.359 689.139 162.359C689.545 162.359 689.891 162.497 690.178 162.773C690.469 163.044 690.615 163.372 690.615 163.758C690.615 164.138 690.469 164.466 690.178 164.742C689.891 165.013 689.545 165.148 689.139 165.148ZM695.773 171.875V179H693.438V167H695.68V168.953H695.828C696.104 168.318 696.536 167.807 697.125 167.422C697.719 167.036 698.466 166.844 699.367 166.844C700.185 166.844 700.901 167.016 701.516 167.359C702.13 167.698 702.607 168.203 702.945 168.875C703.284 169.547 703.453 170.378 703.453 171.367V179H701.117V171.648C701.117 170.779 700.891 170.099 700.437 169.609C699.984 169.115 699.362 168.867 698.57 168.867C698.029 168.867 697.547 168.984 697.125 169.219C696.708 169.453 696.378 169.797 696.133 170.25C695.893 170.698 695.773 171.24 695.773 171.875ZM711.758 179.242C710.576 179.242 709.557 178.99 708.703 178.484C707.854 177.974 707.198 177.258 706.734 176.336C706.276 175.409 706.047 174.323 706.047 173.078C706.047 171.849 706.276 170.766 706.734 169.828C707.198 168.891 707.844 168.159 708.672 167.633C709.505 167.107 710.479 166.844 711.594 166.844C712.271 166.844 712.927 166.956 713.563 167.18C714.198 167.404 714.768 167.755 715.273 168.234C715.779 168.714 716.177 169.336 716.469 170.102C716.76 170.862 716.906 171.786 716.906 172.875V173.703H707.367V171.953H714.617C714.617 171.339 714.492 170.794 714.242 170.32C713.992 169.841 713.641 169.464 713.188 169.187C712.74 168.911 712.214 168.773 711.609 168.773C710.953 168.773 710.38 168.935 709.891 169.258C709.406 169.576 709.031 169.992 708.766 170.508C708.505 171.018 708.375 171.573 708.375 172.172V173.539C708.375 174.341 708.516 175.023 708.797 175.586C709.083 176.148 709.482 176.578 709.992 176.875C710.503 177.167 711.099 177.312 711.781 177.312C712.224 177.312 712.628 177.25 712.992 177.125C713.357 176.995 713.672 176.802 713.938 176.547C714.203 176.292 714.406 175.977 714.547 175.602L716.758 176C716.581 176.651 716.263 177.221 715.805 177.711C715.352 178.195 714.781 178.573 714.094 178.844C713.411 179.109 712.633 179.242 711.758 179.242ZM724.67 179.242C723.488 179.242 722.469 178.99 721.615 178.484C720.766 177.974 720.11 177.258 719.646 176.336C719.188 175.409 718.959 174.323 718.959 173.078C718.959 171.849 719.188 170.766 719.646 169.828C720.11 168.891 720.756 168.159 721.584 167.633C722.417 167.107 723.391 166.844 724.506 166.844C725.183 166.844 725.839 166.956 726.475 167.18C727.11 167.404 727.68 167.755 728.186 168.234C728.691 168.714 729.089 169.336 729.381 170.102C729.673 170.862 729.818 171.786 729.818 172.875V173.703H720.279V171.953H727.529C727.529 171.339 727.404 170.794 727.154 170.32C726.904 169.841 726.553 169.464 726.1 169.187C725.652 168.911 725.126 168.773 724.521 168.773C723.865 168.773 723.292 168.935 722.803 169.258C722.318 169.576 721.943 169.992 721.678 170.508C721.417 171.018 721.287 171.573 721.287 172.172V173.539C721.287 174.341 721.428 175.023 721.709 175.586C721.995 176.148 722.394 176.578 722.904 176.875C723.415 177.167 724.011 177.312 724.693 177.312C725.136 177.312 725.54 177.25 725.904 177.125C726.269 176.995 726.584 176.802 726.85 176.547C727.115 176.292 727.318 175.977 727.459 175.602L729.67 176C729.493 176.651 729.175 177.221 728.717 177.711C728.264 178.195 727.693 178.573 727.006 178.844C726.324 179.109 725.545 179.242 724.67 179.242ZM732.41 179V167H734.668V168.906H734.793C735.012 168.26 735.397 167.753 735.949 167.383C736.507 167.008 737.137 166.82 737.84 166.82C737.986 166.82 738.158 166.826 738.355 166.836C738.559 166.846 738.717 166.859 738.832 166.875V169.109C738.738 169.083 738.572 169.055 738.332 169.023C738.092 168.987 737.853 168.969 737.613 168.969C737.061 168.969 736.569 169.086 736.137 169.32C735.71 169.549 735.371 169.87 735.121 170.281C734.871 170.687 734.746 171.151 734.746 171.672V179H732.41ZM740.854 179V167H743.189V179H740.854ZM742.033 165.148C741.627 165.148 741.278 165.013 740.986 164.742C740.7 164.466 740.557 164.138 740.557 163.758C740.557 163.372 740.7 163.044 740.986 162.773C741.278 162.497 741.627 162.359 742.033 162.359C742.439 162.359 742.786 162.497 743.072 162.773C743.364 163.044 743.51 163.372 743.51 163.758C743.51 164.138 743.364 164.466 743.072 164.742C742.786 165.013 742.439 165.148 742.033 165.148ZM748.668 171.875V179H746.332V167H748.574V168.953H748.723C748.999 168.318 749.431 167.807 750.02 167.422C750.613 167.036 751.361 166.844 752.262 166.844C753.079 166.844 753.796 167.016 754.41 167.359C755.025 167.698 755.501 168.203 755.84 168.875C756.178 169.547 756.348 170.378 756.348 171.367V179H754.012V171.648C754.012 170.779 753.785 170.099 753.332 169.609C752.879 169.115 752.257 168.867 751.465 168.867C750.923 168.867 750.441 168.984 750.02 169.219C749.603 169.453 749.272 169.797 749.027 170.25C748.788 170.698 748.668 171.24 748.668 171.875ZM764.512 183.75C763.559 183.75 762.738 183.625 762.051 183.375C761.368 183.125 760.811 182.794 760.379 182.383C759.947 181.971 759.624 181.521 759.41 181.031L761.418 180.203C761.559 180.432 761.746 180.674 761.98 180.93C762.22 181.19 762.543 181.411 762.949 181.594C763.361 181.776 763.889 181.867 764.535 181.867C765.421 181.867 766.152 181.651 766.73 181.219C767.309 180.792 767.598 180.109 767.598 179.172V176.812H767.449C767.309 177.068 767.105 177.352 766.84 177.664C766.579 177.977 766.22 178.247 765.762 178.477C765.303 178.706 764.707 178.82 763.973 178.82C763.025 178.82 762.171 178.599 761.41 178.156C760.655 177.708 760.056 177.049 759.613 176.18C759.176 175.305 758.957 174.229 758.957 172.953C758.957 171.677 759.173 170.583 759.605 169.672C760.043 168.76 760.642 168.062 761.402 167.578C762.163 167.089 763.025 166.844 763.988 166.844C764.733 166.844 765.335 166.969 765.793 167.219C766.251 167.464 766.608 167.75 766.863 168.078C767.124 168.406 767.324 168.695 767.465 168.945H767.637V167H769.926V179.266C769.926 180.297 769.686 181.143 769.207 181.805C768.728 182.466 768.079 182.956 767.262 183.273C766.449 183.591 765.533 183.75 764.512 183.75ZM764.488 176.883C765.16 176.883 765.728 176.727 766.191 176.414C766.66 176.096 767.014 175.643 767.254 175.055C767.499 174.461 767.621 173.75 767.621 172.922C767.621 172.115 767.501 171.404 767.262 170.789C767.022 170.174 766.671 169.695 766.207 169.352C765.743 169.003 765.171 168.828 764.488 168.828C763.785 168.828 763.199 169.01 762.73 169.375C762.262 169.734 761.908 170.224 761.668 170.844C761.434 171.464 761.316 172.156 761.316 172.922C761.316 173.708 761.436 174.398 761.676 174.992C761.915 175.586 762.27 176.049 762.738 176.383C763.212 176.716 763.796 176.883 764.488 176.883ZM778.881 179V167H781.123V168.953H781.271C781.521 168.292 781.93 167.776 782.498 167.406C783.066 167.031 783.745 166.844 784.537 166.844C785.339 166.844 786.011 167.031 786.553 167.406C787.1 167.781 787.503 168.297 787.764 168.953H787.889C788.175 168.312 788.631 167.802 789.256 167.422C789.881 167.036 790.626 166.844 791.49 166.844C792.579 166.844 793.467 167.185 794.154 167.867C794.847 168.549 795.193 169.578 795.193 170.953V179H792.857V171.172C792.857 170.359 792.636 169.771 792.193 169.406C791.751 169.042 791.222 168.859 790.607 168.859C789.847 168.859 789.256 169.094 788.834 169.562C788.412 170.026 788.201 170.622 788.201 171.352V179H785.873V171.023C785.873 170.372 785.67 169.849 785.264 169.453C784.857 169.057 784.329 168.859 783.678 168.859C783.235 168.859 782.826 168.977 782.451 169.211C782.081 169.44 781.782 169.76 781.553 170.172C781.329 170.583 781.217 171.06 781.217 171.602V179H778.881ZM803.496 179.242C802.314 179.242 801.296 178.99 800.441 178.484C799.592 177.974 798.936 177.258 798.473 176.336C798.014 175.409 797.785 174.323 797.785 173.078C797.785 171.849 798.014 170.766 798.473 169.828C798.936 168.891 799.582 168.159 800.41 167.633C801.243 167.107 802.217 166.844 803.332 166.844C804.009 166.844 804.665 166.956 805.301 167.18C805.936 167.404 806.507 167.755 807.012 168.234C807.517 168.714 807.915 169.336 808.207 170.102C808.499 170.862 808.645 171.786 808.645 172.875V173.703H799.105V171.953H806.355C806.355 171.339 806.23 170.794 805.98 170.32C805.73 169.841 805.379 169.464 804.926 169.187C804.478 168.911 803.952 168.773 803.348 168.773C802.691 168.773 802.118 168.935 801.629 169.258C801.145 169.576 800.77 169.992 800.504 170.508C800.243 171.018 800.113 171.573 800.113 172.172V173.539C800.113 174.341 800.254 175.023 800.535 175.586C800.822 176.148 801.22 176.578 801.73 176.875C802.241 177.167 802.837 177.312 803.52 177.312C803.962 177.312 804.366 177.25 804.73 177.125C805.095 176.995 805.41 176.802 805.676 176.547C805.941 176.292 806.145 175.977 806.285 175.602L808.496 176C808.319 176.651 808.001 177.221 807.543 177.711C807.09 178.195 806.52 178.573 805.832 178.844C805.15 179.109 804.371 179.242 803.496 179.242ZM816.838 167V168.875H810.283V167H816.838ZM812.041 164.125H814.377V175.477C814.377 175.93 814.445 176.271 814.58 176.5C814.715 176.724 814.89 176.878 815.104 176.961C815.322 177.039 815.559 177.078 815.814 177.078C816.002 177.078 816.166 177.065 816.307 177.039C816.447 177.013 816.557 176.992 816.635 176.977L817.057 178.906C816.921 178.958 816.729 179.01 816.479 179.063C816.229 179.12 815.916 179.151 815.541 179.156C814.926 179.167 814.354 179.057 813.822 178.828C813.291 178.599 812.861 178.245 812.533 177.766C812.205 177.286 812.041 176.685 812.041 175.961V164.125ZM822.016 171.875V179H819.68V163H821.984V168.953H822.133C822.414 168.307 822.844 167.794 823.422 167.414C824 167.034 824.755 166.844 825.688 166.844C826.51 166.844 827.229 167.013 827.844 167.352C828.464 167.69 828.943 168.195 829.281 168.867C829.625 169.534 829.797 170.367 829.797 171.367V179H827.461V171.648C827.461 170.768 827.234 170.086 826.781 169.602C826.328 169.112 825.698 168.867 824.891 168.867C824.339 168.867 823.844 168.984 823.406 169.219C822.974 169.453 822.633 169.797 822.383 170.25C822.138 170.698 822.016 171.24 822.016 171.875ZM837.969 179.242C836.844 179.242 835.862 178.984 835.023 178.469C834.185 177.953 833.534 177.232 833.07 176.305C832.607 175.378 832.375 174.294 832.375 173.055C832.375 171.81 832.607 170.721 833.07 169.789C833.534 168.857 834.185 168.133 835.023 167.617C835.862 167.102 836.844 166.844 837.969 166.844C839.094 166.844 840.076 167.102 840.914 167.617C841.753 168.133 842.404 168.857 842.867 169.789C843.331 170.721 843.563 171.81 843.563 173.055C843.563 174.294 843.331 175.378 842.867 176.305C842.404 177.232 841.753 177.953 840.914 178.469C840.076 178.984 839.094 179.242 837.969 179.242ZM837.977 177.281C838.706 177.281 839.31 177.089 839.789 176.703C840.268 176.318 840.622 175.805 840.852 175.164C841.086 174.523 841.203 173.818 841.203 173.047C841.203 172.281 841.086 171.578 840.852 170.937C840.622 170.292 840.268 169.773 839.789 169.383C839.31 168.992 838.706 168.797 837.977 168.797C837.242 168.797 836.633 168.992 836.148 169.383C835.669 169.773 835.313 170.292 835.078 170.937C834.849 171.578 834.734 172.281 834.734 173.047C834.734 173.818 834.849 174.523 835.078 175.164C835.313 175.805 835.669 176.318 836.148 176.703C836.633 177.089 837.242 177.281 837.977 177.281ZM850.662 179.234C849.693 179.234 848.829 178.987 848.068 178.492C847.313 177.992 846.719 177.281 846.287 176.359C845.86 175.432 845.646 174.32 845.646 173.023C845.646 171.727 845.863 170.617 846.295 169.695C846.732 168.773 847.331 168.068 848.092 167.578C848.852 167.089 849.714 166.844 850.678 166.844C851.423 166.844 852.021 166.969 852.475 167.219C852.933 167.464 853.287 167.75 853.537 168.078C853.792 168.406 853.99 168.695 854.131 168.945H854.271V163H856.607V179H854.326V177.133H854.131C853.99 177.388 853.787 177.68 853.521 178.008C853.261 178.336 852.902 178.622 852.443 178.867C851.985 179.112 851.391 179.234 850.662 179.234ZM851.178 177.242C851.85 177.242 852.417 177.065 852.881 176.711C853.35 176.352 853.704 175.854 853.943 175.219C854.188 174.583 854.311 173.844 854.311 173C854.311 172.167 854.191 171.437 853.951 170.812C853.712 170.187 853.36 169.701 852.896 169.352C852.433 169.003 851.86 168.828 851.178 168.828C850.475 168.828 849.889 169.01 849.42 169.375C848.951 169.74 848.597 170.237 848.357 170.867C848.123 171.497 848.006 172.208 848.006 173C848.006 173.802 848.126 174.523 848.365 175.164C848.605 175.805 848.959 176.312 849.428 176.687C849.902 177.057 850.485 177.242 851.178 177.242ZM868.934 169.93L866.816 170.305C866.728 170.034 866.587 169.776 866.395 169.531C866.207 169.286 865.952 169.086 865.629 168.93C865.306 168.773 864.902 168.695 864.418 168.695C863.757 168.695 863.204 168.844 862.762 169.141C862.319 169.432 862.098 169.81 862.098 170.273C862.098 170.674 862.246 170.997 862.543 171.242C862.84 171.487 863.319 171.687 863.98 171.844L865.887 172.281C866.991 172.536 867.814 172.93 868.355 173.461C868.897 173.992 869.168 174.682 869.168 175.531C869.168 176.25 868.96 176.891 868.543 177.453C868.132 178.01 867.556 178.448 866.816 178.766C866.082 179.083 865.23 179.242 864.262 179.242C862.918 179.242 861.822 178.956 860.973 178.383C860.124 177.805 859.603 176.984 859.41 175.922L861.668 175.578C861.809 176.167 862.098 176.612 862.535 176.914C862.973 177.211 863.543 177.359 864.246 177.359C865.012 177.359 865.624 177.201 866.082 176.883C866.54 176.56 866.77 176.167 866.77 175.703C866.77 175.328 866.629 175.013 866.348 174.758C866.072 174.503 865.647 174.31 865.074 174.18L863.043 173.734C861.923 173.479 861.095 173.073 860.559 172.516C860.027 171.958 859.762 171.253 859.762 170.398C859.762 169.69 859.96 169.07 860.355 168.539C860.751 168.008 861.298 167.594 861.996 167.297C862.694 166.995 863.493 166.844 864.395 166.844C865.691 166.844 866.712 167.125 867.457 167.687C868.202 168.245 868.694 168.992 868.934 169.93ZM883.16 167V168.875H876.605V167H883.16ZM878.363 164.125H880.699V175.477C880.699 175.93 880.767 176.271 880.902 176.5C881.038 176.724 881.212 176.878 881.426 176.961C881.645 177.039 881.882 177.078 882.137 177.078C882.324 177.078 882.488 177.065 882.629 177.039C882.77 177.013 882.879 176.992 882.957 176.977L883.379 178.906C883.243 178.958 883.051 179.01 882.801 179.063C882.551 179.12 882.238 179.151 881.863 179.156C881.249 179.167 880.676 179.057 880.145 178.828C879.613 178.599 879.184 178.245 878.855 177.766C878.527 177.286 878.363 176.685 878.363 175.961V164.125ZM890.67 179.242C889.545 179.242 888.563 178.984 887.725 178.469C886.886 177.953 886.235 177.232 885.771 176.305C885.308 175.378 885.076 174.294 885.076 173.055C885.076 171.81 885.308 170.721 885.771 169.789C886.235 168.857 886.886 168.133 887.725 167.617C888.563 167.102 889.545 166.844 890.67 166.844C891.795 166.844 892.777 167.102 893.615 167.617C894.454 168.133 895.105 168.857 895.568 169.789C896.032 170.721 896.264 171.81 896.264 173.055C896.264 174.294 896.032 175.378 895.568 176.305C895.105 177.232 894.454 177.953 893.615 178.469C892.777 178.984 891.795 179.242 890.67 179.242ZM890.678 177.281C891.407 177.281 892.011 177.089 892.49 176.703C892.969 176.318 893.324 175.805 893.553 175.164C893.787 174.523 893.904 173.818 893.904 173.047C893.904 172.281 893.787 171.578 893.553 170.937C893.324 170.292 892.969 169.773 892.49 169.383C892.011 168.992 891.407 168.797 890.678 168.797C889.943 168.797 889.334 168.992 888.85 169.383C888.37 169.773 888.014 170.292 887.779 170.937C887.55 171.578 887.436 172.281 887.436 173.047C887.436 173.818 887.55 174.523 887.779 175.164C888.014 175.805 888.37 176.318 888.85 176.703C889.334 177.089 889.943 177.281 890.678 177.281ZM913.686 169.93L911.568 170.305C911.48 170.034 911.339 169.776 911.146 169.531C910.959 169.286 910.704 169.086 910.381 168.93C910.058 168.773 909.654 168.695 909.17 168.695C908.508 168.695 907.956 168.844 907.514 169.141C907.071 169.432 906.85 169.81 906.85 170.273C906.85 170.674 906.998 170.997 907.295 171.242C907.592 171.487 908.071 171.687 908.732 171.844L910.639 172.281C911.743 172.536 912.566 172.93 913.107 173.461C913.649 173.992 913.92 174.682 913.92 175.531C913.92 176.25 913.712 176.891 913.295 177.453C912.883 178.01 912.308 178.448 911.568 178.766C910.834 179.083 909.982 179.242 909.014 179.242C907.67 179.242 906.574 178.956 905.725 178.383C904.876 177.805 904.355 176.984 904.162 175.922L906.42 175.578C906.561 176.167 906.85 176.612 907.287 176.914C907.725 177.211 908.295 177.359 908.998 177.359C909.764 177.359 910.376 177.201 910.834 176.883C911.292 176.56 911.521 176.167 911.521 175.703C911.521 175.328 911.381 175.013 911.1 174.758C910.824 174.503 910.399 174.31 909.826 174.18L907.795 173.734C906.675 173.479 905.847 173.073 905.311 172.516C904.779 171.958 904.514 171.253 904.514 170.398C904.514 169.69 904.712 169.07 905.107 168.539C905.503 168.008 906.05 167.594 906.748 167.297C907.446 166.995 908.245 166.844 909.146 166.844C910.443 166.844 911.464 167.125 912.209 167.687C912.954 168.245 913.446 168.992 913.686 169.93ZM921.543 179.242C920.418 179.242 919.436 178.984 918.598 178.469C917.759 177.953 917.108 177.232 916.645 176.305C916.181 175.378 915.949 174.294 915.949 173.055C915.949 171.81 916.181 170.721 916.645 169.789C917.108 168.857 917.759 168.133 918.598 167.617C919.436 167.102 920.418 166.844 921.543 166.844C922.668 166.844 923.65 167.102 924.488 167.617C925.327 168.133 925.978 168.857 926.441 169.789C926.905 170.721 927.137 171.81 927.137 173.055C927.137 174.294 926.905 175.378 926.441 176.305C925.978 177.232 925.327 177.953 924.488 178.469C923.65 178.984 922.668 179.242 921.543 179.242ZM921.551 177.281C922.28 177.281 922.884 177.089 923.363 176.703C923.842 176.318 924.197 175.805 924.426 175.164C924.66 174.523 924.777 173.818 924.777 173.047C924.777 172.281 924.66 171.578 924.426 170.937C924.197 170.292 923.842 169.773 923.363 169.383C922.884 168.992 922.28 168.797 921.551 168.797C920.816 168.797 920.207 168.992 919.723 169.383C919.243 169.773 918.887 170.292 918.652 170.937C918.423 171.578 918.309 172.281 918.309 173.047C918.309 173.818 918.423 174.523 918.652 175.164C918.887 175.805 919.243 176.318 919.723 176.703C920.207 177.089 920.816 177.281 921.551 177.281ZM932.08 163V179H929.744V163H932.08ZM945.488 167L941.137 179H938.637L934.277 167H936.785L939.824 176.234H939.949L942.98 167H945.488ZM952.447 179.242C951.265 179.242 950.247 178.99 949.393 178.484C948.544 177.974 947.887 177.258 947.424 176.336C946.965 175.409 946.736 174.323 946.736 173.078C946.736 171.849 946.965 170.766 947.424 169.828C947.887 168.891 948.533 168.159 949.361 167.633C950.195 167.107 951.169 166.844 952.283 166.844C952.96 166.844 953.617 166.956 954.252 167.18C954.887 167.404 955.458 167.755 955.963 168.234C956.468 168.714 956.867 169.336 957.158 170.102C957.45 170.862 957.596 171.786 957.596 172.875V173.703H948.057V171.953H955.307C955.307 171.339 955.182 170.794 954.932 170.32C954.682 169.841 954.33 169.464 953.877 169.187C953.429 168.911 952.903 168.773 952.299 168.773C951.643 168.773 951.07 168.935 950.58 169.258C950.096 169.576 949.721 169.992 949.455 170.508C949.195 171.018 949.064 171.573 949.064 172.172V173.539C949.064 174.341 949.205 175.023 949.486 175.586C949.773 176.148 950.171 176.578 950.682 176.875C951.192 177.167 951.788 177.312 952.471 177.312C952.913 177.312 953.317 177.25 953.682 177.125C954.046 176.995 954.361 176.802 954.627 176.547C954.893 176.292 955.096 175.977 955.236 175.602L957.447 176C957.27 176.651 956.952 177.221 956.494 177.711C956.041 178.195 955.471 178.573 954.783 178.844C954.101 179.109 953.322 179.242 952.447 179.242ZM971.064 179.242C969.903 179.242 968.903 178.979 968.064 178.453C967.231 177.922 966.59 177.19 966.143 176.258C965.695 175.326 965.471 174.258 965.471 173.055C965.471 171.836 965.7 170.76 966.158 169.828C966.617 168.891 967.262 168.159 968.096 167.633C968.929 167.107 969.911 166.844 971.041 166.844C971.952 166.844 972.765 167.013 973.479 167.352C974.192 167.685 974.768 168.154 975.205 168.758C975.648 169.362 975.911 170.068 975.994 170.875H973.721C973.596 170.312 973.309 169.828 972.861 169.422C972.419 169.016 971.825 168.812 971.08 168.812C970.429 168.812 969.859 168.984 969.369 169.328C968.885 169.667 968.507 170.151 968.236 170.781C967.965 171.406 967.83 172.146 967.83 173C967.83 173.875 967.963 174.63 968.229 175.266C968.494 175.901 968.869 176.393 969.354 176.742C969.843 177.091 970.419 177.266 971.08 177.266C971.523 177.266 971.924 177.185 972.283 177.023C972.648 176.857 972.952 176.62 973.197 176.312C973.447 176.005 973.622 175.635 973.721 175.203H975.994C975.911 175.979 975.658 176.672 975.236 177.281C974.814 177.891 974.249 178.37 973.541 178.719C972.838 179.068 972.012 179.242 971.064 179.242ZM983.547 179.242C982.422 179.242 981.44 178.984 980.602 178.469C979.763 177.953 979.112 177.232 978.648 176.305C978.185 175.378 977.953 174.294 977.953 173.055C977.953 171.81 978.185 170.721 978.648 169.789C979.112 168.857 979.763 168.133 980.602 167.617C981.44 167.102 982.422 166.844 983.547 166.844C984.672 166.844 985.654 167.102 986.492 167.617C987.331 168.133 987.982 168.857 988.445 169.789C988.909 170.721 989.141 171.81 989.141 173.055C989.141 174.294 988.909 175.378 988.445 176.305C987.982 177.232 987.331 177.953 986.492 178.469C985.654 178.984 984.672 179.242 983.547 179.242ZM983.555 177.281C984.284 177.281 984.888 177.089 985.367 176.703C985.846 176.318 986.201 175.805 986.43 175.164C986.664 174.523 986.781 173.818 986.781 173.047C986.781 172.281 986.664 171.578 986.43 170.937C986.201 170.292 985.846 169.773 985.367 169.383C984.888 168.992 984.284 168.797 983.555 168.797C982.82 168.797 982.211 168.992 981.727 169.383C981.247 169.773 980.891 170.292 980.656 170.937C980.427 171.578 980.313 172.281 980.313 173.047C980.313 173.818 980.427 174.523 980.656 175.164C980.891 175.805 981.247 176.318 981.727 176.703C982.211 177.089 982.82 177.281 983.555 177.281ZM991.748 179V167H993.99V168.953H994.139C994.389 168.292 994.798 167.776 995.365 167.406C995.933 167.031 996.613 166.844 997.404 166.844C998.206 166.844 998.878 167.031 999.42 167.406C999.967 167.781 1000.37 168.297 1000.63 168.953H1000.76C1001.04 168.312 1001.5 167.802 1002.12 167.422C1002.75 167.036 1003.49 166.844 1004.36 166.844C1005.45 166.844 1006.33 167.185 1007.02 167.867C1007.71 168.549 1008.06 169.578 1008.06 170.953V179H1005.72V171.172C1005.72 170.359 1005.5 169.771 1005.06 169.406C1004.62 169.042 1004.09 168.859 1003.47 168.859C1002.71 168.859 1002.12 169.094 1001.7 169.562C1001.28 170.026 1001.07 170.622 1001.07 171.352V179H998.74V171.023C998.74 170.372 998.537 169.849 998.131 169.453C997.725 169.057 997.196 168.859 996.545 168.859C996.102 168.859 995.693 168.977 995.318 169.211C994.949 169.44 994.649 169.76 994.42 170.172C994.196 170.583 994.084 171.06 994.084 171.602V179H991.748ZM1011.19 183.5V167H1013.47V168.945H1013.67C1013.8 168.695 1014 168.406 1014.25 168.078C1014.51 167.75 1014.86 167.464 1015.32 167.219C1015.77 166.969 1016.37 166.844 1017.11 166.844C1018.08 166.844 1018.95 167.089 1019.71 167.578C1020.47 168.068 1021.06 168.773 1021.5 169.695C1021.93 170.617 1022.15 171.727 1022.15 173.023C1022.15 174.32 1021.94 175.432 1021.5 176.359C1021.07 177.281 1020.48 177.992 1019.72 178.492C1018.97 178.987 1018.11 179.234 1017.14 179.234C1016.41 179.234 1015.81 179.112 1015.35 178.867C1014.89 178.622 1014.53 178.336 1014.27 178.008C1014.01 177.68 1013.81 177.388 1013.67 177.133H1013.53V183.5H1011.19ZM1013.48 173C1013.48 173.844 1013.6 174.583 1013.85 175.219C1014.09 175.854 1014.45 176.352 1014.91 176.711C1015.37 177.065 1015.94 177.242 1016.61 177.242C1017.31 177.242 1017.89 177.057 1018.36 176.687C1018.83 176.312 1019.19 175.805 1019.43 175.164C1019.67 174.523 1019.79 173.802 1019.79 173C1019.79 172.208 1019.67 171.497 1019.43 170.867C1019.2 170.237 1018.85 169.74 1018.37 169.375C1017.9 169.01 1017.32 168.828 1016.61 168.828C1015.94 168.828 1015.36 169.003 1014.89 169.352C1014.43 169.701 1014.08 170.187 1013.84 170.812C1013.6 171.437 1013.48 172.167 1013.48 173ZM1027.11 163V179H1024.77V163H1027.11ZM1035.42 179.242C1034.24 179.242 1033.22 178.99 1032.37 178.484C1031.52 177.974 1030.86 177.258 1030.4 176.336C1029.94 175.409 1029.71 174.323 1029.71 173.078C1029.71 171.849 1029.94 170.766 1030.4 169.828C1030.86 168.891 1031.51 168.159 1032.33 167.633C1033.17 167.107 1034.14 166.844 1035.26 166.844C1035.93 166.844 1036.59 166.956 1037.22 167.18C1037.86 167.404 1038.43 167.755 1038.94 168.234C1039.44 168.714 1039.84 169.336 1040.13 170.102C1040.42 170.862 1040.57 171.786 1040.57 172.875V173.703H1031.03V171.953H1038.28C1038.28 171.339 1038.15 170.794 1037.9 170.32C1037.65 169.841 1037.3 169.464 1036.85 169.187C1036.4 168.911 1035.88 168.773 1035.27 168.773C1034.62 168.773 1034.04 168.935 1033.55 169.258C1033.07 169.576 1032.69 169.992 1032.43 170.508C1032.17 171.018 1032.04 171.573 1032.04 172.172V173.539C1032.04 174.341 1032.18 175.023 1032.46 175.586C1032.75 176.148 1033.14 176.578 1033.65 176.875C1034.16 177.167 1034.76 177.312 1035.44 177.312C1035.89 177.312 1036.29 177.25 1036.65 177.125C1037.02 176.995 1037.33 176.802 1037.6 176.547C1037.87 176.292 1038.07 175.977 1038.21 175.602L1040.42 176C1040.24 176.651 1039.93 177.221 1039.47 177.711C1039.01 178.195 1038.44 178.573 1037.76 178.844C1037.07 179.109 1036.29 179.242 1035.42 179.242ZM1044.72 167L1047.37 171.672L1050.04 167H1052.6L1048.86 173L1052.63 179H1050.08L1047.37 174.516L1044.68 179H1042.12L1045.85 173L1042.16 167H1044.72ZM601.57 215.5V199H603.852V200.945H604.047C604.182 200.695 604.378 200.406 604.633 200.078C604.888 199.75 605.242 199.464 605.695 199.219C606.148 198.969 606.747 198.844 607.492 198.844C608.461 198.844 609.326 199.089 610.086 199.578C610.846 200.068 611.443 200.773 611.875 201.695C612.313 202.617 612.531 203.727 612.531 205.023C612.531 206.32 612.315 207.432 611.883 208.359C611.451 209.281 610.857 209.992 610.102 210.492C609.346 210.987 608.484 211.234 607.516 211.234C606.786 211.234 606.19 211.112 605.727 210.867C605.268 210.622 604.909 210.336 604.648 210.008C604.388 209.68 604.188 209.388 604.047 209.133H603.906V215.5H601.57ZM603.859 205C603.859 205.844 603.982 206.583 604.227 207.219C604.471 207.854 604.826 208.352 605.289 208.711C605.753 209.065 606.32 209.242 606.992 209.242C607.69 209.242 608.273 209.057 608.742 208.687C609.211 208.312 609.565 207.805 609.805 207.164C610.049 206.523 610.172 205.802 610.172 205C610.172 204.208 610.052 203.497 609.813 202.867C609.578 202.237 609.224 201.74 608.75 201.375C608.281 201.01 607.695 200.828 606.992 200.828C606.315 200.828 605.742 201.003 605.273 201.352C604.81 201.701 604.458 202.187 604.219 202.812C603.979 203.437 603.859 204.167 603.859 205ZM615.148 211V199H617.406V200.906H617.531C617.75 200.26 618.135 199.753 618.688 199.383C619.245 199.008 619.875 198.82 620.578 198.82C620.724 198.82 620.896 198.826 621.094 198.836C621.297 198.846 621.456 198.859 621.57 198.875V201.109C621.477 201.083 621.31 201.055 621.07 201.023C620.831 200.987 620.591 200.969 620.352 200.969C619.799 200.969 619.307 201.086 618.875 201.32C618.448 201.549 618.109 201.87 617.859 202.281C617.609 202.687 617.484 203.151 617.484 203.672V211H615.148ZM628.217 211.242C627.092 211.242 626.11 210.984 625.271 210.469C624.433 209.953 623.782 209.232 623.318 208.305C622.855 207.378 622.623 206.294 622.623 205.055C622.623 203.81 622.855 202.721 623.318 201.789C623.782 200.857 624.433 200.133 625.271 199.617C626.11 199.102 627.092 198.844 628.217 198.844C629.342 198.844 630.324 199.102 631.162 199.617C632.001 200.133 632.652 200.857 633.115 201.789C633.579 202.721 633.811 203.81 633.811 205.055C633.811 206.294 633.579 207.378 633.115 208.305C632.652 209.232 632.001 209.953 631.162 210.469C630.324 210.984 629.342 211.242 628.217 211.242ZM628.225 209.281C628.954 209.281 629.558 209.089 630.037 208.703C630.516 208.318 630.87 207.805 631.1 207.164C631.334 206.523 631.451 205.818 631.451 205.047C631.451 204.281 631.334 203.578 631.1 202.937C630.87 202.292 630.516 201.773 630.037 201.383C629.558 200.992 628.954 200.797 628.225 200.797C627.49 200.797 626.881 200.992 626.396 201.383C625.917 201.773 625.561 202.292 625.326 202.937C625.097 203.578 624.982 204.281 624.982 205.047C624.982 205.818 625.097 206.523 625.326 207.164C625.561 207.805 625.917 208.318 626.396 208.703C626.881 209.089 627.49 209.281 628.225 209.281ZM636.605 211V195H638.941V200.945H639.082C639.217 200.695 639.413 200.406 639.668 200.078C639.923 199.75 640.277 199.464 640.73 199.219C641.184 198.969 641.783 198.844 642.527 198.844C643.496 198.844 644.361 199.089 645.121 199.578C645.882 200.068 646.478 200.773 646.91 201.695C647.348 202.617 647.566 203.727 647.566 205.023C647.566 206.32 647.35 207.432 646.918 208.359C646.486 209.281 645.892 209.992 645.137 210.492C644.382 210.987 643.52 211.234 642.551 211.234C641.822 211.234 641.225 211.112 640.762 210.867C640.303 210.622 639.944 210.336 639.684 210.008C639.423 209.68 639.223 209.388 639.082 209.133H638.887V211H636.605ZM638.895 205C638.895 205.844 639.017 206.583 639.262 207.219C639.507 207.854 639.861 208.352 640.324 208.711C640.788 209.065 641.355 209.242 642.027 209.242C642.725 209.242 643.309 209.057 643.777 208.687C644.246 208.312 644.6 207.805 644.84 207.164C645.085 206.523 645.207 205.802 645.207 205C645.207 204.208 645.087 203.497 644.848 202.867C644.613 202.237 644.259 201.74 643.785 201.375C643.316 201.01 642.73 200.828 642.027 200.828C641.35 200.828 640.777 201.003 640.309 201.352C639.845 201.701 639.493 202.187 639.254 202.812C639.014 203.437 638.895 204.167 638.895 205ZM652.525 195V211H650.189V195H652.525ZM660.84 211.242C659.658 211.242 658.639 210.99 657.785 210.484C656.936 209.974 656.28 209.258 655.816 208.336C655.358 207.409 655.129 206.323 655.129 205.078C655.129 203.849 655.358 202.766 655.816 201.828C656.28 200.891 656.926 200.159 657.754 199.633C658.587 199.107 659.561 198.844 660.676 198.844C661.353 198.844 662.009 198.956 662.645 199.18C663.28 199.404 663.85 199.755 664.355 200.234C664.861 200.714 665.259 201.336 665.551 202.102C665.842 202.862 665.988 203.786 665.988 204.875V205.703H656.449V203.953H663.699C663.699 203.339 663.574 202.794 663.324 202.32C663.074 201.841 662.723 201.464 662.27 201.187C661.822 200.911 661.296 200.773 660.691 200.773C660.035 200.773 659.462 200.935 658.973 201.258C658.488 201.576 658.113 201.992 657.848 202.508C657.587 203.018 657.457 203.573 657.457 204.172V205.539C657.457 206.341 657.598 207.023 657.879 207.586C658.165 208.148 658.564 208.578 659.074 208.875C659.585 209.167 660.181 209.312 660.863 209.312C661.306 209.312 661.71 209.25 662.074 209.125C662.439 208.995 662.754 208.802 663.02 208.547C663.285 208.292 663.488 207.977 663.629 207.602L665.84 208C665.663 208.651 665.345 209.221 664.887 209.711C664.434 210.195 663.863 210.573 663.176 210.844C662.493 211.109 661.715 211.242 660.84 211.242ZM668.58 211V199H670.822V200.953H670.971C671.221 200.292 671.63 199.776 672.197 199.406C672.765 199.031 673.445 198.844 674.236 198.844C675.038 198.844 675.71 199.031 676.252 199.406C676.799 199.781 677.202 200.297 677.463 200.953H677.588C677.874 200.312 678.33 199.802 678.955 199.422C679.58 199.036 680.325 198.844 681.189 198.844C682.278 198.844 683.166 199.185 683.854 199.867C684.546 200.549 684.893 201.578 684.893 202.953V211H682.557V203.172C682.557 202.359 682.335 201.771 681.893 201.406C681.45 201.042 680.921 200.859 680.307 200.859C679.546 200.859 678.955 201.094 678.533 201.562C678.111 202.026 677.9 202.622 677.9 203.352V211H675.572V203.023C675.572 202.372 675.369 201.849 674.963 201.453C674.557 201.057 674.028 200.859 673.377 200.859C672.934 200.859 672.525 200.977 672.15 201.211C671.781 201.44 671.481 201.76 671.252 202.172C671.028 202.583 670.916 203.06 670.916 203.602V211H668.58ZM697.016 201.93L694.898 202.305C694.81 202.034 694.669 201.776 694.477 201.531C694.289 201.286 694.034 201.086 693.711 200.93C693.388 200.773 692.984 200.695 692.5 200.695C691.839 200.695 691.286 200.844 690.844 201.141C690.401 201.432 690.18 201.81 690.18 202.273C690.18 202.674 690.328 202.997 690.625 203.242C690.922 203.487 691.401 203.687 692.063 203.844L693.969 204.281C695.073 204.536 695.896 204.93 696.438 205.461C696.979 205.992 697.25 206.682 697.25 207.531C697.25 208.25 697.042 208.891 696.625 209.453C696.214 210.01 695.638 210.448 694.898 210.766C694.164 211.083 693.313 211.242 692.344 211.242C691 211.242 689.904 210.956 689.055 210.383C688.206 209.805 687.685 208.984 687.492 207.922L689.75 207.578C689.891 208.167 690.18 208.612 690.617 208.914C691.055 209.211 691.625 209.359 692.328 209.359C693.094 209.359 693.706 209.201 694.164 208.883C694.622 208.56 694.852 208.167 694.852 207.703C694.852 207.328 694.711 207.013 694.43 206.758C694.154 206.503 693.729 206.31 693.156 206.18L691.125 205.734C690.005 205.479 689.177 205.073 688.641 204.516C688.109 203.958 687.844 203.253 687.844 202.398C687.844 201.69 688.042 201.07 688.438 200.539C688.833 200.008 689.38 199.594 690.078 199.297C690.776 198.995 691.576 198.844 692.477 198.844C693.773 198.844 694.794 199.125 695.539 199.687C696.284 200.245 696.776 200.992 697.016 201.93ZM702.857 208.812L702.74 209.664C702.662 210.289 702.529 210.94 702.342 211.617C702.16 212.299 701.969 212.932 701.771 213.516C701.579 214.099 701.42 214.563 701.295 214.906H699.639C699.706 214.583 699.8 214.146 699.92 213.594C700.04 213.047 700.157 212.435 700.271 211.758C700.386 211.081 700.472 210.391 700.529 209.687L700.607 208.812H702.857ZM711.721 211V199H713.979V200.906H714.104C714.322 200.26 714.708 199.753 715.26 199.383C715.817 199.008 716.447 198.82 717.15 198.82C717.296 198.82 717.468 198.826 717.666 198.836C717.869 198.846 718.028 198.859 718.143 198.875V201.109C718.049 201.083 717.882 201.055 717.643 201.023C717.403 200.987 717.163 200.969 716.924 200.969C716.372 200.969 715.88 201.086 715.447 201.32C715.02 201.549 714.682 201.87 714.432 202.281C714.182 202.687 714.057 203.151 714.057 203.672V211H711.721ZM723.549 211.266C722.788 211.266 722.101 211.125 721.486 210.844C720.872 210.557 720.385 210.143 720.025 209.602C719.671 209.06 719.494 208.396 719.494 207.609C719.494 206.932 719.624 206.375 719.885 205.937C720.145 205.5 720.497 205.154 720.939 204.898C721.382 204.643 721.877 204.451 722.424 204.32C722.971 204.19 723.528 204.091 724.096 204.023C724.814 203.94 725.398 203.872 725.846 203.82C726.294 203.763 726.619 203.672 726.822 203.547C727.025 203.422 727.127 203.219 727.127 202.937V202.883C727.127 202.201 726.934 201.672 726.549 201.297C726.169 200.922 725.601 200.734 724.846 200.734C724.059 200.734 723.439 200.909 722.986 201.258C722.538 201.602 722.229 201.984 722.057 202.406L719.861 201.906C720.122 201.177 720.502 200.589 721.002 200.141C721.507 199.687 722.088 199.359 722.744 199.156C723.4 198.948 724.09 198.844 724.814 198.844C725.294 198.844 725.801 198.901 726.338 199.016C726.88 199.125 727.385 199.328 727.854 199.625C728.327 199.922 728.715 200.346 729.018 200.898C729.32 201.445 729.471 202.156 729.471 203.031V211H727.189V209.359H727.096C726.945 209.661 726.718 209.958 726.416 210.25C726.114 210.542 725.726 210.784 725.252 210.977C724.778 211.169 724.21 211.266 723.549 211.266ZM724.057 209.391C724.702 209.391 725.255 209.263 725.713 209.008C726.176 208.753 726.528 208.419 726.768 208.008C727.012 207.591 727.135 207.146 727.135 206.672V205.125C727.051 205.208 726.89 205.286 726.65 205.359C726.416 205.427 726.148 205.487 725.846 205.539C725.544 205.586 725.249 205.63 724.963 205.672C724.676 205.708 724.437 205.74 724.244 205.766C723.791 205.823 723.377 205.919 723.002 206.055C722.632 206.19 722.335 206.385 722.111 206.641C721.893 206.891 721.783 207.224 721.783 207.641C721.783 208.219 721.997 208.656 722.424 208.953C722.851 209.245 723.395 209.391 724.057 209.391ZM738.184 199V200.875H731.629V199H738.184ZM733.387 196.125H735.723V207.477C735.723 207.93 735.79 208.271 735.926 208.5C736.061 208.724 736.236 208.878 736.449 208.961C736.668 209.039 736.905 209.078 737.16 209.078C737.348 209.078 737.512 209.065 737.652 209.039C737.793 209.013 737.902 208.992 737.98 208.977L738.402 210.906C738.267 210.958 738.074 211.01 737.824 211.063C737.574 211.12 737.262 211.151 736.887 211.156C736.272 211.167 735.699 211.057 735.168 210.828C734.637 210.599 734.207 210.245 733.879 209.766C733.551 209.286 733.387 208.685 733.387 207.961V196.125ZM743.361 203.875V211H741.025V195H743.33V200.953H743.479C743.76 200.307 744.189 199.794 744.768 199.414C745.346 199.034 746.101 198.844 747.033 198.844C747.856 198.844 748.575 199.013 749.189 199.352C749.809 199.69 750.288 200.195 750.627 200.867C750.971 201.534 751.143 202.367 751.143 203.367V211H748.807V203.648C748.807 202.768 748.58 202.086 748.127 201.602C747.674 201.112 747.044 200.867 746.236 200.867C745.684 200.867 745.189 200.984 744.752 201.219C744.32 201.453 743.979 201.797 743.729 202.25C743.484 202.698 743.361 203.24 743.361 203.875ZM759.432 211.242C758.249 211.242 757.231 210.99 756.377 210.484C755.528 209.974 754.872 209.258 754.408 208.336C753.95 207.409 753.721 206.323 753.721 205.078C753.721 203.849 753.95 202.766 754.408 201.828C754.872 200.891 755.518 200.159 756.346 199.633C757.179 199.107 758.153 198.844 759.268 198.844C759.945 198.844 760.601 198.956 761.236 199.18C761.872 199.404 762.442 199.755 762.947 200.234C763.452 200.714 763.851 201.336 764.143 202.102C764.434 202.862 764.58 203.786 764.58 204.875V205.703H755.041V203.953H762.291C762.291 203.339 762.166 202.794 761.916 202.32C761.666 201.841 761.314 201.464 760.861 201.187C760.413 200.911 759.887 200.773 759.283 200.773C758.627 200.773 758.054 200.935 757.564 201.258C757.08 201.576 756.705 201.992 756.439 202.508C756.179 203.018 756.049 203.573 756.049 204.172V205.539C756.049 206.341 756.189 207.023 756.471 207.586C756.757 208.148 757.156 208.578 757.666 208.875C758.176 209.167 758.773 209.312 759.455 209.312C759.898 209.312 760.301 209.25 760.666 209.125C761.031 208.995 761.346 208.802 761.611 208.547C761.877 208.292 762.08 207.977 762.221 207.602L764.432 208C764.255 208.651 763.937 209.221 763.479 209.711C763.025 210.195 762.455 210.573 761.768 210.844C761.085 211.109 760.307 211.242 759.432 211.242ZM767.172 211V199H769.43V200.906H769.555C769.773 200.26 770.159 199.753 770.711 199.383C771.268 199.008 771.898 198.82 772.602 198.82C772.747 198.82 772.919 198.826 773.117 198.836C773.32 198.846 773.479 198.859 773.594 198.875V201.109C773.5 201.083 773.333 201.055 773.094 201.023C772.854 200.987 772.615 200.969 772.375 200.969C771.823 200.969 771.331 201.086 770.898 201.32C770.471 201.549 770.133 201.87 769.883 202.281C769.633 202.687 769.508 203.151 769.508 203.672V211H767.172ZM787.039 199V200.875H780.484V199H787.039ZM782.242 196.125H784.578V207.477C784.578 207.93 784.646 208.271 784.781 208.5C784.917 208.724 785.091 208.878 785.305 208.961C785.523 209.039 785.76 209.078 786.016 209.078C786.203 209.078 786.367 209.065 786.508 209.039C786.648 209.013 786.758 208.992 786.836 208.977L787.258 210.906C787.122 210.958 786.93 211.01 786.68 211.063C786.43 211.12 786.117 211.151 785.742 211.156C785.128 211.167 784.555 211.057 784.023 210.828C783.492 210.599 783.063 210.245 782.734 209.766C782.406 209.286 782.242 208.685 782.242 207.961V196.125ZM792.217 203.875V211H789.881V195H792.186V200.953H792.334C792.615 200.307 793.045 199.794 793.623 199.414C794.201 199.034 794.956 198.844 795.889 198.844C796.712 198.844 797.43 199.013 798.045 199.352C798.665 199.69 799.144 200.195 799.482 200.867C799.826 201.534 799.998 202.367 799.998 203.367V211H797.662V203.648C797.662 202.768 797.436 202.086 796.982 201.602C796.529 201.112 795.899 200.867 795.092 200.867C794.54 200.867 794.045 200.984 793.607 201.219C793.175 201.453 792.834 201.797 792.584 202.25C792.339 202.698 792.217 203.24 792.217 203.875ZM806.607 211.266C805.847 211.266 805.16 211.125 804.545 210.844C803.93 210.557 803.443 210.143 803.084 209.602C802.73 209.06 802.553 208.396 802.553 207.609C802.553 206.932 802.683 206.375 802.943 205.937C803.204 205.5 803.555 205.154 803.998 204.898C804.441 204.643 804.936 204.451 805.482 204.32C806.029 204.19 806.587 204.091 807.154 204.023C807.873 203.94 808.456 203.872 808.904 203.82C809.352 203.763 809.678 203.672 809.881 203.547C810.084 203.422 810.186 203.219 810.186 202.937V202.883C810.186 202.201 809.993 201.672 809.607 201.297C809.227 200.922 808.66 200.734 807.904 200.734C807.118 200.734 806.498 200.909 806.045 201.258C805.597 201.602 805.287 201.984 805.115 202.406L802.92 201.906C803.18 201.177 803.561 200.589 804.061 200.141C804.566 199.687 805.146 199.359 805.803 199.156C806.459 198.948 807.149 198.844 807.873 198.844C808.352 198.844 808.86 198.901 809.396 199.016C809.938 199.125 810.443 199.328 810.912 199.625C811.386 199.922 811.774 200.346 812.076 200.898C812.378 201.445 812.529 202.156 812.529 203.031V211H810.248V209.359H810.154C810.003 209.661 809.777 209.958 809.475 210.25C809.173 210.542 808.785 210.784 808.311 210.977C807.837 211.169 807.269 211.266 806.607 211.266ZM807.115 209.391C807.761 209.391 808.313 209.263 808.771 209.008C809.235 208.753 809.587 208.419 809.826 208.008C810.071 207.591 810.193 207.146 810.193 206.672V205.125C810.11 205.208 809.949 205.286 809.709 205.359C809.475 205.427 809.206 205.487 808.904 205.539C808.602 205.586 808.308 205.63 808.021 205.672C807.735 205.708 807.495 205.74 807.303 205.766C806.85 205.823 806.436 205.919 806.061 206.055C805.691 206.19 805.394 206.385 805.17 206.641C804.951 206.891 804.842 207.224 804.842 207.641C804.842 208.219 805.055 208.656 805.482 208.953C805.91 209.245 806.454 209.391 807.115 209.391ZM817.977 203.875V211H815.641V199H817.883V200.953H818.031C818.307 200.318 818.74 199.807 819.328 199.422C819.922 199.036 820.669 198.844 821.57 198.844C822.388 198.844 823.104 199.016 823.719 199.359C824.333 199.698 824.81 200.203 825.148 200.875C825.487 201.547 825.656 202.378 825.656 203.367V211H823.32V203.648C823.32 202.779 823.094 202.099 822.641 201.609C822.188 201.115 821.565 200.867 820.773 200.867C820.232 200.867 819.75 200.984 819.328 201.219C818.911 201.453 818.581 201.797 818.336 202.25C818.096 202.698 817.977 203.24 817.977 203.875ZM843.604 201.93L841.486 202.305C841.398 202.034 841.257 201.776 841.064 201.531C840.877 201.286 840.622 201.086 840.299 200.93C839.976 200.773 839.572 200.695 839.088 200.695C838.426 200.695 837.874 200.844 837.432 201.141C836.989 201.432 836.768 201.81 836.768 202.273C836.768 202.674 836.916 202.997 837.213 203.242C837.51 203.487 837.989 203.687 838.65 203.844L840.557 204.281C841.661 204.536 842.484 204.93 843.025 205.461C843.567 205.992 843.838 206.682 843.838 207.531C843.838 208.25 843.63 208.891 843.213 209.453C842.801 210.01 842.226 210.448 841.486 210.766C840.752 211.083 839.9 211.242 838.932 211.242C837.588 211.242 836.492 210.956 835.643 210.383C834.794 209.805 834.273 208.984 834.08 207.922L836.338 207.578C836.479 208.167 836.768 208.612 837.205 208.914C837.643 209.211 838.213 209.359 838.916 209.359C839.682 209.359 840.294 209.201 840.752 208.883C841.21 208.56 841.439 208.167 841.439 207.703C841.439 207.328 841.299 207.013 841.018 206.758C840.742 206.503 840.317 206.31 839.744 206.18L837.713 205.734C836.593 205.479 835.765 205.073 835.229 204.516C834.697 203.958 834.432 203.253 834.432 202.398C834.432 201.69 834.63 201.07 835.025 200.539C835.421 200.008 835.968 199.594 836.666 199.297C837.364 198.995 838.163 198.844 839.064 198.844C840.361 198.844 841.382 199.125 842.127 199.687C842.872 200.245 843.364 200.992 843.604 201.93ZM846.406 215.5V199H848.688V200.945H848.883C849.018 200.695 849.214 200.406 849.469 200.078C849.724 199.75 850.078 199.464 850.531 199.219C850.984 198.969 851.583 198.844 852.328 198.844C853.297 198.844 854.161 199.089 854.922 199.578C855.682 200.068 856.279 200.773 856.711 201.695C857.148 202.617 857.367 203.727 857.367 205.023C857.367 206.32 857.151 207.432 856.719 208.359C856.286 209.281 855.693 209.992 854.938 210.492C854.182 210.987 853.32 211.234 852.352 211.234C851.622 211.234 851.026 211.112 850.563 210.867C850.104 210.622 849.745 210.336 849.484 210.008C849.224 209.68 849.023 209.388 848.883 209.133H848.742V215.5H846.406ZM848.695 205C848.695 205.844 848.818 206.583 849.063 207.219C849.307 207.854 849.661 208.352 850.125 208.711C850.589 209.065 851.156 209.242 851.828 209.242C852.526 209.242 853.109 209.057 853.578 208.687C854.047 208.312 854.401 207.805 854.641 207.164C854.885 206.523 855.008 205.802 855.008 205C855.008 204.208 854.888 203.497 854.648 202.867C854.414 202.237 854.06 201.74 853.586 201.375C853.117 201.01 852.531 200.828 851.828 200.828C851.151 200.828 850.578 201.003 850.109 201.352C849.646 201.701 849.294 202.187 849.055 202.812C848.815 203.437 848.695 204.167 848.695 205ZM865.156 211.242C863.974 211.242 862.956 210.99 862.102 210.484C861.253 209.974 860.596 209.258 860.133 208.336C859.674 207.409 859.445 206.323 859.445 205.078C859.445 203.849 859.674 202.766 860.133 201.828C860.596 200.891 861.242 200.159 862.07 199.633C862.904 199.107 863.878 198.844 864.992 198.844C865.669 198.844 866.326 198.956 866.961 199.18C867.596 199.404 868.167 199.755 868.672 200.234C869.177 200.714 869.576 201.336 869.867 202.102C870.159 202.862 870.305 203.786 870.305 204.875V205.703H860.766V203.953H868.016C868.016 203.339 867.891 202.794 867.641 202.32C867.391 201.841 867.039 201.464 866.586 201.187C866.138 200.911 865.612 200.773 865.008 200.773C864.352 200.773 863.779 200.935 863.289 201.258C862.805 201.576 862.43 201.992 862.164 202.508C861.904 203.018 861.773 203.573 861.773 204.172V205.539C861.773 206.341 861.914 207.023 862.195 207.586C862.482 208.148 862.88 208.578 863.391 208.875C863.901 209.167 864.497 209.312 865.18 209.312C865.622 209.312 866.026 209.25 866.391 209.125C866.755 208.995 867.07 208.802 867.336 208.547C867.602 208.292 867.805 207.977 867.945 207.602L870.156 208C869.979 208.651 869.661 209.221 869.203 209.711C868.75 210.195 868.18 210.573 867.492 210.844C866.81 211.109 866.031 211.242 865.156 211.242ZM877.951 211.242C876.79 211.242 875.79 210.979 874.951 210.453C874.118 209.922 873.477 209.19 873.029 208.258C872.581 207.326 872.357 206.258 872.357 205.055C872.357 203.836 872.587 202.76 873.045 201.828C873.503 200.891 874.149 200.159 874.982 199.633C875.816 199.107 876.798 198.844 877.928 198.844C878.839 198.844 879.652 199.013 880.365 199.352C881.079 199.685 881.654 200.154 882.092 200.758C882.535 201.362 882.798 202.068 882.881 202.875H880.607C880.482 202.312 880.196 201.828 879.748 201.422C879.305 201.016 878.712 200.812 877.967 200.812C877.316 200.812 876.745 200.984 876.256 201.328C875.771 201.667 875.394 202.151 875.123 202.781C874.852 203.406 874.717 204.146 874.717 205C874.717 205.875 874.85 206.63 875.115 207.266C875.381 207.901 875.756 208.393 876.24 208.742C876.73 209.091 877.305 209.266 877.967 209.266C878.41 209.266 878.811 209.185 879.17 209.023C879.535 208.857 879.839 208.62 880.084 208.312C880.334 208.005 880.508 207.635 880.607 207.203H882.881C882.798 207.979 882.545 208.672 882.123 209.281C881.701 209.891 881.136 210.37 880.428 210.719C879.725 211.068 878.899 211.242 877.951 211.242ZM885.379 211V199H887.715V211H885.379ZM886.559 197.148C886.152 197.148 885.803 197.013 885.512 196.742C885.225 196.466 885.082 196.138 885.082 195.758C885.082 195.372 885.225 195.044 885.512 194.773C885.803 194.497 886.152 194.359 886.559 194.359C886.965 194.359 887.311 194.497 887.598 194.773C887.889 195.044 888.035 195.372 888.035 195.758C888.035 196.138 887.889 196.466 887.598 196.742C887.311 197.013 886.965 197.148 886.559 197.148ZM896.568 199V200.875H889.787V199H896.568ZM891.646 211V197.609C891.646 196.859 891.811 196.237 892.139 195.742C892.467 195.242 892.902 194.87 893.443 194.625C893.985 194.375 894.574 194.25 895.209 194.25C895.678 194.25 896.079 194.289 896.412 194.367C896.745 194.44 896.993 194.508 897.154 194.57L896.607 196.461C896.498 196.43 896.357 196.393 896.186 196.352C896.014 196.305 895.805 196.281 895.561 196.281C894.993 196.281 894.587 196.422 894.342 196.703C894.102 196.984 893.982 197.391 893.982 197.922V211H891.646ZM898.979 211V199H901.314V211H898.979ZM900.158 197.148C899.752 197.148 899.403 197.013 899.111 196.742C898.825 196.466 898.682 196.138 898.682 195.758C898.682 195.372 898.825 195.044 899.111 194.773C899.403 194.497 899.752 194.359 900.158 194.359C900.564 194.359 900.911 194.497 901.197 194.773C901.489 195.044 901.635 195.372 901.635 195.758C901.635 196.138 901.489 196.466 901.197 196.742C900.911 197.013 900.564 197.148 900.158 197.148ZM909.512 211.242C908.35 211.242 907.35 210.979 906.512 210.453C905.678 209.922 905.038 209.19 904.59 208.258C904.142 207.326 903.918 206.258 903.918 205.055C903.918 203.836 904.147 202.76 904.605 201.828C905.064 200.891 905.71 200.159 906.543 199.633C907.376 199.107 908.358 198.844 909.488 198.844C910.4 198.844 911.212 199.013 911.926 199.352C912.639 199.685 913.215 200.154 913.652 200.758C914.095 201.362 914.358 202.068 914.441 202.875H912.168C912.043 202.312 911.757 201.828 911.309 201.422C910.866 201.016 910.272 200.812 909.527 200.812C908.876 200.812 908.306 200.984 907.816 201.328C907.332 201.667 906.954 202.151 906.684 202.781C906.413 203.406 906.277 204.146 906.277 205C906.277 205.875 906.41 206.63 906.676 207.266C906.941 207.901 907.316 208.393 907.801 208.742C908.29 209.091 908.866 209.266 909.527 209.266C909.97 209.266 910.371 209.185 910.73 209.023C911.095 208.857 911.4 208.62 911.645 208.312C911.895 208.005 912.069 207.635 912.168 207.203H914.441C914.358 207.979 914.105 208.672 913.684 209.281C913.262 209.891 912.697 210.37 911.988 210.719C911.285 211.068 910.46 211.242 909.512 211.242ZM928.473 199V200.875H921.691V199H928.473ZM923.551 211V197.609C923.551 196.859 923.715 196.237 924.043 195.742C924.371 195.242 924.806 194.87 925.348 194.625C925.889 194.375 926.478 194.25 927.113 194.25C927.582 194.25 927.983 194.289 928.316 194.367C928.65 194.44 928.897 194.508 929.059 194.57L928.512 196.461C928.402 196.43 928.262 196.393 928.09 196.352C927.918 196.305 927.71 196.281 927.465 196.281C926.897 196.281 926.491 196.422 926.246 196.703C926.007 196.984 925.887 197.391 925.887 197.922V211H923.551ZM930.883 211V199H933.141V200.906H933.266C933.484 200.26 933.87 199.753 934.422 199.383C934.979 199.008 935.609 198.82 936.312 198.82C936.458 198.82 936.63 198.826 936.828 198.836C937.031 198.846 937.19 198.859 937.305 198.875V201.109C937.211 201.083 937.044 201.055 936.805 201.023C936.565 200.987 936.326 200.969 936.086 200.969C935.534 200.969 935.042 201.086 934.609 201.32C934.182 201.549 933.844 201.87 933.594 202.281C933.344 202.687 933.219 203.151 933.219 203.672V211H930.883ZM942.711 211.266C941.951 211.266 941.263 211.125 940.648 210.844C940.034 210.557 939.547 210.143 939.188 209.602C938.833 209.06 938.656 208.396 938.656 207.609C938.656 206.932 938.786 206.375 939.047 205.937C939.307 205.5 939.659 205.154 940.102 204.898C940.544 204.643 941.039 204.451 941.586 204.32C942.133 204.19 942.69 204.091 943.258 204.023C943.977 203.94 944.56 203.872 945.008 203.82C945.456 203.763 945.781 203.672 945.984 203.547C946.188 203.422 946.289 203.219 946.289 202.937V202.883C946.289 202.201 946.096 201.672 945.711 201.297C945.331 200.922 944.763 200.734 944.008 200.734C943.221 200.734 942.602 200.909 942.148 201.258C941.701 201.602 941.391 201.984 941.219 202.406L939.023 201.906C939.284 201.177 939.664 200.589 940.164 200.141C940.669 199.687 941.25 199.359 941.906 199.156C942.563 198.948 943.253 198.844 943.977 198.844C944.456 198.844 944.964 198.901 945.5 199.016C946.042 199.125 946.547 199.328 947.016 199.625C947.49 199.922 947.878 200.346 948.18 200.898C948.482 201.445 948.633 202.156 948.633 203.031V211H946.352V209.359H946.258C946.107 209.661 945.88 209.958 945.578 210.25C945.276 210.542 944.888 210.784 944.414 210.977C943.94 211.169 943.372 211.266 942.711 211.266ZM943.219 209.391C943.865 209.391 944.417 209.263 944.875 209.008C945.339 208.753 945.69 208.419 945.93 208.008C946.174 207.591 946.297 207.146 946.297 206.672V205.125C946.214 205.208 946.052 205.286 945.812 205.359C945.578 205.427 945.31 205.487 945.008 205.539C944.706 205.586 944.411 205.63 944.125 205.672C943.839 205.708 943.599 205.74 943.406 205.766C942.953 205.823 942.539 205.919 942.164 206.055C941.794 206.19 941.497 206.385 941.273 206.641C941.055 206.891 940.945 207.224 940.945 207.641C940.945 208.219 941.159 208.656 941.586 208.953C942.013 209.245 942.557 209.391 943.219 209.391ZM951.744 211V199H953.986V200.953H954.135C954.385 200.292 954.794 199.776 955.361 199.406C955.929 199.031 956.609 198.844 957.4 198.844C958.202 198.844 958.874 199.031 959.416 199.406C959.963 199.781 960.367 200.297 960.627 200.953H960.752C961.038 200.312 961.494 199.802 962.119 199.422C962.744 199.036 963.489 198.844 964.354 198.844C965.442 198.844 966.33 199.185 967.018 199.867C967.71 200.549 968.057 201.578 968.057 202.953V211H965.721V203.172C965.721 202.359 965.499 201.771 965.057 201.406C964.614 201.042 964.085 200.859 963.471 200.859C962.71 200.859 962.119 201.094 961.697 201.562C961.275 202.026 961.064 202.622 961.064 203.352V211H958.736V203.023C958.736 202.372 958.533 201.849 958.127 201.453C957.721 201.057 957.192 200.859 956.541 200.859C956.098 200.859 955.689 200.977 955.314 201.211C954.945 201.44 954.645 201.76 954.416 202.172C954.192 202.583 954.08 203.06 954.08 203.602V211H951.744ZM976.359 211.242C975.177 211.242 974.159 210.99 973.305 210.484C972.456 209.974 971.799 209.258 971.336 208.336C970.878 207.409 970.648 206.323 970.648 205.078C970.648 203.849 970.878 202.766 971.336 201.828C971.799 200.891 972.445 200.159 973.273 199.633C974.107 199.107 975.081 198.844 976.195 198.844C976.872 198.844 977.529 198.956 978.164 199.18C978.799 199.404 979.37 199.755 979.875 200.234C980.38 200.714 980.779 201.336 981.07 202.102C981.362 202.862 981.508 203.786 981.508 204.875V205.703H971.969V203.953H979.219C979.219 203.339 979.094 202.794 978.844 202.32C978.594 201.841 978.242 201.464 977.789 201.187C977.341 200.911 976.815 200.773 976.211 200.773C975.555 200.773 974.982 200.935 974.492 201.258C974.008 201.576 973.633 201.992 973.367 202.508C973.107 203.018 972.977 203.573 972.977 204.172V205.539C972.977 206.341 973.117 207.023 973.398 207.586C973.685 208.148 974.083 208.578 974.594 208.875C975.104 209.167 975.701 209.312 976.383 209.312C976.826 209.312 977.229 209.25 977.594 209.125C977.958 208.995 978.273 208.802 978.539 208.547C978.805 208.292 979.008 207.977 979.148 207.602L981.359 208C981.182 208.651 980.865 209.221 980.406 209.711C979.953 210.195 979.383 210.573 978.695 210.844C978.013 211.109 977.234 211.242 976.359 211.242ZM986.68 211L983.148 199H985.563L987.914 207.812H988.031L990.391 199H992.805L995.148 207.773H995.266L997.602 199H1000.02L996.492 211H994.109L991.672 202.336H991.492L989.055 211H986.68ZM1006.92 211.242C1005.8 211.242 1004.82 210.984 1003.98 210.469C1003.14 209.953 1002.49 209.232 1002.02 208.305C1001.56 207.378 1001.33 206.294 1001.33 205.055C1001.33 203.81 1001.56 202.721 1002.02 201.789C1002.49 200.857 1003.14 200.133 1003.98 199.617C1004.82 199.102 1005.8 198.844 1006.92 198.844C1008.05 198.844 1009.03 199.102 1009.87 199.617C1010.71 200.133 1011.36 200.857 1011.82 201.789C1012.28 202.721 1012.52 203.81 1012.52 205.055C1012.52 206.294 1012.28 207.378 1011.82 208.305C1011.36 209.232 1010.71 209.953 1009.87 210.469C1009.03 210.984 1008.05 211.242 1006.92 211.242ZM1006.93 209.281C1007.66 209.281 1008.26 209.089 1008.74 208.703C1009.22 208.318 1009.58 207.805 1009.8 207.164C1010.04 206.523 1010.16 205.818 1010.16 205.047C1010.16 204.281 1010.04 203.578 1009.8 202.937C1009.58 202.292 1009.22 201.773 1008.74 201.383C1008.26 200.992 1007.66 200.797 1006.93 200.797C1006.2 200.797 1005.59 200.992 1005.1 201.383C1004.62 201.773 1004.27 202.292 1004.03 202.937C1003.8 203.578 1003.69 204.281 1003.69 205.047C1003.69 205.818 1003.8 206.523 1004.03 207.164C1004.27 207.805 1004.62 208.318 1005.1 208.703C1005.59 209.089 1006.2 209.281 1006.93 209.281ZM1015.12 211V199H1017.38V200.906H1017.51C1017.72 200.26 1018.11 199.753 1018.66 199.383C1019.22 199.008 1019.85 198.82 1020.55 198.82C1020.7 198.82 1020.87 198.826 1021.07 198.836C1021.27 198.846 1021.43 198.859 1021.54 198.875V201.109C1021.45 201.083 1021.28 201.055 1021.04 201.023C1020.81 200.987 1020.57 200.969 1020.33 200.969C1019.77 200.969 1019.28 201.086 1018.85 201.32C1018.42 201.549 1018.08 201.87 1017.83 202.281C1017.58 202.687 1017.46 203.151 1017.46 203.672V211H1015.12ZM1025.71 206.93L1025.7 204.078H1026.11L1030.89 199H1033.68L1028.23 204.781H1027.86L1025.71 206.93ZM1023.57 211V195H1025.9V211H1023.57ZM1031.14 211L1026.85 205.297L1028.46 203.664L1034.01 211H1031.14ZM605.063 243.266C604.302 243.266 603.615 243.125 603 242.844C602.385 242.557 601.898 242.143 601.539 241.602C601.185 241.06 601.008 240.396 601.008 239.609C601.008 238.932 601.138 238.375 601.398 237.937C601.659 237.5 602.01 237.154 602.453 236.898C602.896 236.643 603.391 236.451 603.938 236.32C604.484 236.19 605.042 236.091 605.609 236.023C606.328 235.94 606.911 235.872 607.359 235.82C607.807 235.763 608.133 235.672 608.336 235.547C608.539 235.422 608.641 235.219 608.641 234.937V234.883C608.641 234.201 608.448 233.672 608.063 233.297C607.682 232.922 607.115 232.734 606.359 232.734C605.573 232.734 604.953 232.909 604.5 233.258C604.052 233.602 603.742 233.984 603.57 234.406L601.375 233.906C601.635 233.177 602.016 232.589 602.516 232.141C603.021 231.687 603.602 231.359 604.258 231.156C604.914 230.948 605.604 230.844 606.328 230.844C606.807 230.844 607.315 230.901 607.852 231.016C608.393 231.125 608.898 231.328 609.367 231.625C609.841 231.922 610.229 232.346 610.531 232.898C610.833 233.445 610.984 234.156 610.984 235.031V243H608.703V241.359H608.609C608.458 241.661 608.232 241.958 607.93 242.25C607.628 242.542 607.24 242.784 606.766 242.977C606.292 243.169 605.724 243.266 605.063 243.266ZM605.57 241.391C606.216 241.391 606.768 241.263 607.227 241.008C607.69 240.753 608.042 240.419 608.281 240.008C608.526 239.591 608.648 239.146 608.648 238.672V237.125C608.565 237.208 608.404 237.286 608.164 237.359C607.93 237.427 607.661 237.487 607.359 237.539C607.057 237.586 606.763 237.63 606.477 237.672C606.19 237.708 605.951 237.74 605.758 237.766C605.305 237.823 604.891 237.919 604.516 238.055C604.146 238.19 603.849 238.385 603.625 238.641C603.406 238.891 603.297 239.224 603.297 239.641C603.297 240.219 603.51 240.656 603.938 240.953C604.365 241.245 604.909 241.391 605.57 241.391ZM616.432 235.875V243H614.096V231H616.338V232.953H616.486C616.762 232.318 617.195 231.807 617.783 231.422C618.377 231.036 619.124 230.844 620.025 230.844C620.843 230.844 621.559 231.016 622.174 231.359C622.788 231.698 623.265 232.203 623.604 232.875C623.942 233.547 624.111 234.378 624.111 235.367V243H621.775V235.648C621.775 234.779 621.549 234.099 621.096 233.609C620.643 233.115 620.02 232.867 619.229 232.867C618.687 232.867 618.205 232.984 617.783 233.219C617.367 233.453 617.036 233.797 616.791 234.25C616.551 234.698 616.432 235.24 616.432 235.875ZM631.736 243.234C630.768 243.234 629.903 242.987 629.143 242.492C628.387 241.992 627.794 241.281 627.361 240.359C626.934 239.432 626.721 238.32 626.721 237.023C626.721 235.727 626.937 234.617 627.369 233.695C627.807 232.773 628.406 232.068 629.166 231.578C629.926 231.089 630.788 230.844 631.752 230.844C632.497 230.844 633.096 230.969 633.549 231.219C634.007 231.464 634.361 231.75 634.611 232.078C634.867 232.406 635.064 232.695 635.205 232.945H635.346V227H637.682V243H635.4V241.133H635.205C635.064 241.388 634.861 241.68 634.596 242.008C634.335 242.336 633.976 242.622 633.518 242.867C633.059 243.112 632.465 243.234 631.736 243.234ZM632.252 241.242C632.924 241.242 633.492 241.065 633.955 240.711C634.424 240.352 634.778 239.854 635.018 239.219C635.262 238.583 635.385 237.844 635.385 237C635.385 236.167 635.265 235.437 635.025 234.812C634.786 234.187 634.434 233.701 633.971 233.352C633.507 233.003 632.934 232.828 632.252 232.828C631.549 232.828 630.963 233.01 630.494 233.375C630.025 233.74 629.671 234.237 629.432 234.867C629.197 235.497 629.08 236.208 629.08 237C629.08 237.802 629.2 238.523 629.439 239.164C629.679 239.805 630.033 240.312 630.502 240.687C630.976 241.057 631.559 241.242 632.252 241.242ZM649.174 227V243H646.838V227H649.174ZM652.316 243V231H654.652V243H652.316ZM653.496 229.148C653.09 229.148 652.741 229.013 652.449 228.742C652.163 228.466 652.02 228.138 652.02 227.758C652.02 227.372 652.163 227.044 652.449 226.773C652.741 226.497 653.09 226.359 653.496 226.359C653.902 226.359 654.249 226.497 654.535 226.773C654.827 227.044 654.973 227.372 654.973 227.758C654.973 228.138 654.827 228.466 654.535 228.742C654.249 229.013 653.902 229.148 653.496 229.148ZM657.982 243V227H660.318V232.945H660.459C660.594 232.695 660.79 232.406 661.045 232.078C661.3 231.75 661.654 231.464 662.107 231.219C662.561 230.969 663.16 230.844 663.904 230.844C664.873 230.844 665.738 231.089 666.498 231.578C667.258 232.068 667.855 232.773 668.287 233.695C668.725 234.617 668.943 235.727 668.943 237.023C668.943 238.32 668.727 239.432 668.295 240.359C667.863 241.281 667.269 241.992 666.514 242.492C665.758 242.987 664.896 243.234 663.928 243.234C663.199 243.234 662.602 243.112 662.139 242.867C661.68 242.622 661.321 242.336 661.061 242.008C660.8 241.68 660.6 241.388 660.459 241.133H660.264V243H657.982ZM660.271 237C660.271 237.844 660.394 238.583 660.639 239.219C660.883 239.854 661.238 240.352 661.701 240.711C662.165 241.065 662.732 241.242 663.404 241.242C664.102 241.242 664.686 241.057 665.154 240.687C665.623 240.312 665.977 239.805 666.217 239.164C666.462 238.523 666.584 237.802 666.584 237C666.584 236.208 666.464 235.497 666.225 234.867C665.99 234.237 665.636 233.74 665.162 233.375C664.693 233.01 664.107 232.828 663.404 232.828C662.727 232.828 662.154 233.003 661.686 233.352C661.222 233.701 660.87 234.187 660.631 234.812C660.391 235.437 660.271 236.167 660.271 237ZM671.566 243V231H673.824V232.906H673.949C674.168 232.26 674.553 231.753 675.105 231.383C675.663 231.008 676.293 230.82 676.996 230.82C677.142 230.82 677.314 230.826 677.512 230.836C677.715 230.846 677.874 230.859 677.988 230.875V233.109C677.895 233.083 677.728 233.055 677.488 233.023C677.249 232.987 677.009 232.969 676.77 232.969C676.217 232.969 675.725 233.086 675.293 233.32C674.866 233.549 674.527 233.87 674.277 234.281C674.027 234.687 673.902 235.151 673.902 235.672V243H671.566ZM683.395 243.266C682.634 243.266 681.947 243.125 681.332 242.844C680.717 242.557 680.23 242.143 679.871 241.602C679.517 241.06 679.34 240.396 679.34 239.609C679.34 238.932 679.47 238.375 679.73 237.937C679.991 237.5 680.342 237.154 680.785 236.898C681.228 236.643 681.723 236.451 682.27 236.32C682.816 236.19 683.374 236.091 683.941 236.023C684.66 235.94 685.243 235.872 685.691 235.82C686.139 235.763 686.465 235.672 686.668 235.547C686.871 235.422 686.973 235.219 686.973 234.937V234.883C686.973 234.201 686.78 233.672 686.395 233.297C686.014 232.922 685.447 232.734 684.691 232.734C683.905 232.734 683.285 232.909 682.832 233.258C682.384 233.602 682.074 233.984 681.902 234.406L679.707 233.906C679.967 233.177 680.348 232.589 680.848 232.141C681.353 231.687 681.934 231.359 682.59 231.156C683.246 230.948 683.936 230.844 684.66 230.844C685.139 230.844 685.647 230.901 686.184 231.016C686.725 231.125 687.23 231.328 687.699 231.625C688.173 231.922 688.561 232.346 688.863 232.898C689.165 233.445 689.316 234.156 689.316 235.031V243H687.035V241.359H686.941C686.79 241.661 686.564 241.958 686.262 242.25C685.96 242.542 685.572 242.784 685.098 242.977C684.624 243.169 684.056 243.266 683.395 243.266ZM683.902 241.391C684.548 241.391 685.1 241.263 685.559 241.008C686.022 240.753 686.374 240.419 686.613 240.008C686.858 239.591 686.98 239.146 686.98 238.672V237.125C686.897 237.208 686.736 237.286 686.496 237.359C686.262 237.427 685.993 237.487 685.691 237.539C685.389 237.586 685.095 237.63 684.809 237.672C684.522 237.708 684.283 237.74 684.09 237.766C683.637 237.823 683.223 237.919 682.848 238.055C682.478 238.19 682.181 238.385 681.957 238.641C681.738 238.891 681.629 239.224 681.629 239.641C681.629 240.219 681.842 240.656 682.27 240.953C682.697 241.245 683.241 241.391 683.902 241.391ZM692.428 243V231H694.686V232.906H694.811C695.029 232.26 695.415 231.753 695.967 231.383C696.524 231.008 697.154 230.82 697.857 230.82C698.003 230.82 698.175 230.826 698.373 230.836C698.576 230.846 698.735 230.859 698.85 230.875V233.109C698.756 233.083 698.589 233.055 698.35 233.023C698.11 232.987 697.87 232.969 697.631 232.969C697.079 232.969 696.587 233.086 696.154 233.32C695.727 233.549 695.389 233.87 695.139 234.281C694.889 234.687 694.764 235.151 694.764 235.672V243H692.428ZM702.713 247.5C702.364 247.5 702.046 247.471 701.76 247.414C701.473 247.362 701.26 247.305 701.119 247.242L701.682 245.328C702.109 245.443 702.489 245.492 702.822 245.477C703.156 245.461 703.45 245.336 703.705 245.102C703.965 244.867 704.195 244.484 704.393 243.953L704.682 243.156L700.291 231H702.791L705.83 240.312H705.955L708.994 231H711.502L706.557 244.602C706.327 245.227 706.036 245.755 705.682 246.188C705.327 246.625 704.906 246.953 704.416 247.172C703.926 247.391 703.359 247.5 702.713 247.5ZM728.512 233.93L726.395 234.305C726.306 234.034 726.165 233.776 725.973 233.531C725.785 233.286 725.53 233.086 725.207 232.93C724.884 232.773 724.48 232.695 723.996 232.695C723.335 232.695 722.783 232.844 722.34 233.141C721.897 233.432 721.676 233.81 721.676 234.273C721.676 234.674 721.824 234.997 722.121 235.242C722.418 235.487 722.897 235.687 723.559 235.844L725.465 236.281C726.569 236.536 727.392 236.93 727.934 237.461C728.475 237.992 728.746 238.682 728.746 239.531C728.746 240.25 728.538 240.891 728.121 241.453C727.71 242.01 727.134 242.448 726.395 242.766C725.66 243.083 724.809 243.242 723.84 243.242C722.496 243.242 721.4 242.956 720.551 242.383C719.702 241.805 719.181 240.984 718.988 239.922L721.246 239.578C721.387 240.167 721.676 240.612 722.113 240.914C722.551 241.211 723.121 241.359 723.824 241.359C724.59 241.359 725.202 241.201 725.66 240.883C726.118 240.56 726.348 240.167 726.348 239.703C726.348 239.328 726.207 239.013 725.926 238.758C725.65 238.503 725.225 238.31 724.652 238.18L722.621 237.734C721.501 237.479 720.673 237.073 720.137 236.516C719.605 235.958 719.34 235.253 719.34 234.398C719.34 233.69 719.538 233.07 719.934 232.539C720.329 232.008 720.876 231.594 721.574 231.297C722.272 230.995 723.072 230.844 723.973 230.844C725.27 230.844 726.29 231.125 727.035 231.687C727.78 232.245 728.272 232.992 728.512 233.93ZM732.791 247.5C732.442 247.5 732.124 247.471 731.838 247.414C731.551 247.362 731.338 247.305 731.197 247.242L731.76 245.328C732.187 245.443 732.567 245.492 732.9 245.477C733.234 245.461 733.528 245.336 733.783 245.102C734.044 244.867 734.273 244.484 734.471 243.953L734.76 243.156L730.369 231H732.869L735.908 240.312H736.033L739.072 231H741.58L736.635 244.602C736.406 245.227 736.114 245.755 735.76 246.188C735.406 246.625 734.984 246.953 734.494 247.172C734.005 247.391 733.437 247.5 732.791 247.5ZM746.111 235.875V243H743.775V231H746.018V232.953H746.166C746.442 232.318 746.874 231.807 747.463 231.422C748.057 231.036 748.804 230.844 749.705 230.844C750.523 230.844 751.239 231.016 751.854 231.359C752.468 231.698 752.945 232.203 753.283 232.875C753.622 233.547 753.791 234.378 753.791 235.367V243H751.455V235.648C751.455 234.779 751.229 234.099 750.775 233.609C750.322 233.115 749.7 232.867 748.908 232.867C748.367 232.867 747.885 232.984 747.463 233.219C747.046 233.453 746.715 233.797 746.471 234.25C746.231 234.698 746.111 235.24 746.111 235.875ZM762.525 231V232.875H755.971V231H762.525ZM757.729 228.125H760.064V239.477C760.064 239.93 760.132 240.271 760.268 240.5C760.403 240.724 760.577 240.878 760.791 240.961C761.01 241.039 761.247 241.078 761.502 241.078C761.689 241.078 761.854 241.065 761.994 241.039C762.135 241.013 762.244 240.992 762.322 240.977L762.744 242.906C762.609 242.958 762.416 243.01 762.166 243.063C761.916 243.12 761.604 243.151 761.229 243.156C760.614 243.167 760.041 243.057 759.51 242.828C758.979 242.599 758.549 242.245 758.221 241.766C757.893 241.286 757.729 240.685 757.729 239.961V228.125ZM768.602 243.266C767.841 243.266 767.154 243.125 766.539 242.844C765.924 242.557 765.438 242.143 765.078 241.602C764.724 241.06 764.547 240.396 764.547 239.609C764.547 238.932 764.677 238.375 764.938 237.937C765.198 237.5 765.549 237.154 765.992 236.898C766.435 236.643 766.93 236.451 767.477 236.32C768.023 236.19 768.581 236.091 769.148 236.023C769.867 235.94 770.451 235.872 770.898 235.82C771.346 235.763 771.672 235.672 771.875 235.547C772.078 235.422 772.18 235.219 772.18 234.937V234.883C772.18 234.201 771.987 233.672 771.602 233.297C771.221 232.922 770.654 232.734 769.898 232.734C769.112 232.734 768.492 232.909 768.039 233.258C767.591 233.602 767.281 233.984 767.109 234.406L764.914 233.906C765.174 233.177 765.555 232.589 766.055 232.141C766.56 231.687 767.141 231.359 767.797 231.156C768.453 230.948 769.143 230.844 769.867 230.844C770.346 230.844 770.854 230.901 771.391 231.016C771.932 231.125 772.438 231.328 772.906 231.625C773.38 231.922 773.768 232.346 774.07 232.898C774.372 233.445 774.523 234.156 774.523 235.031V243H772.242V241.359H772.148C771.997 241.661 771.771 241.958 771.469 242.25C771.167 242.542 770.779 242.784 770.305 242.977C769.831 243.169 769.263 243.266 768.602 243.266ZM769.109 241.391C769.755 241.391 770.307 241.263 770.766 241.008C771.229 240.753 771.581 240.419 771.82 240.008C772.065 239.591 772.188 239.146 772.188 238.672V237.125C772.104 237.208 771.943 237.286 771.703 237.359C771.469 237.427 771.201 237.487 770.898 237.539C770.596 237.586 770.302 237.63 770.016 237.672C769.729 237.708 769.49 237.74 769.297 237.766C768.844 237.823 768.43 237.919 768.055 238.055C767.685 238.19 767.388 238.385 767.164 238.641C766.945 238.891 766.836 239.224 766.836 239.641C766.836 240.219 767.049 240.656 767.477 240.953C767.904 241.245 768.448 241.391 769.109 241.391ZM779.479 231L782.127 235.672L784.799 231H787.354L783.611 237L787.385 243H784.83L782.127 238.516L779.432 243H776.869L780.604 237L776.916 231H779.479ZM795.574 247.5V231H797.855V232.945H798.051C798.186 232.695 798.382 232.406 798.637 232.078C798.892 231.75 799.246 231.464 799.699 231.219C800.152 230.969 800.751 230.844 801.496 230.844C802.465 230.844 803.329 231.089 804.09 231.578C804.85 232.068 805.447 232.773 805.879 233.695C806.316 234.617 806.535 235.727 806.535 237.023C806.535 238.32 806.319 239.432 805.887 240.359C805.454 241.281 804.861 241.992 804.105 242.492C803.35 242.987 802.488 243.234 801.52 243.234C800.79 243.234 800.194 243.112 799.73 242.867C799.272 242.622 798.913 242.336 798.652 242.008C798.392 241.68 798.191 241.388 798.051 241.133H797.91V247.5H795.574ZM797.863 237C797.863 237.844 797.986 238.583 798.23 239.219C798.475 239.854 798.829 240.352 799.293 240.711C799.757 241.065 800.324 241.242 800.996 241.242C801.694 241.242 802.277 241.057 802.746 240.687C803.215 240.312 803.569 239.805 803.809 239.164C804.053 238.523 804.176 237.802 804.176 237C804.176 236.208 804.056 235.497 803.816 234.867C803.582 234.237 803.228 233.74 802.754 233.375C802.285 233.01 801.699 232.828 800.996 232.828C800.319 232.828 799.746 233.003 799.277 233.352C798.814 233.701 798.462 234.187 798.223 234.812C797.983 235.437 797.863 236.167 797.863 237ZM809.152 243V231H811.41V232.906H811.535C811.754 232.26 812.139 231.753 812.691 231.383C813.249 231.008 813.879 230.82 814.582 230.82C814.728 230.82 814.9 230.826 815.098 230.836C815.301 230.846 815.46 230.859 815.574 230.875V233.109C815.48 233.083 815.314 233.055 815.074 233.023C814.835 232.987 814.595 232.969 814.355 232.969C813.803 232.969 813.311 233.086 812.879 233.32C812.452 233.549 812.113 233.87 811.863 234.281C811.613 234.687 811.488 235.151 811.488 235.672V243H809.152ZM822.221 243.242C821.096 243.242 820.114 242.984 819.275 242.469C818.437 241.953 817.786 241.232 817.322 240.305C816.859 239.378 816.627 238.294 816.627 237.055C816.627 235.81 816.859 234.721 817.322 233.789C817.786 232.857 818.437 232.133 819.275 231.617C820.114 231.102 821.096 230.844 822.221 230.844C823.346 230.844 824.327 231.102 825.166 231.617C826.005 232.133 826.656 232.857 827.119 233.789C827.583 234.721 827.814 235.81 827.814 237.055C827.814 238.294 827.583 239.378 827.119 240.305C826.656 241.232 826.005 241.953 825.166 242.469C824.327 242.984 823.346 243.242 822.221 243.242ZM822.229 241.281C822.958 241.281 823.562 241.089 824.041 240.703C824.52 240.318 824.874 239.805 825.104 239.164C825.338 238.523 825.455 237.818 825.455 237.047C825.455 236.281 825.338 235.578 825.104 234.937C824.874 234.292 824.52 233.773 824.041 233.383C823.562 232.992 822.958 232.797 822.229 232.797C821.494 232.797 820.885 232.992 820.4 233.383C819.921 233.773 819.564 234.292 819.33 234.937C819.101 235.578 818.986 236.281 818.986 237.047C818.986 237.818 819.101 238.523 819.33 239.164C819.564 239.805 819.921 240.318 820.4 240.703C820.885 241.089 821.494 241.281 822.229 241.281ZM830.609 243V227H832.945V232.945H833.086C833.221 232.695 833.417 232.406 833.672 232.078C833.927 231.75 834.281 231.464 834.734 231.219C835.188 230.969 835.786 230.844 836.531 230.844C837.5 230.844 838.365 231.089 839.125 231.578C839.885 232.068 840.482 232.773 840.914 233.695C841.352 234.617 841.57 235.727 841.57 237.023C841.57 238.32 841.354 239.432 840.922 240.359C840.49 241.281 839.896 241.992 839.141 242.492C838.385 242.987 837.523 243.234 836.555 243.234C835.826 243.234 835.229 243.112 834.766 242.867C834.307 242.622 833.948 242.336 833.688 242.008C833.427 241.68 833.227 241.388 833.086 241.133H832.891V243H830.609ZM832.898 237C832.898 237.844 833.021 238.583 833.266 239.219C833.51 239.854 833.865 240.352 834.328 240.711C834.792 241.065 835.359 241.242 836.031 241.242C836.729 241.242 837.313 241.057 837.781 240.687C838.25 240.312 838.604 239.805 838.844 239.164C839.089 238.523 839.211 237.802 839.211 237C839.211 236.208 839.091 235.497 838.852 234.867C838.617 234.237 838.263 233.74 837.789 233.375C837.32 233.01 836.734 232.828 836.031 232.828C835.354 232.828 834.781 233.003 834.313 233.352C833.849 233.701 833.497 234.187 833.258 234.812C833.018 235.437 832.898 236.167 832.898 237ZM846.529 227V243H844.193V227H846.529ZM854.844 243.242C853.661 243.242 852.643 242.99 851.789 242.484C850.94 241.974 850.284 241.258 849.82 240.336C849.362 239.409 849.133 238.323 849.133 237.078C849.133 235.849 849.362 234.766 849.82 233.828C850.284 232.891 850.93 232.159 851.758 231.633C852.591 231.107 853.565 230.844 854.68 230.844C855.357 230.844 856.013 230.956 856.648 231.18C857.284 231.404 857.854 231.755 858.359 232.234C858.865 232.714 859.263 233.336 859.555 234.102C859.846 234.862 859.992 235.786 859.992 236.875V237.703H850.453V235.953H857.703C857.703 235.339 857.578 234.794 857.328 234.32C857.078 233.841 856.727 233.464 856.273 233.187C855.826 232.911 855.299 232.773 854.695 232.773C854.039 232.773 853.466 232.935 852.977 233.258C852.492 233.576 852.117 233.992 851.852 234.508C851.591 235.018 851.461 235.573 851.461 236.172V237.539C851.461 238.341 851.602 239.023 851.883 239.586C852.169 240.148 852.568 240.578 853.078 240.875C853.589 241.167 854.185 241.312 854.867 241.312C855.31 241.312 855.714 241.25 856.078 241.125C856.443 240.995 856.758 240.802 857.023 240.547C857.289 240.292 857.492 239.977 857.633 239.602L859.844 240C859.667 240.651 859.349 241.221 858.891 241.711C858.438 242.195 857.867 242.573 857.18 242.844C856.497 243.109 855.719 243.242 854.844 243.242ZM862.584 243V231H864.826V232.953H864.975C865.225 232.292 865.633 231.776 866.201 231.406C866.769 231.031 867.449 230.844 868.24 230.844C869.042 230.844 869.714 231.031 870.256 231.406C870.803 231.781 871.206 232.297 871.467 232.953H871.592C871.878 232.312 872.334 231.802 872.959 231.422C873.584 231.036 874.329 230.844 875.193 230.844C876.282 230.844 877.17 231.185 877.857 231.867C878.55 232.549 878.896 233.578 878.896 234.953V243H876.561V235.172C876.561 234.359 876.339 233.771 875.896 233.406C875.454 233.042 874.925 232.859 874.311 232.859C873.55 232.859 872.959 233.094 872.537 233.562C872.115 234.026 871.904 234.622 871.904 235.352V243H869.576V235.023C869.576 234.372 869.373 233.849 868.967 233.453C868.561 233.057 868.032 232.859 867.381 232.859C866.938 232.859 866.529 232.977 866.154 233.211C865.785 233.44 865.485 233.76 865.256 234.172C865.032 234.583 864.92 235.06 864.92 235.602V243H862.584ZM891.02 233.93L888.902 234.305C888.814 234.034 888.673 233.776 888.48 233.531C888.293 233.286 888.038 233.086 887.715 232.93C887.392 232.773 886.988 232.695 886.504 232.695C885.842 232.695 885.29 232.844 884.848 233.141C884.405 233.432 884.184 233.81 884.184 234.273C884.184 234.674 884.332 234.997 884.629 235.242C884.926 235.487 885.405 235.687 886.066 235.844L887.973 236.281C889.077 236.536 889.9 236.93 890.441 237.461C890.983 237.992 891.254 238.682 891.254 239.531C891.254 240.25 891.046 240.891 890.629 241.453C890.217 242.01 889.642 242.448 888.902 242.766C888.168 243.083 887.316 243.242 886.348 243.242C885.004 243.242 883.908 242.956 883.059 242.383C882.21 241.805 881.689 240.984 881.496 239.922L883.754 239.578C883.895 240.167 884.184 240.612 884.621 240.914C885.059 241.211 885.629 241.359 886.332 241.359C887.098 241.359 887.71 241.201 888.168 240.883C888.626 240.56 888.855 240.167 888.855 239.703C888.855 239.328 888.715 239.013 888.434 238.758C888.158 238.503 887.733 238.31 887.16 238.18L885.129 237.734C884.009 237.479 883.181 237.073 882.645 236.516C882.113 235.958 881.848 235.253 881.848 234.398C881.848 233.69 882.046 233.07 882.441 232.539C882.837 232.008 883.384 231.594 884.082 231.297C884.78 230.995 885.579 230.844 886.48 230.844C887.777 230.844 888.798 231.125 889.543 231.687C890.288 232.245 890.78 232.992 891.02 233.93ZM895.361 243.148C894.934 243.148 894.567 242.997 894.26 242.695C893.952 242.388 893.799 242.018 893.799 241.586C893.799 241.159 893.952 240.794 894.26 240.492C894.567 240.185 894.934 240.031 895.361 240.031C895.788 240.031 896.156 240.185 896.463 240.492C896.77 240.794 896.924 241.159 896.924 241.586C896.924 241.872 896.851 242.135 896.705 242.375C896.564 242.609 896.377 242.797 896.143 242.937C895.908 243.078 895.648 243.148 895.361 243.148Z" fill="#E0E0E0"/>
<path d="M915.297 243.25L907.266 235.219C906.625 234.578 906.198 233.833 905.984 232.984C905.776 232.135 905.779 231.292 905.992 230.453C906.206 229.609 906.63 228.875 907.266 228.25C907.917 227.609 908.659 227.185 909.492 226.977C910.331 226.763 911.167 226.763 912 226.977C912.839 227.19 913.583 227.615 914.234 228.25L915.297 229.281L916.359 228.25C917.016 227.615 917.76 227.19 918.594 226.977C919.427 226.763 920.26 226.763 921.094 226.977C921.932 227.185 922.677 227.609 923.328 228.25C923.964 228.875 924.388 229.609 924.602 230.453C924.815 231.292 924.815 232.135 924.602 232.984C924.393 233.833 923.969 234.578 923.328 235.219L915.297 243.25Z" fill="#FD5C5C"/>
<path d="M348 210C348 214.243 346.314 218.313 343.314 221.314C340.313 224.314 336.243 226 332 226C327.757 226 323.687 224.314 320.686 221.314C317.686 218.313 316 214.243 316 210L332 210H348Z" fill="#E4E4E4"/>
<path d="M479.751 187.975C480.535 193.218 477.334 198.93 470.558 204.8C463.805 210.65 453.615 216.552 440.727 222.163C414.958 233.382 378.509 243.392 337.494 249.522C296.478 255.651 258.696 256.735 230.773 253.541C216.807 251.943 205.337 249.279 197.168 245.658C188.972 242.026 184.241 237.499 183.458 232.256C182.674 227.012 185.875 221.3 192.65 215.431C199.404 209.58 209.594 203.679 222.482 198.068C248.251 186.849 284.699 176.839 325.715 170.709C366.731 164.579 404.513 163.496 432.436 166.69C446.401 168.287 457.872 170.952 466.041 174.572C474.237 178.204 478.967 182.731 479.751 187.975Z" stroke="#C0C0C0"/>
<circle cx="215" cy="201" r="7" fill="#E4E4E4"/>
<path d="M369.991 209.644C370.01 210.761 369.243 211.995 367.513 213.254C365.799 214.5 363.238 215.694 359.919 216.741C353.289 218.834 343.739 220.31 332.175 220.512C320.61 220.713 311.393 219.565 305.073 217.701C301.91 216.768 299.5 215.664 297.886 214.481C296.264 213.291 295.522 212.082 295.502 210.944C295.482 209.809 296.179 208.602 297.756 207.396C299.327 206.195 301.697 205.058 304.828 204.066C311.082 202.084 320.258 200.717 331.826 200.515C343.393 200.313 352.989 201.352 359.688 203.11C363.041 203.991 365.641 205.044 367.395 206.191C369.166 207.35 369.971 208.531 369.991 209.644Z" stroke="#C0C0C0"/>
<path d="M316 210C316 205.757 317.686 201.687 320.686 198.686C323.687 195.686 327.757 194 332 194C336.243 194 340.313 195.686 343.314 198.686C346.314 201.687 348 205.757 348 210L332 210H316Z" fill="#E4E4E4"/>
<path d="M299 210C299 211.657 297.657 213 296 213C294.343 213 293 211.657 293 210C293 208.343 294.343 207 296 207C297.657 207 299 208.343 299 210Z" fill="#E4E4E4"/>
</svg>
