<?xml version="1.0" standalone="no"?>
<!DOCTYPE svg PUBLIC "-//W3C//DTD SVG 20010904//EN"
 "http://www.w3.org/TR/2001/REC-SVG-20010904/DTD/svg10.dtd">
<svg version="1.0" xmlns="http://www.w3.org/2000/svg"
 width="300.000000pt" height="300.000000pt" viewBox="0 0 300.000000 300.000000"
 preserveAspectRatio="xMidYMid meet">
<metadata>
Created by potrace 1.14, written by Peter Selinger 2001-2017
</metadata>
<g transform="translate(0.000000,300.000000) scale(0.100000,-0.100000)"
fill="#000000" stroke="none">
<path d="M2317 2173 c-38 -20 -52 -53 -71 -173 -9 -58 -24 -145 -33 -195 -9
-49 -18 -103 -20 -120 -8 -62 -13 -91 -22 -135 -5 -25 -12 -67 -16 -95 -11
-79 -12 -87 -30 -154 -9 -35 -14 -65 -11 -68 2 -2 -2 -24 -11 -48 -14 -43 -15
-43 -34 -24 -10 10 -19 25 -19 33 0 8 -13 24 -30 37 -16 13 -30 27 -30 32 0
12 -68 108 -96 136 -13 13 -33 44 -44 68 -10 23 -23 43 -29 43 -5 0 -12 9 -16
19 -3 11 -21 39 -40 63 -19 23 -35 48 -35 54 0 7 -6 14 -14 17 -8 3 -31 31
-50 61 -52 81 -123 167 -164 199 -31 23 -44 27 -84 23 -26 -2 -54 -11 -63 -19
-19 -20 -41 -80 -62 -167 -8 -36 -21 -92 -29 -125 -8 -33 -17 -71 -20 -85 -3
-14 -7 -36 -8 -50 0 -14 -4 -27 -8 -30 -6 -5 -35 -155 -48 -252 -4 -31 -10
-60 -13 -65 -4 -5 -9 -24 -12 -41 -3 -17 -10 -43 -16 -58 l-10 -28 -18 30
c-10 16 -28 38 -40 48 -11 11 -21 23 -21 28 0 5 -10 23 -22 41 -52 77 -58 87
-58 102 0 8 -5 15 -10 15 -6 0 -18 17 -28 37 -18 39 -21 44 -68 102 -16 19
-29 41 -31 50 -1 9 -7 17 -12 19 -6 2 -11 10 -11 18 0 8 -4 14 -9 14 -5 0 -21
25 -36 55 -15 30 -38 64 -51 76 -13 13 -24 27 -24 32 0 10 -54 90 -84 125 -11
12 -16 22 -12 22 5 0 3 7 -4 15 -7 8 -21 15 -32 15 -12 0 -17 4 -12 13 5 9 4
9 -6 0 -7 -6 -18 -9 -26 -6 -22 8 -63 -30 -74 -69 -12 -41 -4 -56 63 -136 15
-18 27 -38 27 -43 0 -20 63 -109 77 -109 8 0 11 -5 8 -11 -4 -6 7 -28 24 -49
16 -21 44 -64 61 -96 17 -33 51 -86 75 -119 25 -33 59 -85 76 -115 18 -30 43
-68 56 -85 13 -16 42 -58 64 -92 23 -35 47 -63 55 -63 7 0 11 -6 9 -13 -6 -16
61 -62 104 -70 49 -10 83 15 119 87 17 33 41 103 52 155 11 52 23 98 26 103 4
5 10 40 15 78 4 38 11 80 15 95 4 18 3 25 -6 23 -7 -2 -15 3 -17 10 -3 6 2 12
9 12 8 0 19 10 25 23 15 31 46 206 47 265 1 17 4 32 9 32 4 0 7 7 7 15 0 8 7
15 15 15 8 0 15 -4 15 -9 0 -5 11 -19 25 -32 13 -13 25 -32 25 -41 0 -11 8
-18 21 -18 11 0 17 -5 14 -10 -4 -6 -12 -7 -18 -4 -7 4 0 -6 16 -23 15 -16 27
-34 27 -39 0 -5 18 -27 39 -48 22 -22 45 -53 52 -70 7 -17 24 -45 38 -62 14
-17 42 -57 61 -88 19 -32 42 -65 50 -74 9 -9 37 -47 63 -83 90 -127 185 -194
254 -179 55 13 103 69 103 122 0 12 6 40 14 63 30 90 37 117 38 148 0 17 4 39
9 48 5 9 11 50 15 90 6 75 13 119 32 199 11 47 28 148 43 260 25 196 26 242 5
274 -24 37 -46 45 -79 29z"/>
<path d="M1600 1400 c0 -11 7 -20 15 -20 17 0 18 2 9 24 -9 23 -24 20 -24 -4z"/>
<path d="M1430 1366 c0 -15 18 -31 26 -23 7 7 -7 37 -17 37 -5 0 -9 -6 -9 -14z"/>
<path d="M1640 1292 c0 -51 -89 -81 -138 -46 -18 12 -22 13 -22 1 0 -19 43
-37 86 -37 26 0 44 8 65 29 28 28 40 71 19 71 -5 0 -10 -8 -10 -18z"/>
</g>
</svg>
